G04 #@! TF.GenerationSoftware,KiCad,Pcbnew,(5.1.2)-1*
G04 #@! TF.CreationDate,2021-06-05T09:35:00+09:00*
G04 #@! TF.ProjectId,cs,63732e6b-6963-4616-945f-706362585858,v3.3*
G04 #@! TF.SameCoordinates,Original*
G04 #@! TF.FileFunction,Soldermask,Bot*
G04 #@! TF.FilePolarity,Negative*
%FSLAX46Y46*%
G04 Gerber Fmt 4.6, Leading zero omitted, Abs format (unit mm)*
G04 Created by KiCad (PCBNEW (5.1.2)-1) date 2021-06-05 09:35:00*
%MOMM*%
%LPD*%
G04 APERTURE LIST*
%ADD10C,0.100000*%
G04 APERTURE END LIST*
D10*
G36*
X108202585Y-77458802D02*
G01*
X108352410Y-77488604D01*
X108634674Y-77605521D01*
X108888705Y-77775259D01*
X109104741Y-77991295D01*
X109274479Y-78245326D01*
X109302510Y-78313000D01*
X109391396Y-78527591D01*
X109451000Y-78827239D01*
X109451000Y-79132761D01*
X109440137Y-79187373D01*
X109391396Y-79432410D01*
X109274479Y-79714674D01*
X109104741Y-79968705D01*
X108888705Y-80184741D01*
X108634674Y-80354479D01*
X108352410Y-80471396D01*
X108202585Y-80501198D01*
X108052761Y-80531000D01*
X107747239Y-80531000D01*
X107597415Y-80501198D01*
X107447590Y-80471396D01*
X107165326Y-80354479D01*
X106911295Y-80184741D01*
X106695259Y-79968705D01*
X106525521Y-79714674D01*
X106408604Y-79432410D01*
X106359863Y-79187373D01*
X106349000Y-79132761D01*
X106349000Y-78827239D01*
X106408604Y-78527591D01*
X106497490Y-78313000D01*
X106525521Y-78245326D01*
X106695259Y-77991295D01*
X106911295Y-77775259D01*
X107165326Y-77605521D01*
X107447590Y-77488604D01*
X107597415Y-77458802D01*
X107747239Y-77429000D01*
X108052761Y-77429000D01*
X108202585Y-77458802D01*
X108202585Y-77458802D01*
G37*
G36*
X128417747Y-78690921D02*
G01*
X128497376Y-78698764D01*
X128650627Y-78745252D01*
X128650630Y-78745253D01*
X128791863Y-78820744D01*
X128915659Y-78922341D01*
X129017256Y-79046137D01*
X129092747Y-79187370D01*
X129092748Y-79187373D01*
X129139236Y-79340624D01*
X129154933Y-79500000D01*
X129139236Y-79659376D01*
X129092748Y-79812627D01*
X129092747Y-79812630D01*
X129017256Y-79953863D01*
X128915659Y-80077659D01*
X128791863Y-80179256D01*
X128650630Y-80254747D01*
X128650627Y-80254748D01*
X128497376Y-80301236D01*
X128417747Y-80309079D01*
X128377934Y-80313000D01*
X128022066Y-80313000D01*
X127982253Y-80309079D01*
X127902624Y-80301236D01*
X127749373Y-80254748D01*
X127749370Y-80254747D01*
X127608137Y-80179256D01*
X127484341Y-80077659D01*
X127382744Y-79953863D01*
X127307253Y-79812630D01*
X127307252Y-79812627D01*
X127260764Y-79659376D01*
X127245067Y-79500000D01*
X127260764Y-79340624D01*
X127307252Y-79187373D01*
X127307253Y-79187370D01*
X127382744Y-79046137D01*
X127484341Y-78922341D01*
X127608137Y-78820744D01*
X127749370Y-78745253D01*
X127749373Y-78745252D01*
X127902624Y-78698764D01*
X127982253Y-78690921D01*
X128022066Y-78687000D01*
X128377934Y-78687000D01*
X128417747Y-78690921D01*
X128417747Y-78690921D01*
G37*
G36*
X128417747Y-76690921D02*
G01*
X128497376Y-76698764D01*
X128650627Y-76745252D01*
X128650630Y-76745253D01*
X128791863Y-76820744D01*
X128915659Y-76922341D01*
X129017256Y-77046137D01*
X129092747Y-77187370D01*
X129092748Y-77187373D01*
X129139236Y-77340624D01*
X129154933Y-77500000D01*
X129139236Y-77659376D01*
X129104083Y-77775259D01*
X129092747Y-77812630D01*
X129017256Y-77953863D01*
X128915659Y-78077659D01*
X128791863Y-78179256D01*
X128650630Y-78254747D01*
X128650627Y-78254748D01*
X128497376Y-78301236D01*
X128417747Y-78309079D01*
X128377934Y-78313000D01*
X128022066Y-78313000D01*
X127982253Y-78309079D01*
X127902624Y-78301236D01*
X127749373Y-78254748D01*
X127749370Y-78254747D01*
X127608137Y-78179256D01*
X127484341Y-78077659D01*
X127382744Y-77953863D01*
X127307253Y-77812630D01*
X127295917Y-77775259D01*
X127260764Y-77659376D01*
X127245067Y-77500000D01*
X127260764Y-77340624D01*
X127307252Y-77187373D01*
X127307253Y-77187370D01*
X127382744Y-77046137D01*
X127484341Y-76922341D01*
X127608137Y-76820744D01*
X127749370Y-76745253D01*
X127749373Y-76745252D01*
X127902624Y-76698764D01*
X127982253Y-76690921D01*
X128022066Y-76687000D01*
X128377934Y-76687000D01*
X128417747Y-76690921D01*
X128417747Y-76690921D01*
G37*
G36*
X128417747Y-74690921D02*
G01*
X128497376Y-74698764D01*
X128650627Y-74745252D01*
X128650630Y-74745253D01*
X128791863Y-74820744D01*
X128915659Y-74922341D01*
X129017256Y-75046137D01*
X129092747Y-75187370D01*
X129092748Y-75187373D01*
X129139236Y-75340624D01*
X129154933Y-75500000D01*
X129139236Y-75659376D01*
X129092748Y-75812627D01*
X129092747Y-75812630D01*
X129017256Y-75953863D01*
X128915659Y-76077659D01*
X128791863Y-76179256D01*
X128650630Y-76254747D01*
X128650627Y-76254748D01*
X128497376Y-76301236D01*
X128417747Y-76309079D01*
X128377934Y-76313000D01*
X128022066Y-76313000D01*
X127982253Y-76309079D01*
X127902624Y-76301236D01*
X127749373Y-76254748D01*
X127749370Y-76254747D01*
X127608137Y-76179256D01*
X127484341Y-76077659D01*
X127382744Y-75953863D01*
X127307253Y-75812630D01*
X127307252Y-75812627D01*
X127260764Y-75659376D01*
X127245067Y-75500000D01*
X127260764Y-75340624D01*
X127307252Y-75187373D01*
X127307253Y-75187370D01*
X127382744Y-75046137D01*
X127484341Y-74922341D01*
X127608137Y-74820744D01*
X127749370Y-74745253D01*
X127749373Y-74745252D01*
X127902624Y-74698764D01*
X127982253Y-74690921D01*
X128022066Y-74687000D01*
X128377934Y-74687000D01*
X128417747Y-74690921D01*
X128417747Y-74690921D01*
G37*
G36*
X109451000Y-75451000D02*
G01*
X106349000Y-75451000D01*
X106349000Y-72349000D01*
X109451000Y-72349000D01*
X109451000Y-75451000D01*
X109451000Y-75451000D01*
G37*
G36*
X128417747Y-72690921D02*
G01*
X128497376Y-72698764D01*
X128650627Y-72745252D01*
X128650630Y-72745253D01*
X128791863Y-72820744D01*
X128915659Y-72922341D01*
X129017256Y-73046137D01*
X129092747Y-73187370D01*
X129092748Y-73187373D01*
X129139236Y-73340624D01*
X129154933Y-73500000D01*
X129139236Y-73659376D01*
X129092748Y-73812627D01*
X129092747Y-73812630D01*
X129017256Y-73953863D01*
X128915659Y-74077659D01*
X128791863Y-74179256D01*
X128650630Y-74254747D01*
X128650627Y-74254748D01*
X128497376Y-74301236D01*
X128417747Y-74309079D01*
X128377934Y-74313000D01*
X128022066Y-74313000D01*
X127982253Y-74309079D01*
X127902624Y-74301236D01*
X127749373Y-74254748D01*
X127749370Y-74254747D01*
X127608137Y-74179256D01*
X127484341Y-74077659D01*
X127382744Y-73953863D01*
X127307253Y-73812630D01*
X127307252Y-73812627D01*
X127260764Y-73659376D01*
X127245067Y-73500000D01*
X127260764Y-73340624D01*
X127307252Y-73187373D01*
X127307253Y-73187370D01*
X127382744Y-73046137D01*
X127484341Y-72922341D01*
X127608137Y-72820744D01*
X127749370Y-72745253D01*
X127749373Y-72745252D01*
X127902624Y-72698764D01*
X127982253Y-72690921D01*
X128022066Y-72687000D01*
X128377934Y-72687000D01*
X128417747Y-72690921D01*
X128417747Y-72690921D01*
G37*
M02*
