G04 #@! TF.GenerationSoftware,KiCad,Pcbnew,(5.1.2)-1*
G04 #@! TF.CreationDate,2021-06-05T09:35:00+09:00*
G04 #@! TF.ProjectId,cs,63732e6b-6963-4616-945f-706362585858,v3.3*
G04 #@! TF.SameCoordinates,Original*
G04 #@! TF.FileFunction,Legend,Bot*
G04 #@! TF.FilePolarity,Positive*
%FSLAX46Y46*%
G04 Gerber Fmt 4.6, Leading zero omitted, Abs format (unit mm)*
G04 Created by KiCad (PCBNEW (5.1.2)-1) date 2021-06-05 09:35:00*
%MOMM*%
%LPD*%
G04 APERTURE LIST*
%ADD10C,0.120000*%
%ADD11O,1.902000X1.626000*%
%ADD12R,3.102000X3.102000*%
%ADD13C,3.102000*%
G04 APERTURE END LIST*
D10*
X126085714Y-76125714D02*
X126123809Y-76163809D01*
X126238095Y-76201904D01*
X126314285Y-76201904D01*
X126428571Y-76163809D01*
X126504761Y-76087619D01*
X126542857Y-76011428D01*
X126580952Y-75859047D01*
X126580952Y-75744761D01*
X126542857Y-75592380D01*
X126504761Y-75516190D01*
X126428571Y-75440000D01*
X126314285Y-75401904D01*
X126238095Y-75401904D01*
X126123809Y-75440000D01*
X126085714Y-75478095D01*
X125400000Y-75668571D02*
X125400000Y-76201904D01*
X125742857Y-75668571D02*
X125742857Y-76087619D01*
X125704761Y-76163809D01*
X125628571Y-76201904D01*
X125514285Y-76201904D01*
X125438095Y-76163809D01*
X125400000Y-76125714D01*
X125019047Y-76201904D02*
X125019047Y-75668571D01*
X125019047Y-75820952D02*
X124980952Y-75744761D01*
X124942857Y-75706666D01*
X124866666Y-75668571D01*
X124790476Y-75668571D01*
X124523809Y-76201904D02*
X124523809Y-75668571D01*
X124523809Y-75820952D02*
X124485714Y-75744761D01*
X124447619Y-75706666D01*
X124371428Y-75668571D01*
X124295238Y-75668571D01*
X123723809Y-76163809D02*
X123800000Y-76201904D01*
X123952380Y-76201904D01*
X124028571Y-76163809D01*
X124066666Y-76087619D01*
X124066666Y-75782857D01*
X124028571Y-75706666D01*
X123952380Y-75668571D01*
X123800000Y-75668571D01*
X123723809Y-75706666D01*
X123685714Y-75782857D01*
X123685714Y-75859047D01*
X124066666Y-75935238D01*
X123342857Y-75668571D02*
X123342857Y-76201904D01*
X123342857Y-75744761D02*
X123304761Y-75706666D01*
X123228571Y-75668571D01*
X123114285Y-75668571D01*
X123038095Y-75706666D01*
X123000000Y-75782857D01*
X123000000Y-76201904D01*
X122733333Y-75668571D02*
X122428571Y-75668571D01*
X122619047Y-75401904D02*
X122619047Y-76087619D01*
X122580952Y-76163809D01*
X122504761Y-76201904D01*
X122428571Y-76201904D01*
X121552380Y-76201904D02*
X121552380Y-75401904D01*
X121247619Y-75401904D01*
X121171428Y-75440000D01*
X121133333Y-75478095D01*
X121095238Y-75554285D01*
X121095238Y-75668571D01*
X121133333Y-75744761D01*
X121171428Y-75782857D01*
X121247619Y-75820952D01*
X121552380Y-75820952D01*
X120409523Y-75668571D02*
X120409523Y-76201904D01*
X120752380Y-75668571D02*
X120752380Y-76087619D01*
X120714285Y-76163809D01*
X120638095Y-76201904D01*
X120523809Y-76201904D01*
X120447619Y-76163809D01*
X120409523Y-76125714D01*
X119914285Y-76201904D02*
X119990476Y-76163809D01*
X120028571Y-76087619D01*
X120028571Y-75401904D01*
X119647619Y-76163809D02*
X119571428Y-76201904D01*
X119419047Y-76201904D01*
X119342857Y-76163809D01*
X119304761Y-76087619D01*
X119304761Y-76049523D01*
X119342857Y-75973333D01*
X119419047Y-75935238D01*
X119533333Y-75935238D01*
X119609523Y-75897142D01*
X119647619Y-75820952D01*
X119647619Y-75782857D01*
X119609523Y-75706666D01*
X119533333Y-75668571D01*
X119419047Y-75668571D01*
X119342857Y-75706666D01*
X118657142Y-76163809D02*
X118733333Y-76201904D01*
X118885714Y-76201904D01*
X118961904Y-76163809D01*
X119000000Y-76087619D01*
X119000000Y-75782857D01*
X118961904Y-75706666D01*
X118885714Y-75668571D01*
X118733333Y-75668571D01*
X118657142Y-75706666D01*
X118619047Y-75782857D01*
X118619047Y-75859047D01*
X119000000Y-75935238D01*
X117666666Y-76201904D02*
X117666666Y-75401904D01*
X117476190Y-75401904D01*
X117361904Y-75440000D01*
X117285714Y-75516190D01*
X117247619Y-75592380D01*
X117209523Y-75744761D01*
X117209523Y-75859047D01*
X117247619Y-76011428D01*
X117285714Y-76087619D01*
X117361904Y-76163809D01*
X117476190Y-76201904D01*
X117666666Y-76201904D01*
X116561904Y-76163809D02*
X116638095Y-76201904D01*
X116790476Y-76201904D01*
X116866666Y-76163809D01*
X116904761Y-76087619D01*
X116904761Y-75782857D01*
X116866666Y-75706666D01*
X116790476Y-75668571D01*
X116638095Y-75668571D01*
X116561904Y-75706666D01*
X116523809Y-75782857D01*
X116523809Y-75859047D01*
X116904761Y-75935238D01*
X116295238Y-75668571D02*
X115990476Y-75668571D01*
X116180952Y-75401904D02*
X116180952Y-76087619D01*
X116142857Y-76163809D01*
X116066666Y-76201904D01*
X115990476Y-76201904D01*
X115419047Y-76163809D02*
X115495238Y-76201904D01*
X115647619Y-76201904D01*
X115723809Y-76163809D01*
X115761904Y-76087619D01*
X115761904Y-75782857D01*
X115723809Y-75706666D01*
X115647619Y-75668571D01*
X115495238Y-75668571D01*
X115419047Y-75706666D01*
X115380952Y-75782857D01*
X115380952Y-75859047D01*
X115761904Y-75935238D01*
X114695238Y-76163809D02*
X114771428Y-76201904D01*
X114923809Y-76201904D01*
X115000000Y-76163809D01*
X115038095Y-76125714D01*
X115076190Y-76049523D01*
X115076190Y-75820952D01*
X115038095Y-75744761D01*
X115000000Y-75706666D01*
X114923809Y-75668571D01*
X114771428Y-75668571D01*
X114695238Y-75706666D01*
X114466666Y-75668571D02*
X114161904Y-75668571D01*
X114352380Y-75401904D02*
X114352380Y-76087619D01*
X114314285Y-76163809D01*
X114238095Y-76201904D01*
X114161904Y-76201904D01*
X113780952Y-76201904D02*
X113857142Y-76163809D01*
X113895238Y-76125714D01*
X113933333Y-76049523D01*
X113933333Y-75820952D01*
X113895238Y-75744761D01*
X113857142Y-75706666D01*
X113780952Y-75668571D01*
X113666666Y-75668571D01*
X113590476Y-75706666D01*
X113552380Y-75744761D01*
X113514285Y-75820952D01*
X113514285Y-76049523D01*
X113552380Y-76125714D01*
X113590476Y-76163809D01*
X113666666Y-76201904D01*
X113780952Y-76201904D01*
X113171428Y-76201904D02*
X113171428Y-75668571D01*
X113171428Y-75820952D02*
X113133333Y-75744761D01*
X113095238Y-75706666D01*
X113019047Y-75668571D01*
X112942857Y-75668571D01*
X122771428Y-76988571D02*
X122580952Y-77521904D01*
X122390476Y-76988571D01*
X122161904Y-76721904D02*
X121666666Y-76721904D01*
X121933333Y-77026666D01*
X121819047Y-77026666D01*
X121742857Y-77064761D01*
X121704761Y-77102857D01*
X121666666Y-77179047D01*
X121666666Y-77369523D01*
X121704761Y-77445714D01*
X121742857Y-77483809D01*
X121819047Y-77521904D01*
X122047619Y-77521904D01*
X122123809Y-77483809D01*
X122161904Y-77445714D01*
X121323809Y-77445714D02*
X121285714Y-77483809D01*
X121323809Y-77521904D01*
X121361904Y-77483809D01*
X121323809Y-77445714D01*
X121323809Y-77521904D01*
X120600000Y-76988571D02*
X120600000Y-77521904D01*
X120790476Y-76683809D02*
X120980952Y-77255238D01*
X120485714Y-77255238D01*
X119609523Y-76798095D02*
X119571428Y-76760000D01*
X119495238Y-76721904D01*
X119304761Y-76721904D01*
X119228571Y-76760000D01*
X119190476Y-76798095D01*
X119152380Y-76874285D01*
X119152380Y-76950476D01*
X119190476Y-77064761D01*
X119647619Y-77521904D01*
X119152380Y-77521904D01*
X118390476Y-77521904D02*
X118847619Y-77521904D01*
X118619047Y-77521904D02*
X118619047Y-76721904D01*
X118695238Y-76836190D01*
X118771428Y-76912380D01*
X118847619Y-76950476D01*
X117895238Y-76721904D02*
X117819047Y-76721904D01*
X117742857Y-76760000D01*
X117704761Y-76798095D01*
X117666666Y-76874285D01*
X117628571Y-77026666D01*
X117628571Y-77217142D01*
X117666666Y-77369523D01*
X117704761Y-77445714D01*
X117742857Y-77483809D01*
X117819047Y-77521904D01*
X117895238Y-77521904D01*
X117971428Y-77483809D01*
X118009523Y-77445714D01*
X118047619Y-77369523D01*
X118085714Y-77217142D01*
X118085714Y-77026666D01*
X118047619Y-76874285D01*
X118009523Y-76798095D01*
X117971428Y-76760000D01*
X117895238Y-76721904D01*
X116904761Y-76721904D02*
X117285714Y-76721904D01*
X117323809Y-77102857D01*
X117285714Y-77064761D01*
X117209523Y-77026666D01*
X117019047Y-77026666D01*
X116942857Y-77064761D01*
X116904761Y-77102857D01*
X116866666Y-77179047D01*
X116866666Y-77369523D01*
X116904761Y-77445714D01*
X116942857Y-77483809D01*
X117019047Y-77521904D01*
X117209523Y-77521904D01*
X117285714Y-77483809D01*
X117323809Y-77445714D01*
%LPC*%
D11*
X128200000Y-79500000D03*
X128200000Y-77500000D03*
X128200000Y-75500000D03*
X128200000Y-73500000D03*
D12*
X107900000Y-73900000D03*
D13*
X107900000Y-78980000D03*
M02*
