G04 #@! TF.GenerationSoftware,KiCad,Pcbnew,(5.1.2)-1*
G04 #@! TF.CreationDate,2021-06-05T09:35:00+09:00*
G04 #@! TF.ProjectId,cs,63732e6b-6963-4616-945f-706362585858,v3.3*
G04 #@! TF.SameCoordinates,Original*
G04 #@! TF.FileFunction,Legend,Top*
G04 #@! TF.FilePolarity,Positive*
%FSLAX46Y46*%
G04 Gerber Fmt 4.6, Leading zero omitted, Abs format (unit mm)*
G04 Created by KiCad (PCBNEW (5.1.2)-1) date 2021-06-05 09:35:00*
%MOMM*%
%LPD*%
G04 APERTURE LIST*
%ADD10C,0.150000*%
%ADD11C,0.120000*%
%ADD12C,0.066040*%
%ADD13C,0.254000*%
%ADD14C,0.812800*%
%ADD15C,0.101600*%
%ADD16R,0.552000X1.552000*%
%ADD17R,1.202000X0.502000*%
%ADD18C,1.102000*%
%ADD19C,0.100000*%
%ADD20C,0.692000*%
%ADD21C,0.977000*%
%ADD22O,1.902000X1.626000*%
%ADD23R,1.162000X0.752000*%
%ADD24R,1.399940X1.501540*%
%ADD25R,2.400700X1.600600*%
%ADD26R,3.102000X3.102000*%
%ADD27C,3.102000*%
G04 APERTURE END LIST*
D10*
X123275000Y-86325000D02*
X123275000Y-87675000D01*
X126425000Y-86325000D02*
X126425000Y-81675000D01*
X123175000Y-86325000D02*
X123175000Y-81675000D01*
X126425000Y-86325000D02*
X126225000Y-86325000D01*
X126425000Y-81675000D02*
X126225000Y-81675000D01*
X123175000Y-81675000D02*
X123375000Y-81675000D01*
X123175000Y-86325000D02*
X123275000Y-86325000D01*
X120925000Y-69600000D02*
X122000000Y-69600000D01*
X120925000Y-66475000D02*
X117675000Y-66475000D01*
X120925000Y-69725000D02*
X117675000Y-69725000D01*
X120925000Y-66475000D02*
X120925000Y-66700000D01*
X117675000Y-66475000D02*
X117675000Y-66700000D01*
X117675000Y-69725000D02*
X117675000Y-69500000D01*
X120925000Y-69725000D02*
X120925000Y-69600000D01*
D11*
X122600000Y-85900000D02*
G75*
G03X122600000Y-85900000I-700000J0D01*
G01*
X116349221Y-81210000D02*
X116674779Y-81210000D01*
X116349221Y-80190000D02*
X116674779Y-80190000D01*
D10*
X126700000Y-81000000D02*
X126700000Y-76500000D01*
X129700000Y-81000000D02*
X126700000Y-81000000D01*
X129700000Y-72000000D02*
X129700000Y-81000000D01*
X126700000Y-72000000D02*
X129700000Y-72000000D01*
X126700000Y-76500000D02*
X126700000Y-72000000D01*
X127200000Y-74500000D02*
X126700000Y-74500000D01*
X127200000Y-78500000D02*
X127200000Y-74500000D01*
X126700000Y-78500000D02*
X127200000Y-78500000D01*
D11*
X118610000Y-75275279D02*
X118610000Y-74949721D01*
X117590000Y-75275279D02*
X117590000Y-74949721D01*
X119050779Y-76990000D02*
X118725221Y-76990000D01*
X119050779Y-78010000D02*
X118725221Y-78010000D01*
X123200000Y-72890000D02*
X120750000Y-72890000D01*
X121400000Y-76110000D02*
X123200000Y-76110000D01*
D12*
X118252300Y-85548080D02*
X119547700Y-85548080D01*
X119547700Y-85548080D02*
X119547700Y-85149300D01*
X118252300Y-85149300D02*
X119547700Y-85149300D01*
X118252300Y-85548080D02*
X118252300Y-85149300D01*
X117850980Y-84549860D02*
X119949020Y-84549860D01*
X119949020Y-84549860D02*
X119949020Y-84250140D01*
X117850980Y-84250140D02*
X119949020Y-84250140D01*
X117850980Y-84549860D02*
X117850980Y-84250140D01*
D13*
X117000080Y-82500080D02*
X117000080Y-86299920D01*
X117000080Y-86299920D02*
X120799920Y-86299920D01*
X120799920Y-86299920D02*
X120799920Y-82500080D01*
X120799920Y-82500080D02*
X117000080Y-82500080D01*
X117000080Y-85548080D02*
X117000080Y-82500080D01*
X117000080Y-82500080D02*
X117551260Y-82500080D01*
X120799920Y-85548080D02*
X120799920Y-82500080D01*
X120799920Y-82500080D02*
X120248740Y-82500080D01*
D14*
X119501669Y-85498602D02*
G75*
G03X118300560Y-85499820I-601669J1098602D01*
G01*
D12*
X113552300Y-85546380D02*
X114847700Y-85546380D01*
X114847700Y-85546380D02*
X114847700Y-85147600D01*
X113552300Y-85147600D02*
X114847700Y-85147600D01*
X113552300Y-85546380D02*
X113552300Y-85147600D01*
X113150980Y-84548160D02*
X115249020Y-84548160D01*
X115249020Y-84548160D02*
X115249020Y-84248440D01*
X113150980Y-84248440D02*
X115249020Y-84248440D01*
X113150980Y-84548160D02*
X113150980Y-84248440D01*
D13*
X112300080Y-82498380D02*
X112300080Y-86298220D01*
X112300080Y-86298220D02*
X116099920Y-86298220D01*
X116099920Y-86298220D02*
X116099920Y-82498380D01*
X116099920Y-82498380D02*
X112300080Y-82498380D01*
X112300080Y-85546380D02*
X112300080Y-82498380D01*
X112300080Y-82498380D02*
X112851260Y-82498380D01*
X116099920Y-85546380D02*
X116099920Y-82498380D01*
X116099920Y-82498380D02*
X115548740Y-82498380D01*
D14*
X114801669Y-85496902D02*
G75*
G03X113600560Y-85498120I-601669J1098602D01*
G01*
D11*
X124362779Y-66890000D02*
X124037221Y-66890000D01*
X124362779Y-67910000D02*
X124037221Y-67910000D01*
X124362779Y-68490000D02*
X124037221Y-68490000D01*
X124362779Y-69510000D02*
X124037221Y-69510000D01*
X122350779Y-76990000D02*
X122025221Y-76990000D01*
X122350779Y-78010000D02*
X122025221Y-78010000D01*
X113925221Y-71110000D02*
X114250779Y-71110000D01*
X113925221Y-70090000D02*
X114250779Y-70090000D01*
X114274779Y-68490000D02*
X113949221Y-68490000D01*
X114274779Y-69510000D02*
X113949221Y-69510000D01*
X114274779Y-66890000D02*
X113949221Y-66890000D01*
X114274779Y-67910000D02*
X113949221Y-67910000D01*
X121390000Y-81324721D02*
X121390000Y-81650279D01*
X122410000Y-81324721D02*
X122410000Y-81650279D01*
X122150779Y-71390000D02*
X121825221Y-71390000D01*
X122150779Y-72410000D02*
X121825221Y-72410000D01*
X113949221Y-72710000D02*
X114274779Y-72710000D01*
X113949221Y-71690000D02*
X114274779Y-71690000D01*
X114290000Y-76537221D02*
X114290000Y-76862779D01*
X115310000Y-76537221D02*
X115310000Y-76862779D01*
X129137221Y-87810000D02*
X129462779Y-87810000D01*
X129137221Y-86790000D02*
X129462779Y-86790000D01*
X129137221Y-66410000D02*
X129462779Y-66410000D01*
X129137221Y-65390000D02*
X129462779Y-65390000D01*
X127815000Y-86335000D02*
X130100000Y-86335000D01*
X127815000Y-84865000D02*
X127815000Y-86335000D01*
X130100000Y-84865000D02*
X127815000Y-84865000D01*
X127815000Y-68335000D02*
X130100000Y-68335000D01*
X127815000Y-66865000D02*
X127815000Y-68335000D01*
X130100000Y-66865000D02*
X127815000Y-66865000D01*
X117010000Y-76537221D02*
X117010000Y-76862779D01*
X115990000Y-76537221D02*
X115990000Y-76862779D01*
X105360000Y-81520000D02*
X105360000Y-71360000D01*
X104090000Y-81520000D02*
X111710000Y-81520000D01*
X111710000Y-81520000D02*
X111710000Y-71360000D01*
X111710000Y-71360000D02*
X104090000Y-71360000D01*
X104090000Y-71360000D02*
X104090000Y-81520000D01*
X119050779Y-79610000D02*
X118725221Y-79610000D01*
X119050779Y-78590000D02*
X118725221Y-78590000D01*
D10*
X126752380Y-84761904D02*
X127561904Y-84761904D01*
X127657142Y-84714285D01*
X127704761Y-84666666D01*
X127752380Y-84571428D01*
X127752380Y-84380952D01*
X127704761Y-84285714D01*
X127657142Y-84238095D01*
X127561904Y-84190476D01*
X126752380Y-84190476D01*
X126847619Y-83761904D02*
X126800000Y-83714285D01*
X126752380Y-83619047D01*
X126752380Y-83380952D01*
X126800000Y-83285714D01*
X126847619Y-83238095D01*
X126942857Y-83190476D01*
X127038095Y-83190476D01*
X127180952Y-83238095D01*
X127752380Y-83809523D01*
X127752380Y-83190476D01*
X118538095Y-70102380D02*
X118538095Y-70911904D01*
X118585714Y-71007142D01*
X118633333Y-71054761D01*
X118728571Y-71102380D01*
X118919047Y-71102380D01*
X119014285Y-71054761D01*
X119061904Y-71007142D01*
X119109523Y-70911904D01*
X119109523Y-70102380D01*
X119490476Y-70102380D02*
X120109523Y-70102380D01*
X119776190Y-70483333D01*
X119919047Y-70483333D01*
X120014285Y-70530952D01*
X120061904Y-70578571D01*
X120109523Y-70673809D01*
X120109523Y-70911904D01*
X120061904Y-71007142D01*
X120014285Y-71054761D01*
X119919047Y-71102380D01*
X119633333Y-71102380D01*
X119538095Y-71054761D01*
X119490476Y-71007142D01*
X121561904Y-88709523D02*
X121561904Y-88252380D01*
X122361904Y-88480952D02*
X121561904Y-88480952D01*
X122361904Y-87985714D02*
X121561904Y-87985714D01*
X121561904Y-87680952D01*
X121600000Y-87604761D01*
X121638095Y-87566666D01*
X121714285Y-87528571D01*
X121828571Y-87528571D01*
X121904761Y-87566666D01*
X121942857Y-87604761D01*
X121980952Y-87680952D01*
X121980952Y-87985714D01*
X122361904Y-86766666D02*
X122361904Y-87223809D01*
X122361904Y-86995238D02*
X121561904Y-86995238D01*
X121676190Y-87071428D01*
X121752380Y-87147619D01*
X121790476Y-87223809D01*
X113852380Y-74895238D02*
X113376190Y-75228571D01*
X113852380Y-75466666D02*
X112852380Y-75466666D01*
X112852380Y-75085714D01*
X112900000Y-74990476D01*
X112947619Y-74942857D01*
X113042857Y-74895238D01*
X113185714Y-74895238D01*
X113280952Y-74942857D01*
X113328571Y-74990476D01*
X113376190Y-75085714D01*
X113376190Y-75466666D01*
X112852380Y-74609523D02*
X113852380Y-74276190D01*
X112852380Y-73942857D01*
X112852380Y-73704761D02*
X112852380Y-73085714D01*
X113233333Y-73419047D01*
X113233333Y-73276190D01*
X113280952Y-73180952D01*
X113328571Y-73133333D01*
X113423809Y-73085714D01*
X113661904Y-73085714D01*
X113757142Y-73133333D01*
X113804761Y-73180952D01*
X113852380Y-73276190D01*
X113852380Y-73561904D01*
X113804761Y-73657142D01*
X113757142Y-73704761D01*
X113945333Y-81152380D02*
X113612000Y-80676190D01*
X113373904Y-81152380D02*
X113373904Y-80152380D01*
X113754857Y-80152380D01*
X113850095Y-80200000D01*
X113897714Y-80247619D01*
X113945333Y-80342857D01*
X113945333Y-80485714D01*
X113897714Y-80580952D01*
X113850095Y-80628571D01*
X113754857Y-80676190D01*
X113373904Y-80676190D01*
X114802476Y-80485714D02*
X114802476Y-81152380D01*
X114564380Y-80104761D02*
X114326285Y-80819047D01*
X114945333Y-80819047D01*
X127652380Y-71133333D02*
X128366666Y-71133333D01*
X128509523Y-71180952D01*
X128604761Y-71276190D01*
X128652380Y-71419047D01*
X128652380Y-71514285D01*
X127747619Y-70704761D02*
X127700000Y-70657142D01*
X127652380Y-70561904D01*
X127652380Y-70323809D01*
X127700000Y-70228571D01*
X127747619Y-70180952D01*
X127842857Y-70133333D01*
X127938095Y-70133333D01*
X128080952Y-70180952D01*
X128652380Y-70752380D01*
X128652380Y-70133333D01*
X125200000Y-79238095D02*
X125152380Y-79333333D01*
X125152380Y-79476190D01*
X125200000Y-79619047D01*
X125295238Y-79714285D01*
X125390476Y-79761904D01*
X125580952Y-79809523D01*
X125723809Y-79809523D01*
X125914285Y-79761904D01*
X126009523Y-79714285D01*
X126104761Y-79619047D01*
X126152380Y-79476190D01*
X126152380Y-79380952D01*
X126104761Y-79238095D01*
X126057142Y-79190476D01*
X125723809Y-79190476D01*
X125723809Y-79380952D01*
X125152380Y-77833333D02*
X126152380Y-77500000D01*
X125152380Y-77166666D01*
X126104761Y-76261904D02*
X126152380Y-76119047D01*
X126152380Y-75880952D01*
X126104761Y-75785714D01*
X126057142Y-75738095D01*
X125961904Y-75690476D01*
X125866666Y-75690476D01*
X125771428Y-75738095D01*
X125723809Y-75785714D01*
X125676190Y-75880952D01*
X125628571Y-76071428D01*
X125580952Y-76166666D01*
X125533333Y-76214285D01*
X125438095Y-76261904D01*
X125342857Y-76261904D01*
X125247619Y-76214285D01*
X125200000Y-76166666D01*
X125152380Y-76071428D01*
X125152380Y-75833333D01*
X125200000Y-75690476D01*
X125247619Y-75309523D02*
X125200000Y-75261904D01*
X125152380Y-75166666D01*
X125152380Y-74928571D01*
X125200000Y-74833333D01*
X125247619Y-74785714D01*
X125342857Y-74738095D01*
X125438095Y-74738095D01*
X125580952Y-74785714D01*
X126152380Y-75357142D01*
X126152380Y-74738095D01*
X126104761Y-74261904D02*
X126152380Y-74119047D01*
X126152380Y-73880952D01*
X126104761Y-73785714D01*
X126057142Y-73738095D01*
X125961904Y-73690476D01*
X125866666Y-73690476D01*
X125771428Y-73738095D01*
X125723809Y-73785714D01*
X125676190Y-73880952D01*
X125628571Y-74071428D01*
X125580952Y-74166666D01*
X125533333Y-74214285D01*
X125438095Y-74261904D01*
X125342857Y-74261904D01*
X125247619Y-74214285D01*
X125200000Y-74166666D01*
X125152380Y-74071428D01*
X125152380Y-73833333D01*
X125200000Y-73690476D01*
X126152380Y-72738095D02*
X126152380Y-73309523D01*
X126152380Y-73023809D02*
X125152380Y-73023809D01*
X125295238Y-73119047D01*
X125390476Y-73214285D01*
X125438095Y-73309523D01*
X118552380Y-72966666D02*
X118552380Y-73442857D01*
X117552380Y-73442857D01*
X118552380Y-72109523D02*
X118552380Y-72680952D01*
X118552380Y-72395238D02*
X117552380Y-72395238D01*
X117695238Y-72490476D01*
X117790476Y-72585714D01*
X117838095Y-72680952D01*
X119533833Y-76557142D02*
X119486214Y-76604761D01*
X119343357Y-76652380D01*
X119248119Y-76652380D01*
X119105261Y-76604761D01*
X119010023Y-76509523D01*
X118962404Y-76414285D01*
X118914785Y-76223809D01*
X118914785Y-76080952D01*
X118962404Y-75890476D01*
X119010023Y-75795238D01*
X119105261Y-75700000D01*
X119248119Y-75652380D01*
X119343357Y-75652380D01*
X119486214Y-75700000D01*
X119533833Y-75747619D01*
X120390976Y-75652380D02*
X120200500Y-75652380D01*
X120105261Y-75700000D01*
X120057642Y-75747619D01*
X119962404Y-75890476D01*
X119914785Y-76080952D01*
X119914785Y-76461904D01*
X119962404Y-76557142D01*
X120010023Y-76604761D01*
X120105261Y-76652380D01*
X120295738Y-76652380D01*
X120390976Y-76604761D01*
X120438595Y-76557142D01*
X120486214Y-76461904D01*
X120486214Y-76223809D01*
X120438595Y-76128571D01*
X120390976Y-76080952D01*
X120295738Y-76033333D01*
X120105261Y-76033333D01*
X120010023Y-76080952D01*
X119962404Y-76128571D01*
X119914785Y-76223809D01*
X119152380Y-74361904D02*
X119961904Y-74361904D01*
X120057142Y-74314285D01*
X120104761Y-74266666D01*
X120152380Y-74171428D01*
X120152380Y-73980952D01*
X120104761Y-73885714D01*
X120057142Y-73838095D01*
X119961904Y-73790476D01*
X119152380Y-73790476D01*
X120152380Y-72790476D02*
X120152380Y-73361904D01*
X120152380Y-73076190D02*
X119152380Y-73076190D01*
X119295238Y-73171428D01*
X119390476Y-73266666D01*
X119438095Y-73361904D01*
D15*
X118144047Y-88724523D02*
X117720714Y-88119761D01*
X117418333Y-88724523D02*
X117418333Y-87454523D01*
X117902142Y-87454523D01*
X118023095Y-87515000D01*
X118083571Y-87575476D01*
X118144047Y-87696428D01*
X118144047Y-87877857D01*
X118083571Y-87998809D01*
X118023095Y-88059285D01*
X117902142Y-88119761D01*
X117418333Y-88119761D01*
X118506904Y-87454523D02*
X118930238Y-88724523D01*
X119353571Y-87454523D01*
X119716428Y-87575476D02*
X119776904Y-87515000D01*
X119897857Y-87454523D01*
X120200238Y-87454523D01*
X120321190Y-87515000D01*
X120381666Y-87575476D01*
X120442142Y-87696428D01*
X120442142Y-87817380D01*
X120381666Y-87998809D01*
X119655952Y-88724523D01*
X120442142Y-88724523D01*
X113444047Y-88722823D02*
X113020714Y-88118061D01*
X112718333Y-88722823D02*
X112718333Y-87452823D01*
X113202142Y-87452823D01*
X113323095Y-87513300D01*
X113383571Y-87573776D01*
X113444047Y-87694728D01*
X113444047Y-87876157D01*
X113383571Y-87997109D01*
X113323095Y-88057585D01*
X113202142Y-88118061D01*
X112718333Y-88118061D01*
X113806904Y-87452823D02*
X114230238Y-88722823D01*
X114653571Y-87452823D01*
X115742142Y-88722823D02*
X115016428Y-88722823D01*
X115379285Y-88722823D02*
X115379285Y-87452823D01*
X115258333Y-87634252D01*
X115137380Y-87755204D01*
X115016428Y-87815680D01*
D10*
X126333333Y-67852380D02*
X126000000Y-67376190D01*
X125761904Y-67852380D02*
X125761904Y-66852380D01*
X126142857Y-66852380D01*
X126238095Y-66900000D01*
X126285714Y-66947619D01*
X126333333Y-67042857D01*
X126333333Y-67185714D01*
X126285714Y-67280952D01*
X126238095Y-67328571D01*
X126142857Y-67376190D01*
X125761904Y-67376190D01*
X126904761Y-67280952D02*
X126809523Y-67233333D01*
X126761904Y-67185714D01*
X126714285Y-67090476D01*
X126714285Y-67042857D01*
X126761904Y-66947619D01*
X126809523Y-66900000D01*
X126904761Y-66852380D01*
X127095238Y-66852380D01*
X127190476Y-66900000D01*
X127238095Y-66947619D01*
X127285714Y-67042857D01*
X127285714Y-67090476D01*
X127238095Y-67185714D01*
X127190476Y-67233333D01*
X127095238Y-67280952D01*
X126904761Y-67280952D01*
X126809523Y-67328571D01*
X126761904Y-67376190D01*
X126714285Y-67471428D01*
X126714285Y-67661904D01*
X126761904Y-67757142D01*
X126809523Y-67804761D01*
X126904761Y-67852380D01*
X127095238Y-67852380D01*
X127190476Y-67804761D01*
X127238095Y-67757142D01*
X127285714Y-67661904D01*
X127285714Y-67471428D01*
X127238095Y-67376190D01*
X127190476Y-67328571D01*
X127095238Y-67280952D01*
X126333333Y-69552380D02*
X126000000Y-69076190D01*
X125761904Y-69552380D02*
X125761904Y-68552380D01*
X126142857Y-68552380D01*
X126238095Y-68600000D01*
X126285714Y-68647619D01*
X126333333Y-68742857D01*
X126333333Y-68885714D01*
X126285714Y-68980952D01*
X126238095Y-69028571D01*
X126142857Y-69076190D01*
X125761904Y-69076190D01*
X126666666Y-68552380D02*
X127333333Y-68552380D01*
X126904761Y-69552380D01*
X122133333Y-79352380D02*
X121800000Y-78876190D01*
X121561904Y-79352380D02*
X121561904Y-78352380D01*
X121942857Y-78352380D01*
X122038095Y-78400000D01*
X122085714Y-78447619D01*
X122133333Y-78542857D01*
X122133333Y-78685714D01*
X122085714Y-78780952D01*
X122038095Y-78828571D01*
X121942857Y-78876190D01*
X121561904Y-78876190D01*
X122990476Y-78352380D02*
X122800000Y-78352380D01*
X122704761Y-78400000D01*
X122657142Y-78447619D01*
X122561904Y-78590476D01*
X122514285Y-78780952D01*
X122514285Y-79161904D01*
X122561904Y-79257142D01*
X122609523Y-79304761D01*
X122704761Y-79352380D01*
X122895238Y-79352380D01*
X122990476Y-79304761D01*
X123038095Y-79257142D01*
X123085714Y-79161904D01*
X123085714Y-78923809D01*
X123038095Y-78828571D01*
X122990476Y-78780952D01*
X122895238Y-78733333D01*
X122704761Y-78733333D01*
X122609523Y-78780952D01*
X122561904Y-78828571D01*
X122514285Y-78923809D01*
X116333833Y-71052380D02*
X116000500Y-70576190D01*
X115762404Y-71052380D02*
X115762404Y-70052380D01*
X116143357Y-70052380D01*
X116238595Y-70100000D01*
X116286214Y-70147619D01*
X116333833Y-70242857D01*
X116333833Y-70385714D01*
X116286214Y-70480952D01*
X116238595Y-70528571D01*
X116143357Y-70576190D01*
X115762404Y-70576190D01*
X116667166Y-70052380D02*
X117286214Y-70052380D01*
X116952880Y-70433333D01*
X117095738Y-70433333D01*
X117190976Y-70480952D01*
X117238595Y-70528571D01*
X117286214Y-70623809D01*
X117286214Y-70861904D01*
X117238595Y-70957142D01*
X117190976Y-71004761D01*
X117095738Y-71052380D01*
X116810023Y-71052380D01*
X116714785Y-71004761D01*
X116667166Y-70957142D01*
X111533333Y-69452380D02*
X111200000Y-68976190D01*
X110961904Y-69452380D02*
X110961904Y-68452380D01*
X111342857Y-68452380D01*
X111438095Y-68500000D01*
X111485714Y-68547619D01*
X111533333Y-68642857D01*
X111533333Y-68785714D01*
X111485714Y-68880952D01*
X111438095Y-68928571D01*
X111342857Y-68976190D01*
X110961904Y-68976190D01*
X111914285Y-68547619D02*
X111961904Y-68500000D01*
X112057142Y-68452380D01*
X112295238Y-68452380D01*
X112390476Y-68500000D01*
X112438095Y-68547619D01*
X112485714Y-68642857D01*
X112485714Y-68738095D01*
X112438095Y-68880952D01*
X111866666Y-69452380D01*
X112485714Y-69452380D01*
X111532833Y-67757142D02*
X111485214Y-67804761D01*
X111342357Y-67852380D01*
X111247119Y-67852380D01*
X111104261Y-67804761D01*
X111009023Y-67709523D01*
X110961404Y-67614285D01*
X110913785Y-67423809D01*
X110913785Y-67280952D01*
X110961404Y-67090476D01*
X111009023Y-66995238D01*
X111104261Y-66900000D01*
X111247119Y-66852380D01*
X111342357Y-66852380D01*
X111485214Y-66900000D01*
X111532833Y-66947619D01*
X112437595Y-66852380D02*
X111961404Y-66852380D01*
X111913785Y-67328571D01*
X111961404Y-67280952D01*
X112056642Y-67233333D01*
X112294738Y-67233333D01*
X112389976Y-67280952D01*
X112437595Y-67328571D01*
X112485214Y-67423809D01*
X112485214Y-67661904D01*
X112437595Y-67757142D01*
X112389976Y-67804761D01*
X112294738Y-67852380D01*
X112056642Y-67852380D01*
X111961404Y-67804761D01*
X111913785Y-67757142D01*
X122257142Y-84066666D02*
X122304761Y-84114285D01*
X122352380Y-84257142D01*
X122352380Y-84352380D01*
X122304761Y-84495238D01*
X122209523Y-84590476D01*
X122114285Y-84638095D01*
X121923809Y-84685714D01*
X121780952Y-84685714D01*
X121590476Y-84638095D01*
X121495238Y-84590476D01*
X121400000Y-84495238D01*
X121352380Y-84352380D01*
X121352380Y-84257142D01*
X121400000Y-84114285D01*
X121447619Y-84066666D01*
X121685714Y-83209523D02*
X122352380Y-83209523D01*
X121304761Y-83447619D02*
X122019047Y-83685714D01*
X122019047Y-83066666D01*
X121833333Y-70957142D02*
X121785714Y-71004761D01*
X121642857Y-71052380D01*
X121547619Y-71052380D01*
X121404761Y-71004761D01*
X121309523Y-70909523D01*
X121261904Y-70814285D01*
X121214285Y-70623809D01*
X121214285Y-70480952D01*
X121261904Y-70290476D01*
X121309523Y-70195238D01*
X121404761Y-70100000D01*
X121547619Y-70052380D01*
X121642857Y-70052380D01*
X121785714Y-70100000D01*
X121833333Y-70147619D01*
X122166666Y-70052380D02*
X122785714Y-70052380D01*
X122452380Y-70433333D01*
X122595238Y-70433333D01*
X122690476Y-70480952D01*
X122738095Y-70528571D01*
X122785714Y-70623809D01*
X122785714Y-70861904D01*
X122738095Y-70957142D01*
X122690476Y-71004761D01*
X122595238Y-71052380D01*
X122309523Y-71052380D01*
X122214285Y-71004761D01*
X122166666Y-70957142D01*
X116332833Y-72557142D02*
X116285214Y-72604761D01*
X116142357Y-72652380D01*
X116047119Y-72652380D01*
X115904261Y-72604761D01*
X115809023Y-72509523D01*
X115761404Y-72414285D01*
X115713785Y-72223809D01*
X115713785Y-72080952D01*
X115761404Y-71890476D01*
X115809023Y-71795238D01*
X115904261Y-71700000D01*
X116047119Y-71652380D01*
X116142357Y-71652380D01*
X116285214Y-71700000D01*
X116332833Y-71747619D01*
X116713785Y-71747619D02*
X116761404Y-71700000D01*
X116856642Y-71652380D01*
X117094738Y-71652380D01*
X117189976Y-71700000D01*
X117237595Y-71747619D01*
X117285214Y-71842857D01*
X117285214Y-71938095D01*
X117237595Y-72080952D01*
X116666166Y-72652380D01*
X117285214Y-72652380D01*
X115352380Y-74466666D02*
X114876190Y-74800000D01*
X115352380Y-75038095D02*
X114352380Y-75038095D01*
X114352380Y-74657142D01*
X114400000Y-74561904D01*
X114447619Y-74514285D01*
X114542857Y-74466666D01*
X114685714Y-74466666D01*
X114780952Y-74514285D01*
X114828571Y-74561904D01*
X114876190Y-74657142D01*
X114876190Y-75038095D01*
X115352380Y-73514285D02*
X115352380Y-74085714D01*
X115352380Y-73800000D02*
X114352380Y-73800000D01*
X114495238Y-73895238D01*
X114590476Y-73990476D01*
X114638095Y-74085714D01*
X131557142Y-87752380D02*
X131223809Y-87276190D01*
X130985714Y-87752380D02*
X130985714Y-86752380D01*
X131366666Y-86752380D01*
X131461904Y-86800000D01*
X131509523Y-86847619D01*
X131557142Y-86942857D01*
X131557142Y-87085714D01*
X131509523Y-87180952D01*
X131461904Y-87228571D01*
X131366666Y-87276190D01*
X130985714Y-87276190D01*
X132509523Y-87752380D02*
X131938095Y-87752380D01*
X132223809Y-87752380D02*
X132223809Y-86752380D01*
X132128571Y-86895238D01*
X132033333Y-86990476D01*
X131938095Y-87038095D01*
X133461904Y-87752380D02*
X132890476Y-87752380D01*
X133176190Y-87752380D02*
X133176190Y-86752380D01*
X133080952Y-86895238D01*
X132985714Y-86990476D01*
X132890476Y-87038095D01*
X131657142Y-66352380D02*
X131323809Y-65876190D01*
X131085714Y-66352380D02*
X131085714Y-65352380D01*
X131466666Y-65352380D01*
X131561904Y-65400000D01*
X131609523Y-65447619D01*
X131657142Y-65542857D01*
X131657142Y-65685714D01*
X131609523Y-65780952D01*
X131561904Y-65828571D01*
X131466666Y-65876190D01*
X131085714Y-65876190D01*
X132609523Y-66352380D02*
X132038095Y-66352380D01*
X132323809Y-66352380D02*
X132323809Y-65352380D01*
X132228571Y-65495238D01*
X132133333Y-65590476D01*
X132038095Y-65638095D01*
X133228571Y-65352380D02*
X133323809Y-65352380D01*
X133419047Y-65400000D01*
X133466666Y-65447619D01*
X133514285Y-65542857D01*
X133561904Y-65733333D01*
X133561904Y-65971428D01*
X133514285Y-66161904D01*
X133466666Y-66257142D01*
X133419047Y-66304761D01*
X133323809Y-66352380D01*
X133228571Y-66352380D01*
X133133333Y-66304761D01*
X133085714Y-66257142D01*
X133038095Y-66161904D01*
X132990476Y-65971428D01*
X132990476Y-65733333D01*
X133038095Y-65542857D01*
X133085714Y-65447619D01*
X133133333Y-65400000D01*
X133228571Y-65352380D01*
X130961904Y-86152380D02*
X130961904Y-85152380D01*
X131200000Y-85152380D01*
X131342857Y-85200000D01*
X131438095Y-85295238D01*
X131485714Y-85390476D01*
X131533333Y-85580952D01*
X131533333Y-85723809D01*
X131485714Y-85914285D01*
X131438095Y-86009523D01*
X131342857Y-86104761D01*
X131200000Y-86152380D01*
X130961904Y-86152380D01*
X131914285Y-85247619D02*
X131961904Y-85200000D01*
X132057142Y-85152380D01*
X132295238Y-85152380D01*
X132390476Y-85200000D01*
X132438095Y-85247619D01*
X132485714Y-85342857D01*
X132485714Y-85438095D01*
X132438095Y-85580952D01*
X131866666Y-86152380D01*
X132485714Y-86152380D01*
X131061904Y-68052380D02*
X131061904Y-67052380D01*
X131300000Y-67052380D01*
X131442857Y-67100000D01*
X131538095Y-67195238D01*
X131585714Y-67290476D01*
X131633333Y-67480952D01*
X131633333Y-67623809D01*
X131585714Y-67814285D01*
X131538095Y-67909523D01*
X131442857Y-68004761D01*
X131300000Y-68052380D01*
X131061904Y-68052380D01*
X132585714Y-68052380D02*
X132014285Y-68052380D01*
X132300000Y-68052380D02*
X132300000Y-67052380D01*
X132204761Y-67195238D01*
X132109523Y-67290476D01*
X132014285Y-67338095D01*
X116857142Y-74466666D02*
X116904761Y-74514285D01*
X116952380Y-74657142D01*
X116952380Y-74752380D01*
X116904761Y-74895238D01*
X116809523Y-74990476D01*
X116714285Y-75038095D01*
X116523809Y-75085714D01*
X116380952Y-75085714D01*
X116190476Y-75038095D01*
X116095238Y-74990476D01*
X116000000Y-74895238D01*
X115952380Y-74752380D01*
X115952380Y-74657142D01*
X116000000Y-74514285D01*
X116047619Y-74466666D01*
X116952380Y-73514285D02*
X116952380Y-74085714D01*
X116952380Y-73800000D02*
X115952380Y-73800000D01*
X116095238Y-73895238D01*
X116190476Y-73990476D01*
X116238095Y-74085714D01*
X107252380Y-70733333D02*
X107966666Y-70733333D01*
X108109523Y-70780952D01*
X108204761Y-70876190D01*
X108252380Y-71019047D01*
X108252380Y-71114285D01*
X108252380Y-69733333D02*
X108252380Y-70304761D01*
X108252380Y-70019047D02*
X107252380Y-70019047D01*
X107395238Y-70114285D01*
X107490476Y-70209523D01*
X107538095Y-70304761D01*
X116333833Y-79552380D02*
X116000500Y-79076190D01*
X115762404Y-79552380D02*
X115762404Y-78552380D01*
X116143357Y-78552380D01*
X116238595Y-78600000D01*
X116286214Y-78647619D01*
X116333833Y-78742857D01*
X116333833Y-78885714D01*
X116286214Y-78980952D01*
X116238595Y-79028571D01*
X116143357Y-79076190D01*
X115762404Y-79076190D01*
X117238595Y-78552380D02*
X116762404Y-78552380D01*
X116714785Y-79028571D01*
X116762404Y-78980952D01*
X116857642Y-78933333D01*
X117095738Y-78933333D01*
X117190976Y-78980952D01*
X117238595Y-79028571D01*
X117286214Y-79123809D01*
X117286214Y-79361904D01*
X117238595Y-79457142D01*
X117190976Y-79504761D01*
X117095738Y-79552380D01*
X116857642Y-79552380D01*
X116762404Y-79504761D01*
X116714785Y-79457142D01*
%LPC*%
D16*
X123825000Y-81050000D03*
X124475000Y-81050000D03*
X125125000Y-81050000D03*
X125775000Y-81050000D03*
X125775000Y-86950000D03*
X125125000Y-86950000D03*
X124475000Y-86950000D03*
X123825000Y-86950000D03*
D17*
X117150000Y-69075000D03*
X117150000Y-68425000D03*
X117150000Y-67775000D03*
X117150000Y-67125000D03*
X121450000Y-67125000D03*
X121450000Y-67775000D03*
X121450000Y-68425000D03*
X121450000Y-69075000D03*
D18*
X121900000Y-85900000D03*
D19*
G36*
X113614957Y-76754833D02*
G01*
X113631751Y-76757324D01*
X113648219Y-76761449D01*
X113664204Y-76767169D01*
X113679552Y-76774428D01*
X113694114Y-76783156D01*
X113707750Y-76793269D01*
X113720329Y-76804671D01*
X113731731Y-76817250D01*
X113741844Y-76830886D01*
X113750572Y-76845448D01*
X113757831Y-76860796D01*
X113763551Y-76876781D01*
X113767676Y-76893249D01*
X113770167Y-76910043D01*
X113771000Y-76927000D01*
X113771000Y-77273000D01*
X113770167Y-77289957D01*
X113767676Y-77306751D01*
X113763551Y-77323219D01*
X113757831Y-77339204D01*
X113750572Y-77354552D01*
X113741844Y-77369114D01*
X113731731Y-77382750D01*
X113720329Y-77395329D01*
X113707750Y-77406731D01*
X113694114Y-77416844D01*
X113679552Y-77425572D01*
X113664204Y-77432831D01*
X113648219Y-77438551D01*
X113631751Y-77442676D01*
X113614957Y-77445167D01*
X113598000Y-77446000D01*
X113202000Y-77446000D01*
X113185043Y-77445167D01*
X113168249Y-77442676D01*
X113151781Y-77438551D01*
X113135796Y-77432831D01*
X113120448Y-77425572D01*
X113105886Y-77416844D01*
X113092250Y-77406731D01*
X113079671Y-77395329D01*
X113068269Y-77382750D01*
X113058156Y-77369114D01*
X113049428Y-77354552D01*
X113042169Y-77339204D01*
X113036449Y-77323219D01*
X113032324Y-77306751D01*
X113029833Y-77289957D01*
X113029000Y-77273000D01*
X113029000Y-76927000D01*
X113029833Y-76910043D01*
X113032324Y-76893249D01*
X113036449Y-76876781D01*
X113042169Y-76860796D01*
X113049428Y-76845448D01*
X113058156Y-76830886D01*
X113068269Y-76817250D01*
X113079671Y-76804671D01*
X113092250Y-76793269D01*
X113105886Y-76783156D01*
X113120448Y-76774428D01*
X113135796Y-76767169D01*
X113151781Y-76761449D01*
X113168249Y-76757324D01*
X113185043Y-76754833D01*
X113202000Y-76754000D01*
X113598000Y-76754000D01*
X113614957Y-76754833D01*
X113614957Y-76754833D01*
G37*
D20*
X113400000Y-77100000D03*
D19*
G36*
X113614957Y-75784833D02*
G01*
X113631751Y-75787324D01*
X113648219Y-75791449D01*
X113664204Y-75797169D01*
X113679552Y-75804428D01*
X113694114Y-75813156D01*
X113707750Y-75823269D01*
X113720329Y-75834671D01*
X113731731Y-75847250D01*
X113741844Y-75860886D01*
X113750572Y-75875448D01*
X113757831Y-75890796D01*
X113763551Y-75906781D01*
X113767676Y-75923249D01*
X113770167Y-75940043D01*
X113771000Y-75957000D01*
X113771000Y-76303000D01*
X113770167Y-76319957D01*
X113767676Y-76336751D01*
X113763551Y-76353219D01*
X113757831Y-76369204D01*
X113750572Y-76384552D01*
X113741844Y-76399114D01*
X113731731Y-76412750D01*
X113720329Y-76425329D01*
X113707750Y-76436731D01*
X113694114Y-76446844D01*
X113679552Y-76455572D01*
X113664204Y-76462831D01*
X113648219Y-76468551D01*
X113631751Y-76472676D01*
X113614957Y-76475167D01*
X113598000Y-76476000D01*
X113202000Y-76476000D01*
X113185043Y-76475167D01*
X113168249Y-76472676D01*
X113151781Y-76468551D01*
X113135796Y-76462831D01*
X113120448Y-76455572D01*
X113105886Y-76446844D01*
X113092250Y-76436731D01*
X113079671Y-76425329D01*
X113068269Y-76412750D01*
X113058156Y-76399114D01*
X113049428Y-76384552D01*
X113042169Y-76369204D01*
X113036449Y-76353219D01*
X113032324Y-76336751D01*
X113029833Y-76319957D01*
X113029000Y-76303000D01*
X113029000Y-75957000D01*
X113029833Y-75940043D01*
X113032324Y-75923249D01*
X113036449Y-75906781D01*
X113042169Y-75890796D01*
X113049428Y-75875448D01*
X113058156Y-75860886D01*
X113068269Y-75847250D01*
X113079671Y-75834671D01*
X113092250Y-75823269D01*
X113105886Y-75813156D01*
X113120448Y-75804428D01*
X113135796Y-75797169D01*
X113151781Y-75791449D01*
X113168249Y-75787324D01*
X113185043Y-75784833D01*
X113202000Y-75784000D01*
X113598000Y-75784000D01*
X113614957Y-75784833D01*
X113614957Y-75784833D01*
G37*
D20*
X113400000Y-76130000D03*
D19*
G36*
X117567691Y-80175176D02*
G01*
X117591401Y-80178693D01*
X117614652Y-80184517D01*
X117637220Y-80192592D01*
X117658889Y-80202841D01*
X117679448Y-80215164D01*
X117698701Y-80229442D01*
X117716461Y-80245539D01*
X117732558Y-80263299D01*
X117746836Y-80282552D01*
X117759159Y-80303111D01*
X117769408Y-80324780D01*
X117777483Y-80347348D01*
X117783307Y-80370599D01*
X117786824Y-80394309D01*
X117788000Y-80418250D01*
X117788000Y-80981750D01*
X117786824Y-81005691D01*
X117783307Y-81029401D01*
X117777483Y-81052652D01*
X117769408Y-81075220D01*
X117759159Y-81096889D01*
X117746836Y-81117448D01*
X117732558Y-81136701D01*
X117716461Y-81154461D01*
X117698701Y-81170558D01*
X117679448Y-81184836D01*
X117658889Y-81197159D01*
X117637220Y-81207408D01*
X117614652Y-81215483D01*
X117591401Y-81221307D01*
X117567691Y-81224824D01*
X117543750Y-81226000D01*
X117055250Y-81226000D01*
X117031309Y-81224824D01*
X117007599Y-81221307D01*
X116984348Y-81215483D01*
X116961780Y-81207408D01*
X116940111Y-81197159D01*
X116919552Y-81184836D01*
X116900299Y-81170558D01*
X116882539Y-81154461D01*
X116866442Y-81136701D01*
X116852164Y-81117448D01*
X116839841Y-81096889D01*
X116829592Y-81075220D01*
X116821517Y-81052652D01*
X116815693Y-81029401D01*
X116812176Y-81005691D01*
X116811000Y-80981750D01*
X116811000Y-80418250D01*
X116812176Y-80394309D01*
X116815693Y-80370599D01*
X116821517Y-80347348D01*
X116829592Y-80324780D01*
X116839841Y-80303111D01*
X116852164Y-80282552D01*
X116866442Y-80263299D01*
X116882539Y-80245539D01*
X116900299Y-80229442D01*
X116919552Y-80215164D01*
X116940111Y-80202841D01*
X116961780Y-80192592D01*
X116984348Y-80184517D01*
X117007599Y-80178693D01*
X117031309Y-80175176D01*
X117055250Y-80174000D01*
X117543750Y-80174000D01*
X117567691Y-80175176D01*
X117567691Y-80175176D01*
G37*
D21*
X117299500Y-80700000D03*
D19*
G36*
X115992691Y-80175176D02*
G01*
X116016401Y-80178693D01*
X116039652Y-80184517D01*
X116062220Y-80192592D01*
X116083889Y-80202841D01*
X116104448Y-80215164D01*
X116123701Y-80229442D01*
X116141461Y-80245539D01*
X116157558Y-80263299D01*
X116171836Y-80282552D01*
X116184159Y-80303111D01*
X116194408Y-80324780D01*
X116202483Y-80347348D01*
X116208307Y-80370599D01*
X116211824Y-80394309D01*
X116213000Y-80418250D01*
X116213000Y-80981750D01*
X116211824Y-81005691D01*
X116208307Y-81029401D01*
X116202483Y-81052652D01*
X116194408Y-81075220D01*
X116184159Y-81096889D01*
X116171836Y-81117448D01*
X116157558Y-81136701D01*
X116141461Y-81154461D01*
X116123701Y-81170558D01*
X116104448Y-81184836D01*
X116083889Y-81197159D01*
X116062220Y-81207408D01*
X116039652Y-81215483D01*
X116016401Y-81221307D01*
X115992691Y-81224824D01*
X115968750Y-81226000D01*
X115480250Y-81226000D01*
X115456309Y-81224824D01*
X115432599Y-81221307D01*
X115409348Y-81215483D01*
X115386780Y-81207408D01*
X115365111Y-81197159D01*
X115344552Y-81184836D01*
X115325299Y-81170558D01*
X115307539Y-81154461D01*
X115291442Y-81136701D01*
X115277164Y-81117448D01*
X115264841Y-81096889D01*
X115254592Y-81075220D01*
X115246517Y-81052652D01*
X115240693Y-81029401D01*
X115237176Y-81005691D01*
X115236000Y-80981750D01*
X115236000Y-80418250D01*
X115237176Y-80394309D01*
X115240693Y-80370599D01*
X115246517Y-80347348D01*
X115254592Y-80324780D01*
X115264841Y-80303111D01*
X115277164Y-80282552D01*
X115291442Y-80263299D01*
X115307539Y-80245539D01*
X115325299Y-80229442D01*
X115344552Y-80215164D01*
X115365111Y-80202841D01*
X115386780Y-80192592D01*
X115409348Y-80184517D01*
X115432599Y-80178693D01*
X115456309Y-80175176D01*
X115480250Y-80174000D01*
X115968750Y-80174000D01*
X115992691Y-80175176D01*
X115992691Y-80175176D01*
G37*
D21*
X115724500Y-80700000D03*
D22*
X128200000Y-79500000D03*
X128200000Y-77500000D03*
X128200000Y-75500000D03*
X128200000Y-73500000D03*
D19*
G36*
X118405691Y-73837676D02*
G01*
X118429401Y-73841193D01*
X118452652Y-73847017D01*
X118475220Y-73855092D01*
X118496889Y-73865341D01*
X118517448Y-73877664D01*
X118536701Y-73891942D01*
X118554461Y-73908039D01*
X118570558Y-73925799D01*
X118584836Y-73945052D01*
X118597159Y-73965611D01*
X118607408Y-73987280D01*
X118615483Y-74009848D01*
X118621307Y-74033099D01*
X118624824Y-74056809D01*
X118626000Y-74080750D01*
X118626000Y-74569250D01*
X118624824Y-74593191D01*
X118621307Y-74616901D01*
X118615483Y-74640152D01*
X118607408Y-74662720D01*
X118597159Y-74684389D01*
X118584836Y-74704948D01*
X118570558Y-74724201D01*
X118554461Y-74741961D01*
X118536701Y-74758058D01*
X118517448Y-74772336D01*
X118496889Y-74784659D01*
X118475220Y-74794908D01*
X118452652Y-74802983D01*
X118429401Y-74808807D01*
X118405691Y-74812324D01*
X118381750Y-74813500D01*
X117818250Y-74813500D01*
X117794309Y-74812324D01*
X117770599Y-74808807D01*
X117747348Y-74802983D01*
X117724780Y-74794908D01*
X117703111Y-74784659D01*
X117682552Y-74772336D01*
X117663299Y-74758058D01*
X117645539Y-74741961D01*
X117629442Y-74724201D01*
X117615164Y-74704948D01*
X117602841Y-74684389D01*
X117592592Y-74662720D01*
X117584517Y-74640152D01*
X117578693Y-74616901D01*
X117575176Y-74593191D01*
X117574000Y-74569250D01*
X117574000Y-74080750D01*
X117575176Y-74056809D01*
X117578693Y-74033099D01*
X117584517Y-74009848D01*
X117592592Y-73987280D01*
X117602841Y-73965611D01*
X117615164Y-73945052D01*
X117629442Y-73925799D01*
X117645539Y-73908039D01*
X117663299Y-73891942D01*
X117682552Y-73877664D01*
X117703111Y-73865341D01*
X117724780Y-73855092D01*
X117747348Y-73847017D01*
X117770599Y-73841193D01*
X117794309Y-73837676D01*
X117818250Y-73836500D01*
X118381750Y-73836500D01*
X118405691Y-73837676D01*
X118405691Y-73837676D01*
G37*
D21*
X118100000Y-74325000D03*
D19*
G36*
X118405691Y-75412676D02*
G01*
X118429401Y-75416193D01*
X118452652Y-75422017D01*
X118475220Y-75430092D01*
X118496889Y-75440341D01*
X118517448Y-75452664D01*
X118536701Y-75466942D01*
X118554461Y-75483039D01*
X118570558Y-75500799D01*
X118584836Y-75520052D01*
X118597159Y-75540611D01*
X118607408Y-75562280D01*
X118615483Y-75584848D01*
X118621307Y-75608099D01*
X118624824Y-75631809D01*
X118626000Y-75655750D01*
X118626000Y-76144250D01*
X118624824Y-76168191D01*
X118621307Y-76191901D01*
X118615483Y-76215152D01*
X118607408Y-76237720D01*
X118597159Y-76259389D01*
X118584836Y-76279948D01*
X118570558Y-76299201D01*
X118554461Y-76316961D01*
X118536701Y-76333058D01*
X118517448Y-76347336D01*
X118496889Y-76359659D01*
X118475220Y-76369908D01*
X118452652Y-76377983D01*
X118429401Y-76383807D01*
X118405691Y-76387324D01*
X118381750Y-76388500D01*
X117818250Y-76388500D01*
X117794309Y-76387324D01*
X117770599Y-76383807D01*
X117747348Y-76377983D01*
X117724780Y-76369908D01*
X117703111Y-76359659D01*
X117682552Y-76347336D01*
X117663299Y-76333058D01*
X117645539Y-76316961D01*
X117629442Y-76299201D01*
X117615164Y-76279948D01*
X117602841Y-76259389D01*
X117592592Y-76237720D01*
X117584517Y-76215152D01*
X117578693Y-76191901D01*
X117575176Y-76168191D01*
X117574000Y-76144250D01*
X117574000Y-75655750D01*
X117575176Y-75631809D01*
X117578693Y-75608099D01*
X117584517Y-75584848D01*
X117592592Y-75562280D01*
X117602841Y-75540611D01*
X117615164Y-75520052D01*
X117629442Y-75500799D01*
X117645539Y-75483039D01*
X117663299Y-75466942D01*
X117682552Y-75452664D01*
X117703111Y-75440341D01*
X117724780Y-75430092D01*
X117747348Y-75422017D01*
X117770599Y-75416193D01*
X117794309Y-75412676D01*
X117818250Y-75411500D01*
X118381750Y-75411500D01*
X118405691Y-75412676D01*
X118405691Y-75412676D01*
G37*
D21*
X118100000Y-75900000D03*
D19*
G36*
X118368691Y-76975176D02*
G01*
X118392401Y-76978693D01*
X118415652Y-76984517D01*
X118438220Y-76992592D01*
X118459889Y-77002841D01*
X118480448Y-77015164D01*
X118499701Y-77029442D01*
X118517461Y-77045539D01*
X118533558Y-77063299D01*
X118547836Y-77082552D01*
X118560159Y-77103111D01*
X118570408Y-77124780D01*
X118578483Y-77147348D01*
X118584307Y-77170599D01*
X118587824Y-77194309D01*
X118589000Y-77218250D01*
X118589000Y-77781750D01*
X118587824Y-77805691D01*
X118584307Y-77829401D01*
X118578483Y-77852652D01*
X118570408Y-77875220D01*
X118560159Y-77896889D01*
X118547836Y-77917448D01*
X118533558Y-77936701D01*
X118517461Y-77954461D01*
X118499701Y-77970558D01*
X118480448Y-77984836D01*
X118459889Y-77997159D01*
X118438220Y-78007408D01*
X118415652Y-78015483D01*
X118392401Y-78021307D01*
X118368691Y-78024824D01*
X118344750Y-78026000D01*
X117856250Y-78026000D01*
X117832309Y-78024824D01*
X117808599Y-78021307D01*
X117785348Y-78015483D01*
X117762780Y-78007408D01*
X117741111Y-77997159D01*
X117720552Y-77984836D01*
X117701299Y-77970558D01*
X117683539Y-77954461D01*
X117667442Y-77936701D01*
X117653164Y-77917448D01*
X117640841Y-77896889D01*
X117630592Y-77875220D01*
X117622517Y-77852652D01*
X117616693Y-77829401D01*
X117613176Y-77805691D01*
X117612000Y-77781750D01*
X117612000Y-77218250D01*
X117613176Y-77194309D01*
X117616693Y-77170599D01*
X117622517Y-77147348D01*
X117630592Y-77124780D01*
X117640841Y-77103111D01*
X117653164Y-77082552D01*
X117667442Y-77063299D01*
X117683539Y-77045539D01*
X117701299Y-77029442D01*
X117720552Y-77015164D01*
X117741111Y-77002841D01*
X117762780Y-76992592D01*
X117785348Y-76984517D01*
X117808599Y-76978693D01*
X117832309Y-76975176D01*
X117856250Y-76974000D01*
X118344750Y-76974000D01*
X118368691Y-76975176D01*
X118368691Y-76975176D01*
G37*
D21*
X118100500Y-77500000D03*
D19*
G36*
X119943691Y-76975176D02*
G01*
X119967401Y-76978693D01*
X119990652Y-76984517D01*
X120013220Y-76992592D01*
X120034889Y-77002841D01*
X120055448Y-77015164D01*
X120074701Y-77029442D01*
X120092461Y-77045539D01*
X120108558Y-77063299D01*
X120122836Y-77082552D01*
X120135159Y-77103111D01*
X120145408Y-77124780D01*
X120153483Y-77147348D01*
X120159307Y-77170599D01*
X120162824Y-77194309D01*
X120164000Y-77218250D01*
X120164000Y-77781750D01*
X120162824Y-77805691D01*
X120159307Y-77829401D01*
X120153483Y-77852652D01*
X120145408Y-77875220D01*
X120135159Y-77896889D01*
X120122836Y-77917448D01*
X120108558Y-77936701D01*
X120092461Y-77954461D01*
X120074701Y-77970558D01*
X120055448Y-77984836D01*
X120034889Y-77997159D01*
X120013220Y-78007408D01*
X119990652Y-78015483D01*
X119967401Y-78021307D01*
X119943691Y-78024824D01*
X119919750Y-78026000D01*
X119431250Y-78026000D01*
X119407309Y-78024824D01*
X119383599Y-78021307D01*
X119360348Y-78015483D01*
X119337780Y-78007408D01*
X119316111Y-77997159D01*
X119295552Y-77984836D01*
X119276299Y-77970558D01*
X119258539Y-77954461D01*
X119242442Y-77936701D01*
X119228164Y-77917448D01*
X119215841Y-77896889D01*
X119205592Y-77875220D01*
X119197517Y-77852652D01*
X119191693Y-77829401D01*
X119188176Y-77805691D01*
X119187000Y-77781750D01*
X119187000Y-77218250D01*
X119188176Y-77194309D01*
X119191693Y-77170599D01*
X119197517Y-77147348D01*
X119205592Y-77124780D01*
X119215841Y-77103111D01*
X119228164Y-77082552D01*
X119242442Y-77063299D01*
X119258539Y-77045539D01*
X119276299Y-77029442D01*
X119295552Y-77015164D01*
X119316111Y-77002841D01*
X119337780Y-76992592D01*
X119360348Y-76984517D01*
X119383599Y-76978693D01*
X119407309Y-76975176D01*
X119431250Y-76974000D01*
X119919750Y-76974000D01*
X119943691Y-76975176D01*
X119943691Y-76975176D01*
G37*
D21*
X119675500Y-77500000D03*
D23*
X123400000Y-73550000D03*
X123400000Y-75450000D03*
X121200000Y-75450000D03*
X121200000Y-74500000D03*
X121200000Y-73550000D03*
D24*
X117751920Y-86449780D03*
D25*
X118900000Y-82601680D03*
D24*
X120048080Y-86449780D03*
X113051920Y-86448080D03*
D25*
X114200000Y-82599980D03*
D24*
X115348080Y-86448080D03*
D19*
G36*
X123680691Y-66875176D02*
G01*
X123704401Y-66878693D01*
X123727652Y-66884517D01*
X123750220Y-66892592D01*
X123771889Y-66902841D01*
X123792448Y-66915164D01*
X123811701Y-66929442D01*
X123829461Y-66945539D01*
X123845558Y-66963299D01*
X123859836Y-66982552D01*
X123872159Y-67003111D01*
X123882408Y-67024780D01*
X123890483Y-67047348D01*
X123896307Y-67070599D01*
X123899824Y-67094309D01*
X123901000Y-67118250D01*
X123901000Y-67681750D01*
X123899824Y-67705691D01*
X123896307Y-67729401D01*
X123890483Y-67752652D01*
X123882408Y-67775220D01*
X123872159Y-67796889D01*
X123859836Y-67817448D01*
X123845558Y-67836701D01*
X123829461Y-67854461D01*
X123811701Y-67870558D01*
X123792448Y-67884836D01*
X123771889Y-67897159D01*
X123750220Y-67907408D01*
X123727652Y-67915483D01*
X123704401Y-67921307D01*
X123680691Y-67924824D01*
X123656750Y-67926000D01*
X123168250Y-67926000D01*
X123144309Y-67924824D01*
X123120599Y-67921307D01*
X123097348Y-67915483D01*
X123074780Y-67907408D01*
X123053111Y-67897159D01*
X123032552Y-67884836D01*
X123013299Y-67870558D01*
X122995539Y-67854461D01*
X122979442Y-67836701D01*
X122965164Y-67817448D01*
X122952841Y-67796889D01*
X122942592Y-67775220D01*
X122934517Y-67752652D01*
X122928693Y-67729401D01*
X122925176Y-67705691D01*
X122924000Y-67681750D01*
X122924000Y-67118250D01*
X122925176Y-67094309D01*
X122928693Y-67070599D01*
X122934517Y-67047348D01*
X122942592Y-67024780D01*
X122952841Y-67003111D01*
X122965164Y-66982552D01*
X122979442Y-66963299D01*
X122995539Y-66945539D01*
X123013299Y-66929442D01*
X123032552Y-66915164D01*
X123053111Y-66902841D01*
X123074780Y-66892592D01*
X123097348Y-66884517D01*
X123120599Y-66878693D01*
X123144309Y-66875176D01*
X123168250Y-66874000D01*
X123656750Y-66874000D01*
X123680691Y-66875176D01*
X123680691Y-66875176D01*
G37*
D21*
X123412500Y-67400000D03*
D19*
G36*
X125255691Y-66875176D02*
G01*
X125279401Y-66878693D01*
X125302652Y-66884517D01*
X125325220Y-66892592D01*
X125346889Y-66902841D01*
X125367448Y-66915164D01*
X125386701Y-66929442D01*
X125404461Y-66945539D01*
X125420558Y-66963299D01*
X125434836Y-66982552D01*
X125447159Y-67003111D01*
X125457408Y-67024780D01*
X125465483Y-67047348D01*
X125471307Y-67070599D01*
X125474824Y-67094309D01*
X125476000Y-67118250D01*
X125476000Y-67681750D01*
X125474824Y-67705691D01*
X125471307Y-67729401D01*
X125465483Y-67752652D01*
X125457408Y-67775220D01*
X125447159Y-67796889D01*
X125434836Y-67817448D01*
X125420558Y-67836701D01*
X125404461Y-67854461D01*
X125386701Y-67870558D01*
X125367448Y-67884836D01*
X125346889Y-67897159D01*
X125325220Y-67907408D01*
X125302652Y-67915483D01*
X125279401Y-67921307D01*
X125255691Y-67924824D01*
X125231750Y-67926000D01*
X124743250Y-67926000D01*
X124719309Y-67924824D01*
X124695599Y-67921307D01*
X124672348Y-67915483D01*
X124649780Y-67907408D01*
X124628111Y-67897159D01*
X124607552Y-67884836D01*
X124588299Y-67870558D01*
X124570539Y-67854461D01*
X124554442Y-67836701D01*
X124540164Y-67817448D01*
X124527841Y-67796889D01*
X124517592Y-67775220D01*
X124509517Y-67752652D01*
X124503693Y-67729401D01*
X124500176Y-67705691D01*
X124499000Y-67681750D01*
X124499000Y-67118250D01*
X124500176Y-67094309D01*
X124503693Y-67070599D01*
X124509517Y-67047348D01*
X124517592Y-67024780D01*
X124527841Y-67003111D01*
X124540164Y-66982552D01*
X124554442Y-66963299D01*
X124570539Y-66945539D01*
X124588299Y-66929442D01*
X124607552Y-66915164D01*
X124628111Y-66902841D01*
X124649780Y-66892592D01*
X124672348Y-66884517D01*
X124695599Y-66878693D01*
X124719309Y-66875176D01*
X124743250Y-66874000D01*
X125231750Y-66874000D01*
X125255691Y-66875176D01*
X125255691Y-66875176D01*
G37*
D21*
X124987500Y-67400000D03*
D19*
G36*
X123680691Y-68475176D02*
G01*
X123704401Y-68478693D01*
X123727652Y-68484517D01*
X123750220Y-68492592D01*
X123771889Y-68502841D01*
X123792448Y-68515164D01*
X123811701Y-68529442D01*
X123829461Y-68545539D01*
X123845558Y-68563299D01*
X123859836Y-68582552D01*
X123872159Y-68603111D01*
X123882408Y-68624780D01*
X123890483Y-68647348D01*
X123896307Y-68670599D01*
X123899824Y-68694309D01*
X123901000Y-68718250D01*
X123901000Y-69281750D01*
X123899824Y-69305691D01*
X123896307Y-69329401D01*
X123890483Y-69352652D01*
X123882408Y-69375220D01*
X123872159Y-69396889D01*
X123859836Y-69417448D01*
X123845558Y-69436701D01*
X123829461Y-69454461D01*
X123811701Y-69470558D01*
X123792448Y-69484836D01*
X123771889Y-69497159D01*
X123750220Y-69507408D01*
X123727652Y-69515483D01*
X123704401Y-69521307D01*
X123680691Y-69524824D01*
X123656750Y-69526000D01*
X123168250Y-69526000D01*
X123144309Y-69524824D01*
X123120599Y-69521307D01*
X123097348Y-69515483D01*
X123074780Y-69507408D01*
X123053111Y-69497159D01*
X123032552Y-69484836D01*
X123013299Y-69470558D01*
X122995539Y-69454461D01*
X122979442Y-69436701D01*
X122965164Y-69417448D01*
X122952841Y-69396889D01*
X122942592Y-69375220D01*
X122934517Y-69352652D01*
X122928693Y-69329401D01*
X122925176Y-69305691D01*
X122924000Y-69281750D01*
X122924000Y-68718250D01*
X122925176Y-68694309D01*
X122928693Y-68670599D01*
X122934517Y-68647348D01*
X122942592Y-68624780D01*
X122952841Y-68603111D01*
X122965164Y-68582552D01*
X122979442Y-68563299D01*
X122995539Y-68545539D01*
X123013299Y-68529442D01*
X123032552Y-68515164D01*
X123053111Y-68502841D01*
X123074780Y-68492592D01*
X123097348Y-68484517D01*
X123120599Y-68478693D01*
X123144309Y-68475176D01*
X123168250Y-68474000D01*
X123656750Y-68474000D01*
X123680691Y-68475176D01*
X123680691Y-68475176D01*
G37*
D21*
X123412500Y-69000000D03*
D19*
G36*
X125255691Y-68475176D02*
G01*
X125279401Y-68478693D01*
X125302652Y-68484517D01*
X125325220Y-68492592D01*
X125346889Y-68502841D01*
X125367448Y-68515164D01*
X125386701Y-68529442D01*
X125404461Y-68545539D01*
X125420558Y-68563299D01*
X125434836Y-68582552D01*
X125447159Y-68603111D01*
X125457408Y-68624780D01*
X125465483Y-68647348D01*
X125471307Y-68670599D01*
X125474824Y-68694309D01*
X125476000Y-68718250D01*
X125476000Y-69281750D01*
X125474824Y-69305691D01*
X125471307Y-69329401D01*
X125465483Y-69352652D01*
X125457408Y-69375220D01*
X125447159Y-69396889D01*
X125434836Y-69417448D01*
X125420558Y-69436701D01*
X125404461Y-69454461D01*
X125386701Y-69470558D01*
X125367448Y-69484836D01*
X125346889Y-69497159D01*
X125325220Y-69507408D01*
X125302652Y-69515483D01*
X125279401Y-69521307D01*
X125255691Y-69524824D01*
X125231750Y-69526000D01*
X124743250Y-69526000D01*
X124719309Y-69524824D01*
X124695599Y-69521307D01*
X124672348Y-69515483D01*
X124649780Y-69507408D01*
X124628111Y-69497159D01*
X124607552Y-69484836D01*
X124588299Y-69470558D01*
X124570539Y-69454461D01*
X124554442Y-69436701D01*
X124540164Y-69417448D01*
X124527841Y-69396889D01*
X124517592Y-69375220D01*
X124509517Y-69352652D01*
X124503693Y-69329401D01*
X124500176Y-69305691D01*
X124499000Y-69281750D01*
X124499000Y-68718250D01*
X124500176Y-68694309D01*
X124503693Y-68670599D01*
X124509517Y-68647348D01*
X124517592Y-68624780D01*
X124527841Y-68603111D01*
X124540164Y-68582552D01*
X124554442Y-68563299D01*
X124570539Y-68545539D01*
X124588299Y-68529442D01*
X124607552Y-68515164D01*
X124628111Y-68502841D01*
X124649780Y-68492592D01*
X124672348Y-68484517D01*
X124695599Y-68478693D01*
X124719309Y-68475176D01*
X124743250Y-68474000D01*
X125231750Y-68474000D01*
X125255691Y-68475176D01*
X125255691Y-68475176D01*
G37*
D21*
X124987500Y-69000000D03*
D19*
G36*
X121668691Y-76975176D02*
G01*
X121692401Y-76978693D01*
X121715652Y-76984517D01*
X121738220Y-76992592D01*
X121759889Y-77002841D01*
X121780448Y-77015164D01*
X121799701Y-77029442D01*
X121817461Y-77045539D01*
X121833558Y-77063299D01*
X121847836Y-77082552D01*
X121860159Y-77103111D01*
X121870408Y-77124780D01*
X121878483Y-77147348D01*
X121884307Y-77170599D01*
X121887824Y-77194309D01*
X121889000Y-77218250D01*
X121889000Y-77781750D01*
X121887824Y-77805691D01*
X121884307Y-77829401D01*
X121878483Y-77852652D01*
X121870408Y-77875220D01*
X121860159Y-77896889D01*
X121847836Y-77917448D01*
X121833558Y-77936701D01*
X121817461Y-77954461D01*
X121799701Y-77970558D01*
X121780448Y-77984836D01*
X121759889Y-77997159D01*
X121738220Y-78007408D01*
X121715652Y-78015483D01*
X121692401Y-78021307D01*
X121668691Y-78024824D01*
X121644750Y-78026000D01*
X121156250Y-78026000D01*
X121132309Y-78024824D01*
X121108599Y-78021307D01*
X121085348Y-78015483D01*
X121062780Y-78007408D01*
X121041111Y-77997159D01*
X121020552Y-77984836D01*
X121001299Y-77970558D01*
X120983539Y-77954461D01*
X120967442Y-77936701D01*
X120953164Y-77917448D01*
X120940841Y-77896889D01*
X120930592Y-77875220D01*
X120922517Y-77852652D01*
X120916693Y-77829401D01*
X120913176Y-77805691D01*
X120912000Y-77781750D01*
X120912000Y-77218250D01*
X120913176Y-77194309D01*
X120916693Y-77170599D01*
X120922517Y-77147348D01*
X120930592Y-77124780D01*
X120940841Y-77103111D01*
X120953164Y-77082552D01*
X120967442Y-77063299D01*
X120983539Y-77045539D01*
X121001299Y-77029442D01*
X121020552Y-77015164D01*
X121041111Y-77002841D01*
X121062780Y-76992592D01*
X121085348Y-76984517D01*
X121108599Y-76978693D01*
X121132309Y-76975176D01*
X121156250Y-76974000D01*
X121644750Y-76974000D01*
X121668691Y-76975176D01*
X121668691Y-76975176D01*
G37*
D21*
X121400500Y-77500000D03*
D19*
G36*
X123243691Y-76975176D02*
G01*
X123267401Y-76978693D01*
X123290652Y-76984517D01*
X123313220Y-76992592D01*
X123334889Y-77002841D01*
X123355448Y-77015164D01*
X123374701Y-77029442D01*
X123392461Y-77045539D01*
X123408558Y-77063299D01*
X123422836Y-77082552D01*
X123435159Y-77103111D01*
X123445408Y-77124780D01*
X123453483Y-77147348D01*
X123459307Y-77170599D01*
X123462824Y-77194309D01*
X123464000Y-77218250D01*
X123464000Y-77781750D01*
X123462824Y-77805691D01*
X123459307Y-77829401D01*
X123453483Y-77852652D01*
X123445408Y-77875220D01*
X123435159Y-77896889D01*
X123422836Y-77917448D01*
X123408558Y-77936701D01*
X123392461Y-77954461D01*
X123374701Y-77970558D01*
X123355448Y-77984836D01*
X123334889Y-77997159D01*
X123313220Y-78007408D01*
X123290652Y-78015483D01*
X123267401Y-78021307D01*
X123243691Y-78024824D01*
X123219750Y-78026000D01*
X122731250Y-78026000D01*
X122707309Y-78024824D01*
X122683599Y-78021307D01*
X122660348Y-78015483D01*
X122637780Y-78007408D01*
X122616111Y-77997159D01*
X122595552Y-77984836D01*
X122576299Y-77970558D01*
X122558539Y-77954461D01*
X122542442Y-77936701D01*
X122528164Y-77917448D01*
X122515841Y-77896889D01*
X122505592Y-77875220D01*
X122497517Y-77852652D01*
X122491693Y-77829401D01*
X122488176Y-77805691D01*
X122487000Y-77781750D01*
X122487000Y-77218250D01*
X122488176Y-77194309D01*
X122491693Y-77170599D01*
X122497517Y-77147348D01*
X122505592Y-77124780D01*
X122515841Y-77103111D01*
X122528164Y-77082552D01*
X122542442Y-77063299D01*
X122558539Y-77045539D01*
X122576299Y-77029442D01*
X122595552Y-77015164D01*
X122616111Y-77002841D01*
X122637780Y-76992592D01*
X122660348Y-76984517D01*
X122683599Y-76978693D01*
X122707309Y-76975176D01*
X122731250Y-76974000D01*
X123219750Y-76974000D01*
X123243691Y-76975176D01*
X123243691Y-76975176D01*
G37*
D21*
X122975500Y-77500000D03*
D19*
G36*
X115143691Y-70075176D02*
G01*
X115167401Y-70078693D01*
X115190652Y-70084517D01*
X115213220Y-70092592D01*
X115234889Y-70102841D01*
X115255448Y-70115164D01*
X115274701Y-70129442D01*
X115292461Y-70145539D01*
X115308558Y-70163299D01*
X115322836Y-70182552D01*
X115335159Y-70203111D01*
X115345408Y-70224780D01*
X115353483Y-70247348D01*
X115359307Y-70270599D01*
X115362824Y-70294309D01*
X115364000Y-70318250D01*
X115364000Y-70881750D01*
X115362824Y-70905691D01*
X115359307Y-70929401D01*
X115353483Y-70952652D01*
X115345408Y-70975220D01*
X115335159Y-70996889D01*
X115322836Y-71017448D01*
X115308558Y-71036701D01*
X115292461Y-71054461D01*
X115274701Y-71070558D01*
X115255448Y-71084836D01*
X115234889Y-71097159D01*
X115213220Y-71107408D01*
X115190652Y-71115483D01*
X115167401Y-71121307D01*
X115143691Y-71124824D01*
X115119750Y-71126000D01*
X114631250Y-71126000D01*
X114607309Y-71124824D01*
X114583599Y-71121307D01*
X114560348Y-71115483D01*
X114537780Y-71107408D01*
X114516111Y-71097159D01*
X114495552Y-71084836D01*
X114476299Y-71070558D01*
X114458539Y-71054461D01*
X114442442Y-71036701D01*
X114428164Y-71017448D01*
X114415841Y-70996889D01*
X114405592Y-70975220D01*
X114397517Y-70952652D01*
X114391693Y-70929401D01*
X114388176Y-70905691D01*
X114387000Y-70881750D01*
X114387000Y-70318250D01*
X114388176Y-70294309D01*
X114391693Y-70270599D01*
X114397517Y-70247348D01*
X114405592Y-70224780D01*
X114415841Y-70203111D01*
X114428164Y-70182552D01*
X114442442Y-70163299D01*
X114458539Y-70145539D01*
X114476299Y-70129442D01*
X114495552Y-70115164D01*
X114516111Y-70102841D01*
X114537780Y-70092592D01*
X114560348Y-70084517D01*
X114583599Y-70078693D01*
X114607309Y-70075176D01*
X114631250Y-70074000D01*
X115119750Y-70074000D01*
X115143691Y-70075176D01*
X115143691Y-70075176D01*
G37*
D21*
X114875500Y-70600000D03*
D19*
G36*
X113568691Y-70075176D02*
G01*
X113592401Y-70078693D01*
X113615652Y-70084517D01*
X113638220Y-70092592D01*
X113659889Y-70102841D01*
X113680448Y-70115164D01*
X113699701Y-70129442D01*
X113717461Y-70145539D01*
X113733558Y-70163299D01*
X113747836Y-70182552D01*
X113760159Y-70203111D01*
X113770408Y-70224780D01*
X113778483Y-70247348D01*
X113784307Y-70270599D01*
X113787824Y-70294309D01*
X113789000Y-70318250D01*
X113789000Y-70881750D01*
X113787824Y-70905691D01*
X113784307Y-70929401D01*
X113778483Y-70952652D01*
X113770408Y-70975220D01*
X113760159Y-70996889D01*
X113747836Y-71017448D01*
X113733558Y-71036701D01*
X113717461Y-71054461D01*
X113699701Y-71070558D01*
X113680448Y-71084836D01*
X113659889Y-71097159D01*
X113638220Y-71107408D01*
X113615652Y-71115483D01*
X113592401Y-71121307D01*
X113568691Y-71124824D01*
X113544750Y-71126000D01*
X113056250Y-71126000D01*
X113032309Y-71124824D01*
X113008599Y-71121307D01*
X112985348Y-71115483D01*
X112962780Y-71107408D01*
X112941111Y-71097159D01*
X112920552Y-71084836D01*
X112901299Y-71070558D01*
X112883539Y-71054461D01*
X112867442Y-71036701D01*
X112853164Y-71017448D01*
X112840841Y-70996889D01*
X112830592Y-70975220D01*
X112822517Y-70952652D01*
X112816693Y-70929401D01*
X112813176Y-70905691D01*
X112812000Y-70881750D01*
X112812000Y-70318250D01*
X112813176Y-70294309D01*
X112816693Y-70270599D01*
X112822517Y-70247348D01*
X112830592Y-70224780D01*
X112840841Y-70203111D01*
X112853164Y-70182552D01*
X112867442Y-70163299D01*
X112883539Y-70145539D01*
X112901299Y-70129442D01*
X112920552Y-70115164D01*
X112941111Y-70102841D01*
X112962780Y-70092592D01*
X112985348Y-70084517D01*
X113008599Y-70078693D01*
X113032309Y-70075176D01*
X113056250Y-70074000D01*
X113544750Y-70074000D01*
X113568691Y-70075176D01*
X113568691Y-70075176D01*
G37*
D21*
X113300500Y-70600000D03*
D19*
G36*
X113592691Y-68475176D02*
G01*
X113616401Y-68478693D01*
X113639652Y-68484517D01*
X113662220Y-68492592D01*
X113683889Y-68502841D01*
X113704448Y-68515164D01*
X113723701Y-68529442D01*
X113741461Y-68545539D01*
X113757558Y-68563299D01*
X113771836Y-68582552D01*
X113784159Y-68603111D01*
X113794408Y-68624780D01*
X113802483Y-68647348D01*
X113808307Y-68670599D01*
X113811824Y-68694309D01*
X113813000Y-68718250D01*
X113813000Y-69281750D01*
X113811824Y-69305691D01*
X113808307Y-69329401D01*
X113802483Y-69352652D01*
X113794408Y-69375220D01*
X113784159Y-69396889D01*
X113771836Y-69417448D01*
X113757558Y-69436701D01*
X113741461Y-69454461D01*
X113723701Y-69470558D01*
X113704448Y-69484836D01*
X113683889Y-69497159D01*
X113662220Y-69507408D01*
X113639652Y-69515483D01*
X113616401Y-69521307D01*
X113592691Y-69524824D01*
X113568750Y-69526000D01*
X113080250Y-69526000D01*
X113056309Y-69524824D01*
X113032599Y-69521307D01*
X113009348Y-69515483D01*
X112986780Y-69507408D01*
X112965111Y-69497159D01*
X112944552Y-69484836D01*
X112925299Y-69470558D01*
X112907539Y-69454461D01*
X112891442Y-69436701D01*
X112877164Y-69417448D01*
X112864841Y-69396889D01*
X112854592Y-69375220D01*
X112846517Y-69352652D01*
X112840693Y-69329401D01*
X112837176Y-69305691D01*
X112836000Y-69281750D01*
X112836000Y-68718250D01*
X112837176Y-68694309D01*
X112840693Y-68670599D01*
X112846517Y-68647348D01*
X112854592Y-68624780D01*
X112864841Y-68603111D01*
X112877164Y-68582552D01*
X112891442Y-68563299D01*
X112907539Y-68545539D01*
X112925299Y-68529442D01*
X112944552Y-68515164D01*
X112965111Y-68502841D01*
X112986780Y-68492592D01*
X113009348Y-68484517D01*
X113032599Y-68478693D01*
X113056309Y-68475176D01*
X113080250Y-68474000D01*
X113568750Y-68474000D01*
X113592691Y-68475176D01*
X113592691Y-68475176D01*
G37*
D21*
X113324500Y-69000000D03*
D19*
G36*
X115167691Y-68475176D02*
G01*
X115191401Y-68478693D01*
X115214652Y-68484517D01*
X115237220Y-68492592D01*
X115258889Y-68502841D01*
X115279448Y-68515164D01*
X115298701Y-68529442D01*
X115316461Y-68545539D01*
X115332558Y-68563299D01*
X115346836Y-68582552D01*
X115359159Y-68603111D01*
X115369408Y-68624780D01*
X115377483Y-68647348D01*
X115383307Y-68670599D01*
X115386824Y-68694309D01*
X115388000Y-68718250D01*
X115388000Y-69281750D01*
X115386824Y-69305691D01*
X115383307Y-69329401D01*
X115377483Y-69352652D01*
X115369408Y-69375220D01*
X115359159Y-69396889D01*
X115346836Y-69417448D01*
X115332558Y-69436701D01*
X115316461Y-69454461D01*
X115298701Y-69470558D01*
X115279448Y-69484836D01*
X115258889Y-69497159D01*
X115237220Y-69507408D01*
X115214652Y-69515483D01*
X115191401Y-69521307D01*
X115167691Y-69524824D01*
X115143750Y-69526000D01*
X114655250Y-69526000D01*
X114631309Y-69524824D01*
X114607599Y-69521307D01*
X114584348Y-69515483D01*
X114561780Y-69507408D01*
X114540111Y-69497159D01*
X114519552Y-69484836D01*
X114500299Y-69470558D01*
X114482539Y-69454461D01*
X114466442Y-69436701D01*
X114452164Y-69417448D01*
X114439841Y-69396889D01*
X114429592Y-69375220D01*
X114421517Y-69352652D01*
X114415693Y-69329401D01*
X114412176Y-69305691D01*
X114411000Y-69281750D01*
X114411000Y-68718250D01*
X114412176Y-68694309D01*
X114415693Y-68670599D01*
X114421517Y-68647348D01*
X114429592Y-68624780D01*
X114439841Y-68603111D01*
X114452164Y-68582552D01*
X114466442Y-68563299D01*
X114482539Y-68545539D01*
X114500299Y-68529442D01*
X114519552Y-68515164D01*
X114540111Y-68502841D01*
X114561780Y-68492592D01*
X114584348Y-68484517D01*
X114607599Y-68478693D01*
X114631309Y-68475176D01*
X114655250Y-68474000D01*
X115143750Y-68474000D01*
X115167691Y-68475176D01*
X115167691Y-68475176D01*
G37*
D21*
X114899500Y-69000000D03*
D19*
G36*
X113592691Y-66875176D02*
G01*
X113616401Y-66878693D01*
X113639652Y-66884517D01*
X113662220Y-66892592D01*
X113683889Y-66902841D01*
X113704448Y-66915164D01*
X113723701Y-66929442D01*
X113741461Y-66945539D01*
X113757558Y-66963299D01*
X113771836Y-66982552D01*
X113784159Y-67003111D01*
X113794408Y-67024780D01*
X113802483Y-67047348D01*
X113808307Y-67070599D01*
X113811824Y-67094309D01*
X113813000Y-67118250D01*
X113813000Y-67681750D01*
X113811824Y-67705691D01*
X113808307Y-67729401D01*
X113802483Y-67752652D01*
X113794408Y-67775220D01*
X113784159Y-67796889D01*
X113771836Y-67817448D01*
X113757558Y-67836701D01*
X113741461Y-67854461D01*
X113723701Y-67870558D01*
X113704448Y-67884836D01*
X113683889Y-67897159D01*
X113662220Y-67907408D01*
X113639652Y-67915483D01*
X113616401Y-67921307D01*
X113592691Y-67924824D01*
X113568750Y-67926000D01*
X113080250Y-67926000D01*
X113056309Y-67924824D01*
X113032599Y-67921307D01*
X113009348Y-67915483D01*
X112986780Y-67907408D01*
X112965111Y-67897159D01*
X112944552Y-67884836D01*
X112925299Y-67870558D01*
X112907539Y-67854461D01*
X112891442Y-67836701D01*
X112877164Y-67817448D01*
X112864841Y-67796889D01*
X112854592Y-67775220D01*
X112846517Y-67752652D01*
X112840693Y-67729401D01*
X112837176Y-67705691D01*
X112836000Y-67681750D01*
X112836000Y-67118250D01*
X112837176Y-67094309D01*
X112840693Y-67070599D01*
X112846517Y-67047348D01*
X112854592Y-67024780D01*
X112864841Y-67003111D01*
X112877164Y-66982552D01*
X112891442Y-66963299D01*
X112907539Y-66945539D01*
X112925299Y-66929442D01*
X112944552Y-66915164D01*
X112965111Y-66902841D01*
X112986780Y-66892592D01*
X113009348Y-66884517D01*
X113032599Y-66878693D01*
X113056309Y-66875176D01*
X113080250Y-66874000D01*
X113568750Y-66874000D01*
X113592691Y-66875176D01*
X113592691Y-66875176D01*
G37*
D21*
X113324500Y-67400000D03*
D19*
G36*
X115167691Y-66875176D02*
G01*
X115191401Y-66878693D01*
X115214652Y-66884517D01*
X115237220Y-66892592D01*
X115258889Y-66902841D01*
X115279448Y-66915164D01*
X115298701Y-66929442D01*
X115316461Y-66945539D01*
X115332558Y-66963299D01*
X115346836Y-66982552D01*
X115359159Y-67003111D01*
X115369408Y-67024780D01*
X115377483Y-67047348D01*
X115383307Y-67070599D01*
X115386824Y-67094309D01*
X115388000Y-67118250D01*
X115388000Y-67681750D01*
X115386824Y-67705691D01*
X115383307Y-67729401D01*
X115377483Y-67752652D01*
X115369408Y-67775220D01*
X115359159Y-67796889D01*
X115346836Y-67817448D01*
X115332558Y-67836701D01*
X115316461Y-67854461D01*
X115298701Y-67870558D01*
X115279448Y-67884836D01*
X115258889Y-67897159D01*
X115237220Y-67907408D01*
X115214652Y-67915483D01*
X115191401Y-67921307D01*
X115167691Y-67924824D01*
X115143750Y-67926000D01*
X114655250Y-67926000D01*
X114631309Y-67924824D01*
X114607599Y-67921307D01*
X114584348Y-67915483D01*
X114561780Y-67907408D01*
X114540111Y-67897159D01*
X114519552Y-67884836D01*
X114500299Y-67870558D01*
X114482539Y-67854461D01*
X114466442Y-67836701D01*
X114452164Y-67817448D01*
X114439841Y-67796889D01*
X114429592Y-67775220D01*
X114421517Y-67752652D01*
X114415693Y-67729401D01*
X114412176Y-67705691D01*
X114411000Y-67681750D01*
X114411000Y-67118250D01*
X114412176Y-67094309D01*
X114415693Y-67070599D01*
X114421517Y-67047348D01*
X114429592Y-67024780D01*
X114439841Y-67003111D01*
X114452164Y-66982552D01*
X114466442Y-66963299D01*
X114482539Y-66945539D01*
X114500299Y-66929442D01*
X114519552Y-66915164D01*
X114540111Y-66902841D01*
X114561780Y-66892592D01*
X114584348Y-66884517D01*
X114607599Y-66878693D01*
X114631309Y-66875176D01*
X114655250Y-66874000D01*
X115143750Y-66874000D01*
X115167691Y-66875176D01*
X115167691Y-66875176D01*
G37*
D21*
X114899500Y-67400000D03*
D19*
G36*
X122205691Y-81787676D02*
G01*
X122229401Y-81791193D01*
X122252652Y-81797017D01*
X122275220Y-81805092D01*
X122296889Y-81815341D01*
X122317448Y-81827664D01*
X122336701Y-81841942D01*
X122354461Y-81858039D01*
X122370558Y-81875799D01*
X122384836Y-81895052D01*
X122397159Y-81915611D01*
X122407408Y-81937280D01*
X122415483Y-81959848D01*
X122421307Y-81983099D01*
X122424824Y-82006809D01*
X122426000Y-82030750D01*
X122426000Y-82519250D01*
X122424824Y-82543191D01*
X122421307Y-82566901D01*
X122415483Y-82590152D01*
X122407408Y-82612720D01*
X122397159Y-82634389D01*
X122384836Y-82654948D01*
X122370558Y-82674201D01*
X122354461Y-82691961D01*
X122336701Y-82708058D01*
X122317448Y-82722336D01*
X122296889Y-82734659D01*
X122275220Y-82744908D01*
X122252652Y-82752983D01*
X122229401Y-82758807D01*
X122205691Y-82762324D01*
X122181750Y-82763500D01*
X121618250Y-82763500D01*
X121594309Y-82762324D01*
X121570599Y-82758807D01*
X121547348Y-82752983D01*
X121524780Y-82744908D01*
X121503111Y-82734659D01*
X121482552Y-82722336D01*
X121463299Y-82708058D01*
X121445539Y-82691961D01*
X121429442Y-82674201D01*
X121415164Y-82654948D01*
X121402841Y-82634389D01*
X121392592Y-82612720D01*
X121384517Y-82590152D01*
X121378693Y-82566901D01*
X121375176Y-82543191D01*
X121374000Y-82519250D01*
X121374000Y-82030750D01*
X121375176Y-82006809D01*
X121378693Y-81983099D01*
X121384517Y-81959848D01*
X121392592Y-81937280D01*
X121402841Y-81915611D01*
X121415164Y-81895052D01*
X121429442Y-81875799D01*
X121445539Y-81858039D01*
X121463299Y-81841942D01*
X121482552Y-81827664D01*
X121503111Y-81815341D01*
X121524780Y-81805092D01*
X121547348Y-81797017D01*
X121570599Y-81791193D01*
X121594309Y-81787676D01*
X121618250Y-81786500D01*
X122181750Y-81786500D01*
X122205691Y-81787676D01*
X122205691Y-81787676D01*
G37*
D21*
X121900000Y-82275000D03*
D19*
G36*
X122205691Y-80212676D02*
G01*
X122229401Y-80216193D01*
X122252652Y-80222017D01*
X122275220Y-80230092D01*
X122296889Y-80240341D01*
X122317448Y-80252664D01*
X122336701Y-80266942D01*
X122354461Y-80283039D01*
X122370558Y-80300799D01*
X122384836Y-80320052D01*
X122397159Y-80340611D01*
X122407408Y-80362280D01*
X122415483Y-80384848D01*
X122421307Y-80408099D01*
X122424824Y-80431809D01*
X122426000Y-80455750D01*
X122426000Y-80944250D01*
X122424824Y-80968191D01*
X122421307Y-80991901D01*
X122415483Y-81015152D01*
X122407408Y-81037720D01*
X122397159Y-81059389D01*
X122384836Y-81079948D01*
X122370558Y-81099201D01*
X122354461Y-81116961D01*
X122336701Y-81133058D01*
X122317448Y-81147336D01*
X122296889Y-81159659D01*
X122275220Y-81169908D01*
X122252652Y-81177983D01*
X122229401Y-81183807D01*
X122205691Y-81187324D01*
X122181750Y-81188500D01*
X121618250Y-81188500D01*
X121594309Y-81187324D01*
X121570599Y-81183807D01*
X121547348Y-81177983D01*
X121524780Y-81169908D01*
X121503111Y-81159659D01*
X121482552Y-81147336D01*
X121463299Y-81133058D01*
X121445539Y-81116961D01*
X121429442Y-81099201D01*
X121415164Y-81079948D01*
X121402841Y-81059389D01*
X121392592Y-81037720D01*
X121384517Y-81015152D01*
X121378693Y-80991901D01*
X121375176Y-80968191D01*
X121374000Y-80944250D01*
X121374000Y-80455750D01*
X121375176Y-80431809D01*
X121378693Y-80408099D01*
X121384517Y-80384848D01*
X121392592Y-80362280D01*
X121402841Y-80340611D01*
X121415164Y-80320052D01*
X121429442Y-80300799D01*
X121445539Y-80283039D01*
X121463299Y-80266942D01*
X121482552Y-80252664D01*
X121503111Y-80240341D01*
X121524780Y-80230092D01*
X121547348Y-80222017D01*
X121570599Y-80216193D01*
X121594309Y-80212676D01*
X121618250Y-80211500D01*
X122181750Y-80211500D01*
X122205691Y-80212676D01*
X122205691Y-80212676D01*
G37*
D21*
X121900000Y-80700000D03*
D19*
G36*
X121468691Y-71375176D02*
G01*
X121492401Y-71378693D01*
X121515652Y-71384517D01*
X121538220Y-71392592D01*
X121559889Y-71402841D01*
X121580448Y-71415164D01*
X121599701Y-71429442D01*
X121617461Y-71445539D01*
X121633558Y-71463299D01*
X121647836Y-71482552D01*
X121660159Y-71503111D01*
X121670408Y-71524780D01*
X121678483Y-71547348D01*
X121684307Y-71570599D01*
X121687824Y-71594309D01*
X121689000Y-71618250D01*
X121689000Y-72181750D01*
X121687824Y-72205691D01*
X121684307Y-72229401D01*
X121678483Y-72252652D01*
X121670408Y-72275220D01*
X121660159Y-72296889D01*
X121647836Y-72317448D01*
X121633558Y-72336701D01*
X121617461Y-72354461D01*
X121599701Y-72370558D01*
X121580448Y-72384836D01*
X121559889Y-72397159D01*
X121538220Y-72407408D01*
X121515652Y-72415483D01*
X121492401Y-72421307D01*
X121468691Y-72424824D01*
X121444750Y-72426000D01*
X120956250Y-72426000D01*
X120932309Y-72424824D01*
X120908599Y-72421307D01*
X120885348Y-72415483D01*
X120862780Y-72407408D01*
X120841111Y-72397159D01*
X120820552Y-72384836D01*
X120801299Y-72370558D01*
X120783539Y-72354461D01*
X120767442Y-72336701D01*
X120753164Y-72317448D01*
X120740841Y-72296889D01*
X120730592Y-72275220D01*
X120722517Y-72252652D01*
X120716693Y-72229401D01*
X120713176Y-72205691D01*
X120712000Y-72181750D01*
X120712000Y-71618250D01*
X120713176Y-71594309D01*
X120716693Y-71570599D01*
X120722517Y-71547348D01*
X120730592Y-71524780D01*
X120740841Y-71503111D01*
X120753164Y-71482552D01*
X120767442Y-71463299D01*
X120783539Y-71445539D01*
X120801299Y-71429442D01*
X120820552Y-71415164D01*
X120841111Y-71402841D01*
X120862780Y-71392592D01*
X120885348Y-71384517D01*
X120908599Y-71378693D01*
X120932309Y-71375176D01*
X120956250Y-71374000D01*
X121444750Y-71374000D01*
X121468691Y-71375176D01*
X121468691Y-71375176D01*
G37*
D21*
X121200500Y-71900000D03*
D19*
G36*
X123043691Y-71375176D02*
G01*
X123067401Y-71378693D01*
X123090652Y-71384517D01*
X123113220Y-71392592D01*
X123134889Y-71402841D01*
X123155448Y-71415164D01*
X123174701Y-71429442D01*
X123192461Y-71445539D01*
X123208558Y-71463299D01*
X123222836Y-71482552D01*
X123235159Y-71503111D01*
X123245408Y-71524780D01*
X123253483Y-71547348D01*
X123259307Y-71570599D01*
X123262824Y-71594309D01*
X123264000Y-71618250D01*
X123264000Y-72181750D01*
X123262824Y-72205691D01*
X123259307Y-72229401D01*
X123253483Y-72252652D01*
X123245408Y-72275220D01*
X123235159Y-72296889D01*
X123222836Y-72317448D01*
X123208558Y-72336701D01*
X123192461Y-72354461D01*
X123174701Y-72370558D01*
X123155448Y-72384836D01*
X123134889Y-72397159D01*
X123113220Y-72407408D01*
X123090652Y-72415483D01*
X123067401Y-72421307D01*
X123043691Y-72424824D01*
X123019750Y-72426000D01*
X122531250Y-72426000D01*
X122507309Y-72424824D01*
X122483599Y-72421307D01*
X122460348Y-72415483D01*
X122437780Y-72407408D01*
X122416111Y-72397159D01*
X122395552Y-72384836D01*
X122376299Y-72370558D01*
X122358539Y-72354461D01*
X122342442Y-72336701D01*
X122328164Y-72317448D01*
X122315841Y-72296889D01*
X122305592Y-72275220D01*
X122297517Y-72252652D01*
X122291693Y-72229401D01*
X122288176Y-72205691D01*
X122287000Y-72181750D01*
X122287000Y-71618250D01*
X122288176Y-71594309D01*
X122291693Y-71570599D01*
X122297517Y-71547348D01*
X122305592Y-71524780D01*
X122315841Y-71503111D01*
X122328164Y-71482552D01*
X122342442Y-71463299D01*
X122358539Y-71445539D01*
X122376299Y-71429442D01*
X122395552Y-71415164D01*
X122416111Y-71402841D01*
X122437780Y-71392592D01*
X122460348Y-71384517D01*
X122483599Y-71378693D01*
X122507309Y-71375176D01*
X122531250Y-71374000D01*
X123019750Y-71374000D01*
X123043691Y-71375176D01*
X123043691Y-71375176D01*
G37*
D21*
X122775500Y-71900000D03*
D19*
G36*
X115167691Y-71675176D02*
G01*
X115191401Y-71678693D01*
X115214652Y-71684517D01*
X115237220Y-71692592D01*
X115258889Y-71702841D01*
X115279448Y-71715164D01*
X115298701Y-71729442D01*
X115316461Y-71745539D01*
X115332558Y-71763299D01*
X115346836Y-71782552D01*
X115359159Y-71803111D01*
X115369408Y-71824780D01*
X115377483Y-71847348D01*
X115383307Y-71870599D01*
X115386824Y-71894309D01*
X115388000Y-71918250D01*
X115388000Y-72481750D01*
X115386824Y-72505691D01*
X115383307Y-72529401D01*
X115377483Y-72552652D01*
X115369408Y-72575220D01*
X115359159Y-72596889D01*
X115346836Y-72617448D01*
X115332558Y-72636701D01*
X115316461Y-72654461D01*
X115298701Y-72670558D01*
X115279448Y-72684836D01*
X115258889Y-72697159D01*
X115237220Y-72707408D01*
X115214652Y-72715483D01*
X115191401Y-72721307D01*
X115167691Y-72724824D01*
X115143750Y-72726000D01*
X114655250Y-72726000D01*
X114631309Y-72724824D01*
X114607599Y-72721307D01*
X114584348Y-72715483D01*
X114561780Y-72707408D01*
X114540111Y-72697159D01*
X114519552Y-72684836D01*
X114500299Y-72670558D01*
X114482539Y-72654461D01*
X114466442Y-72636701D01*
X114452164Y-72617448D01*
X114439841Y-72596889D01*
X114429592Y-72575220D01*
X114421517Y-72552652D01*
X114415693Y-72529401D01*
X114412176Y-72505691D01*
X114411000Y-72481750D01*
X114411000Y-71918250D01*
X114412176Y-71894309D01*
X114415693Y-71870599D01*
X114421517Y-71847348D01*
X114429592Y-71824780D01*
X114439841Y-71803111D01*
X114452164Y-71782552D01*
X114466442Y-71763299D01*
X114482539Y-71745539D01*
X114500299Y-71729442D01*
X114519552Y-71715164D01*
X114540111Y-71702841D01*
X114561780Y-71692592D01*
X114584348Y-71684517D01*
X114607599Y-71678693D01*
X114631309Y-71675176D01*
X114655250Y-71674000D01*
X115143750Y-71674000D01*
X115167691Y-71675176D01*
X115167691Y-71675176D01*
G37*
D21*
X114899500Y-72200000D03*
D19*
G36*
X113592691Y-71675176D02*
G01*
X113616401Y-71678693D01*
X113639652Y-71684517D01*
X113662220Y-71692592D01*
X113683889Y-71702841D01*
X113704448Y-71715164D01*
X113723701Y-71729442D01*
X113741461Y-71745539D01*
X113757558Y-71763299D01*
X113771836Y-71782552D01*
X113784159Y-71803111D01*
X113794408Y-71824780D01*
X113802483Y-71847348D01*
X113808307Y-71870599D01*
X113811824Y-71894309D01*
X113813000Y-71918250D01*
X113813000Y-72481750D01*
X113811824Y-72505691D01*
X113808307Y-72529401D01*
X113802483Y-72552652D01*
X113794408Y-72575220D01*
X113784159Y-72596889D01*
X113771836Y-72617448D01*
X113757558Y-72636701D01*
X113741461Y-72654461D01*
X113723701Y-72670558D01*
X113704448Y-72684836D01*
X113683889Y-72697159D01*
X113662220Y-72707408D01*
X113639652Y-72715483D01*
X113616401Y-72721307D01*
X113592691Y-72724824D01*
X113568750Y-72726000D01*
X113080250Y-72726000D01*
X113056309Y-72724824D01*
X113032599Y-72721307D01*
X113009348Y-72715483D01*
X112986780Y-72707408D01*
X112965111Y-72697159D01*
X112944552Y-72684836D01*
X112925299Y-72670558D01*
X112907539Y-72654461D01*
X112891442Y-72636701D01*
X112877164Y-72617448D01*
X112864841Y-72596889D01*
X112854592Y-72575220D01*
X112846517Y-72552652D01*
X112840693Y-72529401D01*
X112837176Y-72505691D01*
X112836000Y-72481750D01*
X112836000Y-71918250D01*
X112837176Y-71894309D01*
X112840693Y-71870599D01*
X112846517Y-71847348D01*
X112854592Y-71824780D01*
X112864841Y-71803111D01*
X112877164Y-71782552D01*
X112891442Y-71763299D01*
X112907539Y-71745539D01*
X112925299Y-71729442D01*
X112944552Y-71715164D01*
X112965111Y-71702841D01*
X112986780Y-71692592D01*
X113009348Y-71684517D01*
X113032599Y-71678693D01*
X113056309Y-71675176D01*
X113080250Y-71674000D01*
X113568750Y-71674000D01*
X113592691Y-71675176D01*
X113592691Y-71675176D01*
G37*
D21*
X113324500Y-72200000D03*
D19*
G36*
X115105691Y-77000176D02*
G01*
X115129401Y-77003693D01*
X115152652Y-77009517D01*
X115175220Y-77017592D01*
X115196889Y-77027841D01*
X115217448Y-77040164D01*
X115236701Y-77054442D01*
X115254461Y-77070539D01*
X115270558Y-77088299D01*
X115284836Y-77107552D01*
X115297159Y-77128111D01*
X115307408Y-77149780D01*
X115315483Y-77172348D01*
X115321307Y-77195599D01*
X115324824Y-77219309D01*
X115326000Y-77243250D01*
X115326000Y-77731750D01*
X115324824Y-77755691D01*
X115321307Y-77779401D01*
X115315483Y-77802652D01*
X115307408Y-77825220D01*
X115297159Y-77846889D01*
X115284836Y-77867448D01*
X115270558Y-77886701D01*
X115254461Y-77904461D01*
X115236701Y-77920558D01*
X115217448Y-77934836D01*
X115196889Y-77947159D01*
X115175220Y-77957408D01*
X115152652Y-77965483D01*
X115129401Y-77971307D01*
X115105691Y-77974824D01*
X115081750Y-77976000D01*
X114518250Y-77976000D01*
X114494309Y-77974824D01*
X114470599Y-77971307D01*
X114447348Y-77965483D01*
X114424780Y-77957408D01*
X114403111Y-77947159D01*
X114382552Y-77934836D01*
X114363299Y-77920558D01*
X114345539Y-77904461D01*
X114329442Y-77886701D01*
X114315164Y-77867448D01*
X114302841Y-77846889D01*
X114292592Y-77825220D01*
X114284517Y-77802652D01*
X114278693Y-77779401D01*
X114275176Y-77755691D01*
X114274000Y-77731750D01*
X114274000Y-77243250D01*
X114275176Y-77219309D01*
X114278693Y-77195599D01*
X114284517Y-77172348D01*
X114292592Y-77149780D01*
X114302841Y-77128111D01*
X114315164Y-77107552D01*
X114329442Y-77088299D01*
X114345539Y-77070539D01*
X114363299Y-77054442D01*
X114382552Y-77040164D01*
X114403111Y-77027841D01*
X114424780Y-77017592D01*
X114447348Y-77009517D01*
X114470599Y-77003693D01*
X114494309Y-77000176D01*
X114518250Y-76999000D01*
X115081750Y-76999000D01*
X115105691Y-77000176D01*
X115105691Y-77000176D01*
G37*
D21*
X114800000Y-77487500D03*
D19*
G36*
X115105691Y-75425176D02*
G01*
X115129401Y-75428693D01*
X115152652Y-75434517D01*
X115175220Y-75442592D01*
X115196889Y-75452841D01*
X115217448Y-75465164D01*
X115236701Y-75479442D01*
X115254461Y-75495539D01*
X115270558Y-75513299D01*
X115284836Y-75532552D01*
X115297159Y-75553111D01*
X115307408Y-75574780D01*
X115315483Y-75597348D01*
X115321307Y-75620599D01*
X115324824Y-75644309D01*
X115326000Y-75668250D01*
X115326000Y-76156750D01*
X115324824Y-76180691D01*
X115321307Y-76204401D01*
X115315483Y-76227652D01*
X115307408Y-76250220D01*
X115297159Y-76271889D01*
X115284836Y-76292448D01*
X115270558Y-76311701D01*
X115254461Y-76329461D01*
X115236701Y-76345558D01*
X115217448Y-76359836D01*
X115196889Y-76372159D01*
X115175220Y-76382408D01*
X115152652Y-76390483D01*
X115129401Y-76396307D01*
X115105691Y-76399824D01*
X115081750Y-76401000D01*
X114518250Y-76401000D01*
X114494309Y-76399824D01*
X114470599Y-76396307D01*
X114447348Y-76390483D01*
X114424780Y-76382408D01*
X114403111Y-76372159D01*
X114382552Y-76359836D01*
X114363299Y-76345558D01*
X114345539Y-76329461D01*
X114329442Y-76311701D01*
X114315164Y-76292448D01*
X114302841Y-76271889D01*
X114292592Y-76250220D01*
X114284517Y-76227652D01*
X114278693Y-76204401D01*
X114275176Y-76180691D01*
X114274000Y-76156750D01*
X114274000Y-75668250D01*
X114275176Y-75644309D01*
X114278693Y-75620599D01*
X114284517Y-75597348D01*
X114292592Y-75574780D01*
X114302841Y-75553111D01*
X114315164Y-75532552D01*
X114329442Y-75513299D01*
X114345539Y-75495539D01*
X114363299Y-75479442D01*
X114382552Y-75465164D01*
X114403111Y-75452841D01*
X114424780Y-75442592D01*
X114447348Y-75434517D01*
X114470599Y-75428693D01*
X114494309Y-75425176D01*
X114518250Y-75424000D01*
X115081750Y-75424000D01*
X115105691Y-75425176D01*
X115105691Y-75425176D01*
G37*
D21*
X114800000Y-75912500D03*
D19*
G36*
X130355691Y-86775176D02*
G01*
X130379401Y-86778693D01*
X130402652Y-86784517D01*
X130425220Y-86792592D01*
X130446889Y-86802841D01*
X130467448Y-86815164D01*
X130486701Y-86829442D01*
X130504461Y-86845539D01*
X130520558Y-86863299D01*
X130534836Y-86882552D01*
X130547159Y-86903111D01*
X130557408Y-86924780D01*
X130565483Y-86947348D01*
X130571307Y-86970599D01*
X130574824Y-86994309D01*
X130576000Y-87018250D01*
X130576000Y-87581750D01*
X130574824Y-87605691D01*
X130571307Y-87629401D01*
X130565483Y-87652652D01*
X130557408Y-87675220D01*
X130547159Y-87696889D01*
X130534836Y-87717448D01*
X130520558Y-87736701D01*
X130504461Y-87754461D01*
X130486701Y-87770558D01*
X130467448Y-87784836D01*
X130446889Y-87797159D01*
X130425220Y-87807408D01*
X130402652Y-87815483D01*
X130379401Y-87821307D01*
X130355691Y-87824824D01*
X130331750Y-87826000D01*
X129843250Y-87826000D01*
X129819309Y-87824824D01*
X129795599Y-87821307D01*
X129772348Y-87815483D01*
X129749780Y-87807408D01*
X129728111Y-87797159D01*
X129707552Y-87784836D01*
X129688299Y-87770558D01*
X129670539Y-87754461D01*
X129654442Y-87736701D01*
X129640164Y-87717448D01*
X129627841Y-87696889D01*
X129617592Y-87675220D01*
X129609517Y-87652652D01*
X129603693Y-87629401D01*
X129600176Y-87605691D01*
X129599000Y-87581750D01*
X129599000Y-87018250D01*
X129600176Y-86994309D01*
X129603693Y-86970599D01*
X129609517Y-86947348D01*
X129617592Y-86924780D01*
X129627841Y-86903111D01*
X129640164Y-86882552D01*
X129654442Y-86863299D01*
X129670539Y-86845539D01*
X129688299Y-86829442D01*
X129707552Y-86815164D01*
X129728111Y-86802841D01*
X129749780Y-86792592D01*
X129772348Y-86784517D01*
X129795599Y-86778693D01*
X129819309Y-86775176D01*
X129843250Y-86774000D01*
X130331750Y-86774000D01*
X130355691Y-86775176D01*
X130355691Y-86775176D01*
G37*
D21*
X130087500Y-87300000D03*
D19*
G36*
X128780691Y-86775176D02*
G01*
X128804401Y-86778693D01*
X128827652Y-86784517D01*
X128850220Y-86792592D01*
X128871889Y-86802841D01*
X128892448Y-86815164D01*
X128911701Y-86829442D01*
X128929461Y-86845539D01*
X128945558Y-86863299D01*
X128959836Y-86882552D01*
X128972159Y-86903111D01*
X128982408Y-86924780D01*
X128990483Y-86947348D01*
X128996307Y-86970599D01*
X128999824Y-86994309D01*
X129001000Y-87018250D01*
X129001000Y-87581750D01*
X128999824Y-87605691D01*
X128996307Y-87629401D01*
X128990483Y-87652652D01*
X128982408Y-87675220D01*
X128972159Y-87696889D01*
X128959836Y-87717448D01*
X128945558Y-87736701D01*
X128929461Y-87754461D01*
X128911701Y-87770558D01*
X128892448Y-87784836D01*
X128871889Y-87797159D01*
X128850220Y-87807408D01*
X128827652Y-87815483D01*
X128804401Y-87821307D01*
X128780691Y-87824824D01*
X128756750Y-87826000D01*
X128268250Y-87826000D01*
X128244309Y-87824824D01*
X128220599Y-87821307D01*
X128197348Y-87815483D01*
X128174780Y-87807408D01*
X128153111Y-87797159D01*
X128132552Y-87784836D01*
X128113299Y-87770558D01*
X128095539Y-87754461D01*
X128079442Y-87736701D01*
X128065164Y-87717448D01*
X128052841Y-87696889D01*
X128042592Y-87675220D01*
X128034517Y-87652652D01*
X128028693Y-87629401D01*
X128025176Y-87605691D01*
X128024000Y-87581750D01*
X128024000Y-87018250D01*
X128025176Y-86994309D01*
X128028693Y-86970599D01*
X128034517Y-86947348D01*
X128042592Y-86924780D01*
X128052841Y-86903111D01*
X128065164Y-86882552D01*
X128079442Y-86863299D01*
X128095539Y-86845539D01*
X128113299Y-86829442D01*
X128132552Y-86815164D01*
X128153111Y-86802841D01*
X128174780Y-86792592D01*
X128197348Y-86784517D01*
X128220599Y-86778693D01*
X128244309Y-86775176D01*
X128268250Y-86774000D01*
X128756750Y-86774000D01*
X128780691Y-86775176D01*
X128780691Y-86775176D01*
G37*
D21*
X128512500Y-87300000D03*
D19*
G36*
X130355691Y-65375176D02*
G01*
X130379401Y-65378693D01*
X130402652Y-65384517D01*
X130425220Y-65392592D01*
X130446889Y-65402841D01*
X130467448Y-65415164D01*
X130486701Y-65429442D01*
X130504461Y-65445539D01*
X130520558Y-65463299D01*
X130534836Y-65482552D01*
X130547159Y-65503111D01*
X130557408Y-65524780D01*
X130565483Y-65547348D01*
X130571307Y-65570599D01*
X130574824Y-65594309D01*
X130576000Y-65618250D01*
X130576000Y-66181750D01*
X130574824Y-66205691D01*
X130571307Y-66229401D01*
X130565483Y-66252652D01*
X130557408Y-66275220D01*
X130547159Y-66296889D01*
X130534836Y-66317448D01*
X130520558Y-66336701D01*
X130504461Y-66354461D01*
X130486701Y-66370558D01*
X130467448Y-66384836D01*
X130446889Y-66397159D01*
X130425220Y-66407408D01*
X130402652Y-66415483D01*
X130379401Y-66421307D01*
X130355691Y-66424824D01*
X130331750Y-66426000D01*
X129843250Y-66426000D01*
X129819309Y-66424824D01*
X129795599Y-66421307D01*
X129772348Y-66415483D01*
X129749780Y-66407408D01*
X129728111Y-66397159D01*
X129707552Y-66384836D01*
X129688299Y-66370558D01*
X129670539Y-66354461D01*
X129654442Y-66336701D01*
X129640164Y-66317448D01*
X129627841Y-66296889D01*
X129617592Y-66275220D01*
X129609517Y-66252652D01*
X129603693Y-66229401D01*
X129600176Y-66205691D01*
X129599000Y-66181750D01*
X129599000Y-65618250D01*
X129600176Y-65594309D01*
X129603693Y-65570599D01*
X129609517Y-65547348D01*
X129617592Y-65524780D01*
X129627841Y-65503111D01*
X129640164Y-65482552D01*
X129654442Y-65463299D01*
X129670539Y-65445539D01*
X129688299Y-65429442D01*
X129707552Y-65415164D01*
X129728111Y-65402841D01*
X129749780Y-65392592D01*
X129772348Y-65384517D01*
X129795599Y-65378693D01*
X129819309Y-65375176D01*
X129843250Y-65374000D01*
X130331750Y-65374000D01*
X130355691Y-65375176D01*
X130355691Y-65375176D01*
G37*
D21*
X130087500Y-65900000D03*
D19*
G36*
X128780691Y-65375176D02*
G01*
X128804401Y-65378693D01*
X128827652Y-65384517D01*
X128850220Y-65392592D01*
X128871889Y-65402841D01*
X128892448Y-65415164D01*
X128911701Y-65429442D01*
X128929461Y-65445539D01*
X128945558Y-65463299D01*
X128959836Y-65482552D01*
X128972159Y-65503111D01*
X128982408Y-65524780D01*
X128990483Y-65547348D01*
X128996307Y-65570599D01*
X128999824Y-65594309D01*
X129001000Y-65618250D01*
X129001000Y-66181750D01*
X128999824Y-66205691D01*
X128996307Y-66229401D01*
X128990483Y-66252652D01*
X128982408Y-66275220D01*
X128972159Y-66296889D01*
X128959836Y-66317448D01*
X128945558Y-66336701D01*
X128929461Y-66354461D01*
X128911701Y-66370558D01*
X128892448Y-66384836D01*
X128871889Y-66397159D01*
X128850220Y-66407408D01*
X128827652Y-66415483D01*
X128804401Y-66421307D01*
X128780691Y-66424824D01*
X128756750Y-66426000D01*
X128268250Y-66426000D01*
X128244309Y-66424824D01*
X128220599Y-66421307D01*
X128197348Y-66415483D01*
X128174780Y-66407408D01*
X128153111Y-66397159D01*
X128132552Y-66384836D01*
X128113299Y-66370558D01*
X128095539Y-66354461D01*
X128079442Y-66336701D01*
X128065164Y-66317448D01*
X128052841Y-66296889D01*
X128042592Y-66275220D01*
X128034517Y-66252652D01*
X128028693Y-66229401D01*
X128025176Y-66205691D01*
X128024000Y-66181750D01*
X128024000Y-65618250D01*
X128025176Y-65594309D01*
X128028693Y-65570599D01*
X128034517Y-65547348D01*
X128042592Y-65524780D01*
X128052841Y-65503111D01*
X128065164Y-65482552D01*
X128079442Y-65463299D01*
X128095539Y-65445539D01*
X128113299Y-65429442D01*
X128132552Y-65415164D01*
X128153111Y-65402841D01*
X128174780Y-65392592D01*
X128197348Y-65384517D01*
X128220599Y-65378693D01*
X128244309Y-65375176D01*
X128268250Y-65374000D01*
X128756750Y-65374000D01*
X128780691Y-65375176D01*
X128780691Y-65375176D01*
G37*
D21*
X128512500Y-65900000D03*
D19*
G36*
X130355691Y-85075176D02*
G01*
X130379401Y-85078693D01*
X130402652Y-85084517D01*
X130425220Y-85092592D01*
X130446889Y-85102841D01*
X130467448Y-85115164D01*
X130486701Y-85129442D01*
X130504461Y-85145539D01*
X130520558Y-85163299D01*
X130534836Y-85182552D01*
X130547159Y-85203111D01*
X130557408Y-85224780D01*
X130565483Y-85247348D01*
X130571307Y-85270599D01*
X130574824Y-85294309D01*
X130576000Y-85318250D01*
X130576000Y-85881750D01*
X130574824Y-85905691D01*
X130571307Y-85929401D01*
X130565483Y-85952652D01*
X130557408Y-85975220D01*
X130547159Y-85996889D01*
X130534836Y-86017448D01*
X130520558Y-86036701D01*
X130504461Y-86054461D01*
X130486701Y-86070558D01*
X130467448Y-86084836D01*
X130446889Y-86097159D01*
X130425220Y-86107408D01*
X130402652Y-86115483D01*
X130379401Y-86121307D01*
X130355691Y-86124824D01*
X130331750Y-86126000D01*
X129843250Y-86126000D01*
X129819309Y-86124824D01*
X129795599Y-86121307D01*
X129772348Y-86115483D01*
X129749780Y-86107408D01*
X129728111Y-86097159D01*
X129707552Y-86084836D01*
X129688299Y-86070558D01*
X129670539Y-86054461D01*
X129654442Y-86036701D01*
X129640164Y-86017448D01*
X129627841Y-85996889D01*
X129617592Y-85975220D01*
X129609517Y-85952652D01*
X129603693Y-85929401D01*
X129600176Y-85905691D01*
X129599000Y-85881750D01*
X129599000Y-85318250D01*
X129600176Y-85294309D01*
X129603693Y-85270599D01*
X129609517Y-85247348D01*
X129617592Y-85224780D01*
X129627841Y-85203111D01*
X129640164Y-85182552D01*
X129654442Y-85163299D01*
X129670539Y-85145539D01*
X129688299Y-85129442D01*
X129707552Y-85115164D01*
X129728111Y-85102841D01*
X129749780Y-85092592D01*
X129772348Y-85084517D01*
X129795599Y-85078693D01*
X129819309Y-85075176D01*
X129843250Y-85074000D01*
X130331750Y-85074000D01*
X130355691Y-85075176D01*
X130355691Y-85075176D01*
G37*
D21*
X130087500Y-85600000D03*
D19*
G36*
X128780691Y-85075176D02*
G01*
X128804401Y-85078693D01*
X128827652Y-85084517D01*
X128850220Y-85092592D01*
X128871889Y-85102841D01*
X128892448Y-85115164D01*
X128911701Y-85129442D01*
X128929461Y-85145539D01*
X128945558Y-85163299D01*
X128959836Y-85182552D01*
X128972159Y-85203111D01*
X128982408Y-85224780D01*
X128990483Y-85247348D01*
X128996307Y-85270599D01*
X128999824Y-85294309D01*
X129001000Y-85318250D01*
X129001000Y-85881750D01*
X128999824Y-85905691D01*
X128996307Y-85929401D01*
X128990483Y-85952652D01*
X128982408Y-85975220D01*
X128972159Y-85996889D01*
X128959836Y-86017448D01*
X128945558Y-86036701D01*
X128929461Y-86054461D01*
X128911701Y-86070558D01*
X128892448Y-86084836D01*
X128871889Y-86097159D01*
X128850220Y-86107408D01*
X128827652Y-86115483D01*
X128804401Y-86121307D01*
X128780691Y-86124824D01*
X128756750Y-86126000D01*
X128268250Y-86126000D01*
X128244309Y-86124824D01*
X128220599Y-86121307D01*
X128197348Y-86115483D01*
X128174780Y-86107408D01*
X128153111Y-86097159D01*
X128132552Y-86084836D01*
X128113299Y-86070558D01*
X128095539Y-86054461D01*
X128079442Y-86036701D01*
X128065164Y-86017448D01*
X128052841Y-85996889D01*
X128042592Y-85975220D01*
X128034517Y-85952652D01*
X128028693Y-85929401D01*
X128025176Y-85905691D01*
X128024000Y-85881750D01*
X128024000Y-85318250D01*
X128025176Y-85294309D01*
X128028693Y-85270599D01*
X128034517Y-85247348D01*
X128042592Y-85224780D01*
X128052841Y-85203111D01*
X128065164Y-85182552D01*
X128079442Y-85163299D01*
X128095539Y-85145539D01*
X128113299Y-85129442D01*
X128132552Y-85115164D01*
X128153111Y-85102841D01*
X128174780Y-85092592D01*
X128197348Y-85084517D01*
X128220599Y-85078693D01*
X128244309Y-85075176D01*
X128268250Y-85074000D01*
X128756750Y-85074000D01*
X128780691Y-85075176D01*
X128780691Y-85075176D01*
G37*
D21*
X128512500Y-85600000D03*
D19*
G36*
X130355691Y-67075176D02*
G01*
X130379401Y-67078693D01*
X130402652Y-67084517D01*
X130425220Y-67092592D01*
X130446889Y-67102841D01*
X130467448Y-67115164D01*
X130486701Y-67129442D01*
X130504461Y-67145539D01*
X130520558Y-67163299D01*
X130534836Y-67182552D01*
X130547159Y-67203111D01*
X130557408Y-67224780D01*
X130565483Y-67247348D01*
X130571307Y-67270599D01*
X130574824Y-67294309D01*
X130576000Y-67318250D01*
X130576000Y-67881750D01*
X130574824Y-67905691D01*
X130571307Y-67929401D01*
X130565483Y-67952652D01*
X130557408Y-67975220D01*
X130547159Y-67996889D01*
X130534836Y-68017448D01*
X130520558Y-68036701D01*
X130504461Y-68054461D01*
X130486701Y-68070558D01*
X130467448Y-68084836D01*
X130446889Y-68097159D01*
X130425220Y-68107408D01*
X130402652Y-68115483D01*
X130379401Y-68121307D01*
X130355691Y-68124824D01*
X130331750Y-68126000D01*
X129843250Y-68126000D01*
X129819309Y-68124824D01*
X129795599Y-68121307D01*
X129772348Y-68115483D01*
X129749780Y-68107408D01*
X129728111Y-68097159D01*
X129707552Y-68084836D01*
X129688299Y-68070558D01*
X129670539Y-68054461D01*
X129654442Y-68036701D01*
X129640164Y-68017448D01*
X129627841Y-67996889D01*
X129617592Y-67975220D01*
X129609517Y-67952652D01*
X129603693Y-67929401D01*
X129600176Y-67905691D01*
X129599000Y-67881750D01*
X129599000Y-67318250D01*
X129600176Y-67294309D01*
X129603693Y-67270599D01*
X129609517Y-67247348D01*
X129617592Y-67224780D01*
X129627841Y-67203111D01*
X129640164Y-67182552D01*
X129654442Y-67163299D01*
X129670539Y-67145539D01*
X129688299Y-67129442D01*
X129707552Y-67115164D01*
X129728111Y-67102841D01*
X129749780Y-67092592D01*
X129772348Y-67084517D01*
X129795599Y-67078693D01*
X129819309Y-67075176D01*
X129843250Y-67074000D01*
X130331750Y-67074000D01*
X130355691Y-67075176D01*
X130355691Y-67075176D01*
G37*
D21*
X130087500Y-67600000D03*
D19*
G36*
X128780691Y-67075176D02*
G01*
X128804401Y-67078693D01*
X128827652Y-67084517D01*
X128850220Y-67092592D01*
X128871889Y-67102841D01*
X128892448Y-67115164D01*
X128911701Y-67129442D01*
X128929461Y-67145539D01*
X128945558Y-67163299D01*
X128959836Y-67182552D01*
X128972159Y-67203111D01*
X128982408Y-67224780D01*
X128990483Y-67247348D01*
X128996307Y-67270599D01*
X128999824Y-67294309D01*
X129001000Y-67318250D01*
X129001000Y-67881750D01*
X128999824Y-67905691D01*
X128996307Y-67929401D01*
X128990483Y-67952652D01*
X128982408Y-67975220D01*
X128972159Y-67996889D01*
X128959836Y-68017448D01*
X128945558Y-68036701D01*
X128929461Y-68054461D01*
X128911701Y-68070558D01*
X128892448Y-68084836D01*
X128871889Y-68097159D01*
X128850220Y-68107408D01*
X128827652Y-68115483D01*
X128804401Y-68121307D01*
X128780691Y-68124824D01*
X128756750Y-68126000D01*
X128268250Y-68126000D01*
X128244309Y-68124824D01*
X128220599Y-68121307D01*
X128197348Y-68115483D01*
X128174780Y-68107408D01*
X128153111Y-68097159D01*
X128132552Y-68084836D01*
X128113299Y-68070558D01*
X128095539Y-68054461D01*
X128079442Y-68036701D01*
X128065164Y-68017448D01*
X128052841Y-67996889D01*
X128042592Y-67975220D01*
X128034517Y-67952652D01*
X128028693Y-67929401D01*
X128025176Y-67905691D01*
X128024000Y-67881750D01*
X128024000Y-67318250D01*
X128025176Y-67294309D01*
X128028693Y-67270599D01*
X128034517Y-67247348D01*
X128042592Y-67224780D01*
X128052841Y-67203111D01*
X128065164Y-67182552D01*
X128079442Y-67163299D01*
X128095539Y-67145539D01*
X128113299Y-67129442D01*
X128132552Y-67115164D01*
X128153111Y-67102841D01*
X128174780Y-67092592D01*
X128197348Y-67084517D01*
X128220599Y-67078693D01*
X128244309Y-67075176D01*
X128268250Y-67074000D01*
X128756750Y-67074000D01*
X128780691Y-67075176D01*
X128780691Y-67075176D01*
G37*
D21*
X128512500Y-67600000D03*
D19*
G36*
X116805691Y-75425176D02*
G01*
X116829401Y-75428693D01*
X116852652Y-75434517D01*
X116875220Y-75442592D01*
X116896889Y-75452841D01*
X116917448Y-75465164D01*
X116936701Y-75479442D01*
X116954461Y-75495539D01*
X116970558Y-75513299D01*
X116984836Y-75532552D01*
X116997159Y-75553111D01*
X117007408Y-75574780D01*
X117015483Y-75597348D01*
X117021307Y-75620599D01*
X117024824Y-75644309D01*
X117026000Y-75668250D01*
X117026000Y-76156750D01*
X117024824Y-76180691D01*
X117021307Y-76204401D01*
X117015483Y-76227652D01*
X117007408Y-76250220D01*
X116997159Y-76271889D01*
X116984836Y-76292448D01*
X116970558Y-76311701D01*
X116954461Y-76329461D01*
X116936701Y-76345558D01*
X116917448Y-76359836D01*
X116896889Y-76372159D01*
X116875220Y-76382408D01*
X116852652Y-76390483D01*
X116829401Y-76396307D01*
X116805691Y-76399824D01*
X116781750Y-76401000D01*
X116218250Y-76401000D01*
X116194309Y-76399824D01*
X116170599Y-76396307D01*
X116147348Y-76390483D01*
X116124780Y-76382408D01*
X116103111Y-76372159D01*
X116082552Y-76359836D01*
X116063299Y-76345558D01*
X116045539Y-76329461D01*
X116029442Y-76311701D01*
X116015164Y-76292448D01*
X116002841Y-76271889D01*
X115992592Y-76250220D01*
X115984517Y-76227652D01*
X115978693Y-76204401D01*
X115975176Y-76180691D01*
X115974000Y-76156750D01*
X115974000Y-75668250D01*
X115975176Y-75644309D01*
X115978693Y-75620599D01*
X115984517Y-75597348D01*
X115992592Y-75574780D01*
X116002841Y-75553111D01*
X116015164Y-75532552D01*
X116029442Y-75513299D01*
X116045539Y-75495539D01*
X116063299Y-75479442D01*
X116082552Y-75465164D01*
X116103111Y-75452841D01*
X116124780Y-75442592D01*
X116147348Y-75434517D01*
X116170599Y-75428693D01*
X116194309Y-75425176D01*
X116218250Y-75424000D01*
X116781750Y-75424000D01*
X116805691Y-75425176D01*
X116805691Y-75425176D01*
G37*
D21*
X116500000Y-75912500D03*
D19*
G36*
X116805691Y-77000176D02*
G01*
X116829401Y-77003693D01*
X116852652Y-77009517D01*
X116875220Y-77017592D01*
X116896889Y-77027841D01*
X116917448Y-77040164D01*
X116936701Y-77054442D01*
X116954461Y-77070539D01*
X116970558Y-77088299D01*
X116984836Y-77107552D01*
X116997159Y-77128111D01*
X117007408Y-77149780D01*
X117015483Y-77172348D01*
X117021307Y-77195599D01*
X117024824Y-77219309D01*
X117026000Y-77243250D01*
X117026000Y-77731750D01*
X117024824Y-77755691D01*
X117021307Y-77779401D01*
X117015483Y-77802652D01*
X117007408Y-77825220D01*
X116997159Y-77846889D01*
X116984836Y-77867448D01*
X116970558Y-77886701D01*
X116954461Y-77904461D01*
X116936701Y-77920558D01*
X116917448Y-77934836D01*
X116896889Y-77947159D01*
X116875220Y-77957408D01*
X116852652Y-77965483D01*
X116829401Y-77971307D01*
X116805691Y-77974824D01*
X116781750Y-77976000D01*
X116218250Y-77976000D01*
X116194309Y-77974824D01*
X116170599Y-77971307D01*
X116147348Y-77965483D01*
X116124780Y-77957408D01*
X116103111Y-77947159D01*
X116082552Y-77934836D01*
X116063299Y-77920558D01*
X116045539Y-77904461D01*
X116029442Y-77886701D01*
X116015164Y-77867448D01*
X116002841Y-77846889D01*
X115992592Y-77825220D01*
X115984517Y-77802652D01*
X115978693Y-77779401D01*
X115975176Y-77755691D01*
X115974000Y-77731750D01*
X115974000Y-77243250D01*
X115975176Y-77219309D01*
X115978693Y-77195599D01*
X115984517Y-77172348D01*
X115992592Y-77149780D01*
X116002841Y-77128111D01*
X116015164Y-77107552D01*
X116029442Y-77088299D01*
X116045539Y-77070539D01*
X116063299Y-77054442D01*
X116082552Y-77040164D01*
X116103111Y-77027841D01*
X116124780Y-77017592D01*
X116147348Y-77009517D01*
X116170599Y-77003693D01*
X116194309Y-77000176D01*
X116218250Y-76999000D01*
X116781750Y-76999000D01*
X116805691Y-77000176D01*
X116805691Y-77000176D01*
G37*
D21*
X116500000Y-77487500D03*
D26*
X107900000Y-73900000D03*
D27*
X107900000Y-78980000D03*
D19*
G36*
X119943691Y-78575176D02*
G01*
X119967401Y-78578693D01*
X119990652Y-78584517D01*
X120013220Y-78592592D01*
X120034889Y-78602841D01*
X120055448Y-78615164D01*
X120074701Y-78629442D01*
X120092461Y-78645539D01*
X120108558Y-78663299D01*
X120122836Y-78682552D01*
X120135159Y-78703111D01*
X120145408Y-78724780D01*
X120153483Y-78747348D01*
X120159307Y-78770599D01*
X120162824Y-78794309D01*
X120164000Y-78818250D01*
X120164000Y-79381750D01*
X120162824Y-79405691D01*
X120159307Y-79429401D01*
X120153483Y-79452652D01*
X120145408Y-79475220D01*
X120135159Y-79496889D01*
X120122836Y-79517448D01*
X120108558Y-79536701D01*
X120092461Y-79554461D01*
X120074701Y-79570558D01*
X120055448Y-79584836D01*
X120034889Y-79597159D01*
X120013220Y-79607408D01*
X119990652Y-79615483D01*
X119967401Y-79621307D01*
X119943691Y-79624824D01*
X119919750Y-79626000D01*
X119431250Y-79626000D01*
X119407309Y-79624824D01*
X119383599Y-79621307D01*
X119360348Y-79615483D01*
X119337780Y-79607408D01*
X119316111Y-79597159D01*
X119295552Y-79584836D01*
X119276299Y-79570558D01*
X119258539Y-79554461D01*
X119242442Y-79536701D01*
X119228164Y-79517448D01*
X119215841Y-79496889D01*
X119205592Y-79475220D01*
X119197517Y-79452652D01*
X119191693Y-79429401D01*
X119188176Y-79405691D01*
X119187000Y-79381750D01*
X119187000Y-78818250D01*
X119188176Y-78794309D01*
X119191693Y-78770599D01*
X119197517Y-78747348D01*
X119205592Y-78724780D01*
X119215841Y-78703111D01*
X119228164Y-78682552D01*
X119242442Y-78663299D01*
X119258539Y-78645539D01*
X119276299Y-78629442D01*
X119295552Y-78615164D01*
X119316111Y-78602841D01*
X119337780Y-78592592D01*
X119360348Y-78584517D01*
X119383599Y-78578693D01*
X119407309Y-78575176D01*
X119431250Y-78574000D01*
X119919750Y-78574000D01*
X119943691Y-78575176D01*
X119943691Y-78575176D01*
G37*
D21*
X119675500Y-79100000D03*
D19*
G36*
X118368691Y-78575176D02*
G01*
X118392401Y-78578693D01*
X118415652Y-78584517D01*
X118438220Y-78592592D01*
X118459889Y-78602841D01*
X118480448Y-78615164D01*
X118499701Y-78629442D01*
X118517461Y-78645539D01*
X118533558Y-78663299D01*
X118547836Y-78682552D01*
X118560159Y-78703111D01*
X118570408Y-78724780D01*
X118578483Y-78747348D01*
X118584307Y-78770599D01*
X118587824Y-78794309D01*
X118589000Y-78818250D01*
X118589000Y-79381750D01*
X118587824Y-79405691D01*
X118584307Y-79429401D01*
X118578483Y-79452652D01*
X118570408Y-79475220D01*
X118560159Y-79496889D01*
X118547836Y-79517448D01*
X118533558Y-79536701D01*
X118517461Y-79554461D01*
X118499701Y-79570558D01*
X118480448Y-79584836D01*
X118459889Y-79597159D01*
X118438220Y-79607408D01*
X118415652Y-79615483D01*
X118392401Y-79621307D01*
X118368691Y-79624824D01*
X118344750Y-79626000D01*
X117856250Y-79626000D01*
X117832309Y-79624824D01*
X117808599Y-79621307D01*
X117785348Y-79615483D01*
X117762780Y-79607408D01*
X117741111Y-79597159D01*
X117720552Y-79584836D01*
X117701299Y-79570558D01*
X117683539Y-79554461D01*
X117667442Y-79536701D01*
X117653164Y-79517448D01*
X117640841Y-79496889D01*
X117630592Y-79475220D01*
X117622517Y-79452652D01*
X117616693Y-79429401D01*
X117613176Y-79405691D01*
X117612000Y-79381750D01*
X117612000Y-78818250D01*
X117613176Y-78794309D01*
X117616693Y-78770599D01*
X117622517Y-78747348D01*
X117630592Y-78724780D01*
X117640841Y-78703111D01*
X117653164Y-78682552D01*
X117667442Y-78663299D01*
X117683539Y-78645539D01*
X117701299Y-78629442D01*
X117720552Y-78615164D01*
X117741111Y-78602841D01*
X117762780Y-78592592D01*
X117785348Y-78584517D01*
X117808599Y-78578693D01*
X117832309Y-78575176D01*
X117856250Y-78574000D01*
X118344750Y-78574000D01*
X118368691Y-78575176D01*
X118368691Y-78575176D01*
G37*
D21*
X118100500Y-79100000D03*
M02*
