G04 #@! TF.GenerationSoftware,KiCad,Pcbnew,(5.1.2)-1*
G04 #@! TF.CreationDate,2021-06-05T09:35:00+09:00*
G04 #@! TF.ProjectId,cs,63732e6b-6963-4616-945f-706362585858,v3.3*
G04 #@! TF.SameCoordinates,Original*
G04 #@! TF.FileFunction,Paste,Top*
G04 #@! TF.FilePolarity,Positive*
%FSLAX46Y46*%
G04 Gerber Fmt 4.6, Leading zero omitted, Abs format (unit mm)*
G04 Created by KiCad (PCBNEW (5.1.2)-1) date 2021-06-05 09:35:00*
%MOMM*%
%LPD*%
G04 APERTURE LIST*
%ADD10R,0.450000X1.450000*%
%ADD11R,1.100000X0.400000*%
%ADD12C,0.100000*%
%ADD13C,0.590000*%
%ADD14C,0.875000*%
%ADD15O,1.800000X1.524000*%
%ADD16R,1.060000X0.650000*%
%ADD17R,1.297940X1.399540*%
%ADD18R,2.298700X1.498600*%
G04 APERTURE END LIST*
D10*
X123825000Y-81050000D03*
X124475000Y-81050000D03*
X125125000Y-81050000D03*
X125775000Y-81050000D03*
X125775000Y-86950000D03*
X125125000Y-86950000D03*
X124475000Y-86950000D03*
X123825000Y-86950000D03*
D11*
X117150000Y-69075000D03*
X117150000Y-68425000D03*
X117150000Y-67775000D03*
X117150000Y-67125000D03*
X121450000Y-67125000D03*
X121450000Y-67775000D03*
X121450000Y-68425000D03*
X121450000Y-69075000D03*
D12*
G36*
X113586958Y-76805710D02*
G01*
X113601276Y-76807834D01*
X113615317Y-76811351D01*
X113628946Y-76816228D01*
X113642031Y-76822417D01*
X113654447Y-76829858D01*
X113666073Y-76838481D01*
X113676798Y-76848202D01*
X113686519Y-76858927D01*
X113695142Y-76870553D01*
X113702583Y-76882969D01*
X113708772Y-76896054D01*
X113713649Y-76909683D01*
X113717166Y-76923724D01*
X113719290Y-76938042D01*
X113720000Y-76952500D01*
X113720000Y-77247500D01*
X113719290Y-77261958D01*
X113717166Y-77276276D01*
X113713649Y-77290317D01*
X113708772Y-77303946D01*
X113702583Y-77317031D01*
X113695142Y-77329447D01*
X113686519Y-77341073D01*
X113676798Y-77351798D01*
X113666073Y-77361519D01*
X113654447Y-77370142D01*
X113642031Y-77377583D01*
X113628946Y-77383772D01*
X113615317Y-77388649D01*
X113601276Y-77392166D01*
X113586958Y-77394290D01*
X113572500Y-77395000D01*
X113227500Y-77395000D01*
X113213042Y-77394290D01*
X113198724Y-77392166D01*
X113184683Y-77388649D01*
X113171054Y-77383772D01*
X113157969Y-77377583D01*
X113145553Y-77370142D01*
X113133927Y-77361519D01*
X113123202Y-77351798D01*
X113113481Y-77341073D01*
X113104858Y-77329447D01*
X113097417Y-77317031D01*
X113091228Y-77303946D01*
X113086351Y-77290317D01*
X113082834Y-77276276D01*
X113080710Y-77261958D01*
X113080000Y-77247500D01*
X113080000Y-76952500D01*
X113080710Y-76938042D01*
X113082834Y-76923724D01*
X113086351Y-76909683D01*
X113091228Y-76896054D01*
X113097417Y-76882969D01*
X113104858Y-76870553D01*
X113113481Y-76858927D01*
X113123202Y-76848202D01*
X113133927Y-76838481D01*
X113145553Y-76829858D01*
X113157969Y-76822417D01*
X113171054Y-76816228D01*
X113184683Y-76811351D01*
X113198724Y-76807834D01*
X113213042Y-76805710D01*
X113227500Y-76805000D01*
X113572500Y-76805000D01*
X113586958Y-76805710D01*
X113586958Y-76805710D01*
G37*
D13*
X113400000Y-77100000D03*
D12*
G36*
X113586958Y-75835710D02*
G01*
X113601276Y-75837834D01*
X113615317Y-75841351D01*
X113628946Y-75846228D01*
X113642031Y-75852417D01*
X113654447Y-75859858D01*
X113666073Y-75868481D01*
X113676798Y-75878202D01*
X113686519Y-75888927D01*
X113695142Y-75900553D01*
X113702583Y-75912969D01*
X113708772Y-75926054D01*
X113713649Y-75939683D01*
X113717166Y-75953724D01*
X113719290Y-75968042D01*
X113720000Y-75982500D01*
X113720000Y-76277500D01*
X113719290Y-76291958D01*
X113717166Y-76306276D01*
X113713649Y-76320317D01*
X113708772Y-76333946D01*
X113702583Y-76347031D01*
X113695142Y-76359447D01*
X113686519Y-76371073D01*
X113676798Y-76381798D01*
X113666073Y-76391519D01*
X113654447Y-76400142D01*
X113642031Y-76407583D01*
X113628946Y-76413772D01*
X113615317Y-76418649D01*
X113601276Y-76422166D01*
X113586958Y-76424290D01*
X113572500Y-76425000D01*
X113227500Y-76425000D01*
X113213042Y-76424290D01*
X113198724Y-76422166D01*
X113184683Y-76418649D01*
X113171054Y-76413772D01*
X113157969Y-76407583D01*
X113145553Y-76400142D01*
X113133927Y-76391519D01*
X113123202Y-76381798D01*
X113113481Y-76371073D01*
X113104858Y-76359447D01*
X113097417Y-76347031D01*
X113091228Y-76333946D01*
X113086351Y-76320317D01*
X113082834Y-76306276D01*
X113080710Y-76291958D01*
X113080000Y-76277500D01*
X113080000Y-75982500D01*
X113080710Y-75968042D01*
X113082834Y-75953724D01*
X113086351Y-75939683D01*
X113091228Y-75926054D01*
X113097417Y-75912969D01*
X113104858Y-75900553D01*
X113113481Y-75888927D01*
X113123202Y-75878202D01*
X113133927Y-75868481D01*
X113145553Y-75859858D01*
X113157969Y-75852417D01*
X113171054Y-75846228D01*
X113184683Y-75841351D01*
X113198724Y-75837834D01*
X113213042Y-75835710D01*
X113227500Y-75835000D01*
X113572500Y-75835000D01*
X113586958Y-75835710D01*
X113586958Y-75835710D01*
G37*
D13*
X113400000Y-76130000D03*
D12*
G36*
X117539691Y-80226053D02*
G01*
X117560926Y-80229203D01*
X117581750Y-80234419D01*
X117601962Y-80241651D01*
X117621368Y-80250830D01*
X117639781Y-80261866D01*
X117657024Y-80274654D01*
X117672930Y-80289070D01*
X117687346Y-80304976D01*
X117700134Y-80322219D01*
X117711170Y-80340632D01*
X117720349Y-80360038D01*
X117727581Y-80380250D01*
X117732797Y-80401074D01*
X117735947Y-80422309D01*
X117737000Y-80443750D01*
X117737000Y-80956250D01*
X117735947Y-80977691D01*
X117732797Y-80998926D01*
X117727581Y-81019750D01*
X117720349Y-81039962D01*
X117711170Y-81059368D01*
X117700134Y-81077781D01*
X117687346Y-81095024D01*
X117672930Y-81110930D01*
X117657024Y-81125346D01*
X117639781Y-81138134D01*
X117621368Y-81149170D01*
X117601962Y-81158349D01*
X117581750Y-81165581D01*
X117560926Y-81170797D01*
X117539691Y-81173947D01*
X117518250Y-81175000D01*
X117080750Y-81175000D01*
X117059309Y-81173947D01*
X117038074Y-81170797D01*
X117017250Y-81165581D01*
X116997038Y-81158349D01*
X116977632Y-81149170D01*
X116959219Y-81138134D01*
X116941976Y-81125346D01*
X116926070Y-81110930D01*
X116911654Y-81095024D01*
X116898866Y-81077781D01*
X116887830Y-81059368D01*
X116878651Y-81039962D01*
X116871419Y-81019750D01*
X116866203Y-80998926D01*
X116863053Y-80977691D01*
X116862000Y-80956250D01*
X116862000Y-80443750D01*
X116863053Y-80422309D01*
X116866203Y-80401074D01*
X116871419Y-80380250D01*
X116878651Y-80360038D01*
X116887830Y-80340632D01*
X116898866Y-80322219D01*
X116911654Y-80304976D01*
X116926070Y-80289070D01*
X116941976Y-80274654D01*
X116959219Y-80261866D01*
X116977632Y-80250830D01*
X116997038Y-80241651D01*
X117017250Y-80234419D01*
X117038074Y-80229203D01*
X117059309Y-80226053D01*
X117080750Y-80225000D01*
X117518250Y-80225000D01*
X117539691Y-80226053D01*
X117539691Y-80226053D01*
G37*
D14*
X117299500Y-80700000D03*
D12*
G36*
X115964691Y-80226053D02*
G01*
X115985926Y-80229203D01*
X116006750Y-80234419D01*
X116026962Y-80241651D01*
X116046368Y-80250830D01*
X116064781Y-80261866D01*
X116082024Y-80274654D01*
X116097930Y-80289070D01*
X116112346Y-80304976D01*
X116125134Y-80322219D01*
X116136170Y-80340632D01*
X116145349Y-80360038D01*
X116152581Y-80380250D01*
X116157797Y-80401074D01*
X116160947Y-80422309D01*
X116162000Y-80443750D01*
X116162000Y-80956250D01*
X116160947Y-80977691D01*
X116157797Y-80998926D01*
X116152581Y-81019750D01*
X116145349Y-81039962D01*
X116136170Y-81059368D01*
X116125134Y-81077781D01*
X116112346Y-81095024D01*
X116097930Y-81110930D01*
X116082024Y-81125346D01*
X116064781Y-81138134D01*
X116046368Y-81149170D01*
X116026962Y-81158349D01*
X116006750Y-81165581D01*
X115985926Y-81170797D01*
X115964691Y-81173947D01*
X115943250Y-81175000D01*
X115505750Y-81175000D01*
X115484309Y-81173947D01*
X115463074Y-81170797D01*
X115442250Y-81165581D01*
X115422038Y-81158349D01*
X115402632Y-81149170D01*
X115384219Y-81138134D01*
X115366976Y-81125346D01*
X115351070Y-81110930D01*
X115336654Y-81095024D01*
X115323866Y-81077781D01*
X115312830Y-81059368D01*
X115303651Y-81039962D01*
X115296419Y-81019750D01*
X115291203Y-80998926D01*
X115288053Y-80977691D01*
X115287000Y-80956250D01*
X115287000Y-80443750D01*
X115288053Y-80422309D01*
X115291203Y-80401074D01*
X115296419Y-80380250D01*
X115303651Y-80360038D01*
X115312830Y-80340632D01*
X115323866Y-80322219D01*
X115336654Y-80304976D01*
X115351070Y-80289070D01*
X115366976Y-80274654D01*
X115384219Y-80261866D01*
X115402632Y-80250830D01*
X115422038Y-80241651D01*
X115442250Y-80234419D01*
X115463074Y-80229203D01*
X115484309Y-80226053D01*
X115505750Y-80225000D01*
X115943250Y-80225000D01*
X115964691Y-80226053D01*
X115964691Y-80226053D01*
G37*
D14*
X115724500Y-80700000D03*
D15*
X128200000Y-79500000D03*
X128200000Y-77500000D03*
X128200000Y-75500000D03*
X128200000Y-73500000D03*
D12*
G36*
X118377691Y-73888553D02*
G01*
X118398926Y-73891703D01*
X118419750Y-73896919D01*
X118439962Y-73904151D01*
X118459368Y-73913330D01*
X118477781Y-73924366D01*
X118495024Y-73937154D01*
X118510930Y-73951570D01*
X118525346Y-73967476D01*
X118538134Y-73984719D01*
X118549170Y-74003132D01*
X118558349Y-74022538D01*
X118565581Y-74042750D01*
X118570797Y-74063574D01*
X118573947Y-74084809D01*
X118575000Y-74106250D01*
X118575000Y-74543750D01*
X118573947Y-74565191D01*
X118570797Y-74586426D01*
X118565581Y-74607250D01*
X118558349Y-74627462D01*
X118549170Y-74646868D01*
X118538134Y-74665281D01*
X118525346Y-74682524D01*
X118510930Y-74698430D01*
X118495024Y-74712846D01*
X118477781Y-74725634D01*
X118459368Y-74736670D01*
X118439962Y-74745849D01*
X118419750Y-74753081D01*
X118398926Y-74758297D01*
X118377691Y-74761447D01*
X118356250Y-74762500D01*
X117843750Y-74762500D01*
X117822309Y-74761447D01*
X117801074Y-74758297D01*
X117780250Y-74753081D01*
X117760038Y-74745849D01*
X117740632Y-74736670D01*
X117722219Y-74725634D01*
X117704976Y-74712846D01*
X117689070Y-74698430D01*
X117674654Y-74682524D01*
X117661866Y-74665281D01*
X117650830Y-74646868D01*
X117641651Y-74627462D01*
X117634419Y-74607250D01*
X117629203Y-74586426D01*
X117626053Y-74565191D01*
X117625000Y-74543750D01*
X117625000Y-74106250D01*
X117626053Y-74084809D01*
X117629203Y-74063574D01*
X117634419Y-74042750D01*
X117641651Y-74022538D01*
X117650830Y-74003132D01*
X117661866Y-73984719D01*
X117674654Y-73967476D01*
X117689070Y-73951570D01*
X117704976Y-73937154D01*
X117722219Y-73924366D01*
X117740632Y-73913330D01*
X117760038Y-73904151D01*
X117780250Y-73896919D01*
X117801074Y-73891703D01*
X117822309Y-73888553D01*
X117843750Y-73887500D01*
X118356250Y-73887500D01*
X118377691Y-73888553D01*
X118377691Y-73888553D01*
G37*
D14*
X118100000Y-74325000D03*
D12*
G36*
X118377691Y-75463553D02*
G01*
X118398926Y-75466703D01*
X118419750Y-75471919D01*
X118439962Y-75479151D01*
X118459368Y-75488330D01*
X118477781Y-75499366D01*
X118495024Y-75512154D01*
X118510930Y-75526570D01*
X118525346Y-75542476D01*
X118538134Y-75559719D01*
X118549170Y-75578132D01*
X118558349Y-75597538D01*
X118565581Y-75617750D01*
X118570797Y-75638574D01*
X118573947Y-75659809D01*
X118575000Y-75681250D01*
X118575000Y-76118750D01*
X118573947Y-76140191D01*
X118570797Y-76161426D01*
X118565581Y-76182250D01*
X118558349Y-76202462D01*
X118549170Y-76221868D01*
X118538134Y-76240281D01*
X118525346Y-76257524D01*
X118510930Y-76273430D01*
X118495024Y-76287846D01*
X118477781Y-76300634D01*
X118459368Y-76311670D01*
X118439962Y-76320849D01*
X118419750Y-76328081D01*
X118398926Y-76333297D01*
X118377691Y-76336447D01*
X118356250Y-76337500D01*
X117843750Y-76337500D01*
X117822309Y-76336447D01*
X117801074Y-76333297D01*
X117780250Y-76328081D01*
X117760038Y-76320849D01*
X117740632Y-76311670D01*
X117722219Y-76300634D01*
X117704976Y-76287846D01*
X117689070Y-76273430D01*
X117674654Y-76257524D01*
X117661866Y-76240281D01*
X117650830Y-76221868D01*
X117641651Y-76202462D01*
X117634419Y-76182250D01*
X117629203Y-76161426D01*
X117626053Y-76140191D01*
X117625000Y-76118750D01*
X117625000Y-75681250D01*
X117626053Y-75659809D01*
X117629203Y-75638574D01*
X117634419Y-75617750D01*
X117641651Y-75597538D01*
X117650830Y-75578132D01*
X117661866Y-75559719D01*
X117674654Y-75542476D01*
X117689070Y-75526570D01*
X117704976Y-75512154D01*
X117722219Y-75499366D01*
X117740632Y-75488330D01*
X117760038Y-75479151D01*
X117780250Y-75471919D01*
X117801074Y-75466703D01*
X117822309Y-75463553D01*
X117843750Y-75462500D01*
X118356250Y-75462500D01*
X118377691Y-75463553D01*
X118377691Y-75463553D01*
G37*
D14*
X118100000Y-75900000D03*
D12*
G36*
X118340691Y-77026053D02*
G01*
X118361926Y-77029203D01*
X118382750Y-77034419D01*
X118402962Y-77041651D01*
X118422368Y-77050830D01*
X118440781Y-77061866D01*
X118458024Y-77074654D01*
X118473930Y-77089070D01*
X118488346Y-77104976D01*
X118501134Y-77122219D01*
X118512170Y-77140632D01*
X118521349Y-77160038D01*
X118528581Y-77180250D01*
X118533797Y-77201074D01*
X118536947Y-77222309D01*
X118538000Y-77243750D01*
X118538000Y-77756250D01*
X118536947Y-77777691D01*
X118533797Y-77798926D01*
X118528581Y-77819750D01*
X118521349Y-77839962D01*
X118512170Y-77859368D01*
X118501134Y-77877781D01*
X118488346Y-77895024D01*
X118473930Y-77910930D01*
X118458024Y-77925346D01*
X118440781Y-77938134D01*
X118422368Y-77949170D01*
X118402962Y-77958349D01*
X118382750Y-77965581D01*
X118361926Y-77970797D01*
X118340691Y-77973947D01*
X118319250Y-77975000D01*
X117881750Y-77975000D01*
X117860309Y-77973947D01*
X117839074Y-77970797D01*
X117818250Y-77965581D01*
X117798038Y-77958349D01*
X117778632Y-77949170D01*
X117760219Y-77938134D01*
X117742976Y-77925346D01*
X117727070Y-77910930D01*
X117712654Y-77895024D01*
X117699866Y-77877781D01*
X117688830Y-77859368D01*
X117679651Y-77839962D01*
X117672419Y-77819750D01*
X117667203Y-77798926D01*
X117664053Y-77777691D01*
X117663000Y-77756250D01*
X117663000Y-77243750D01*
X117664053Y-77222309D01*
X117667203Y-77201074D01*
X117672419Y-77180250D01*
X117679651Y-77160038D01*
X117688830Y-77140632D01*
X117699866Y-77122219D01*
X117712654Y-77104976D01*
X117727070Y-77089070D01*
X117742976Y-77074654D01*
X117760219Y-77061866D01*
X117778632Y-77050830D01*
X117798038Y-77041651D01*
X117818250Y-77034419D01*
X117839074Y-77029203D01*
X117860309Y-77026053D01*
X117881750Y-77025000D01*
X118319250Y-77025000D01*
X118340691Y-77026053D01*
X118340691Y-77026053D01*
G37*
D14*
X118100500Y-77500000D03*
D12*
G36*
X119915691Y-77026053D02*
G01*
X119936926Y-77029203D01*
X119957750Y-77034419D01*
X119977962Y-77041651D01*
X119997368Y-77050830D01*
X120015781Y-77061866D01*
X120033024Y-77074654D01*
X120048930Y-77089070D01*
X120063346Y-77104976D01*
X120076134Y-77122219D01*
X120087170Y-77140632D01*
X120096349Y-77160038D01*
X120103581Y-77180250D01*
X120108797Y-77201074D01*
X120111947Y-77222309D01*
X120113000Y-77243750D01*
X120113000Y-77756250D01*
X120111947Y-77777691D01*
X120108797Y-77798926D01*
X120103581Y-77819750D01*
X120096349Y-77839962D01*
X120087170Y-77859368D01*
X120076134Y-77877781D01*
X120063346Y-77895024D01*
X120048930Y-77910930D01*
X120033024Y-77925346D01*
X120015781Y-77938134D01*
X119997368Y-77949170D01*
X119977962Y-77958349D01*
X119957750Y-77965581D01*
X119936926Y-77970797D01*
X119915691Y-77973947D01*
X119894250Y-77975000D01*
X119456750Y-77975000D01*
X119435309Y-77973947D01*
X119414074Y-77970797D01*
X119393250Y-77965581D01*
X119373038Y-77958349D01*
X119353632Y-77949170D01*
X119335219Y-77938134D01*
X119317976Y-77925346D01*
X119302070Y-77910930D01*
X119287654Y-77895024D01*
X119274866Y-77877781D01*
X119263830Y-77859368D01*
X119254651Y-77839962D01*
X119247419Y-77819750D01*
X119242203Y-77798926D01*
X119239053Y-77777691D01*
X119238000Y-77756250D01*
X119238000Y-77243750D01*
X119239053Y-77222309D01*
X119242203Y-77201074D01*
X119247419Y-77180250D01*
X119254651Y-77160038D01*
X119263830Y-77140632D01*
X119274866Y-77122219D01*
X119287654Y-77104976D01*
X119302070Y-77089070D01*
X119317976Y-77074654D01*
X119335219Y-77061866D01*
X119353632Y-77050830D01*
X119373038Y-77041651D01*
X119393250Y-77034419D01*
X119414074Y-77029203D01*
X119435309Y-77026053D01*
X119456750Y-77025000D01*
X119894250Y-77025000D01*
X119915691Y-77026053D01*
X119915691Y-77026053D01*
G37*
D14*
X119675500Y-77500000D03*
D16*
X123400000Y-73550000D03*
X123400000Y-75450000D03*
X121200000Y-75450000D03*
X121200000Y-74500000D03*
X121200000Y-73550000D03*
D17*
X117751920Y-86449780D03*
D18*
X118900000Y-82601680D03*
D17*
X120048080Y-86449780D03*
X113051920Y-86448080D03*
D18*
X114200000Y-82599980D03*
D17*
X115348080Y-86448080D03*
D12*
G36*
X123652691Y-66926053D02*
G01*
X123673926Y-66929203D01*
X123694750Y-66934419D01*
X123714962Y-66941651D01*
X123734368Y-66950830D01*
X123752781Y-66961866D01*
X123770024Y-66974654D01*
X123785930Y-66989070D01*
X123800346Y-67004976D01*
X123813134Y-67022219D01*
X123824170Y-67040632D01*
X123833349Y-67060038D01*
X123840581Y-67080250D01*
X123845797Y-67101074D01*
X123848947Y-67122309D01*
X123850000Y-67143750D01*
X123850000Y-67656250D01*
X123848947Y-67677691D01*
X123845797Y-67698926D01*
X123840581Y-67719750D01*
X123833349Y-67739962D01*
X123824170Y-67759368D01*
X123813134Y-67777781D01*
X123800346Y-67795024D01*
X123785930Y-67810930D01*
X123770024Y-67825346D01*
X123752781Y-67838134D01*
X123734368Y-67849170D01*
X123714962Y-67858349D01*
X123694750Y-67865581D01*
X123673926Y-67870797D01*
X123652691Y-67873947D01*
X123631250Y-67875000D01*
X123193750Y-67875000D01*
X123172309Y-67873947D01*
X123151074Y-67870797D01*
X123130250Y-67865581D01*
X123110038Y-67858349D01*
X123090632Y-67849170D01*
X123072219Y-67838134D01*
X123054976Y-67825346D01*
X123039070Y-67810930D01*
X123024654Y-67795024D01*
X123011866Y-67777781D01*
X123000830Y-67759368D01*
X122991651Y-67739962D01*
X122984419Y-67719750D01*
X122979203Y-67698926D01*
X122976053Y-67677691D01*
X122975000Y-67656250D01*
X122975000Y-67143750D01*
X122976053Y-67122309D01*
X122979203Y-67101074D01*
X122984419Y-67080250D01*
X122991651Y-67060038D01*
X123000830Y-67040632D01*
X123011866Y-67022219D01*
X123024654Y-67004976D01*
X123039070Y-66989070D01*
X123054976Y-66974654D01*
X123072219Y-66961866D01*
X123090632Y-66950830D01*
X123110038Y-66941651D01*
X123130250Y-66934419D01*
X123151074Y-66929203D01*
X123172309Y-66926053D01*
X123193750Y-66925000D01*
X123631250Y-66925000D01*
X123652691Y-66926053D01*
X123652691Y-66926053D01*
G37*
D14*
X123412500Y-67400000D03*
D12*
G36*
X125227691Y-66926053D02*
G01*
X125248926Y-66929203D01*
X125269750Y-66934419D01*
X125289962Y-66941651D01*
X125309368Y-66950830D01*
X125327781Y-66961866D01*
X125345024Y-66974654D01*
X125360930Y-66989070D01*
X125375346Y-67004976D01*
X125388134Y-67022219D01*
X125399170Y-67040632D01*
X125408349Y-67060038D01*
X125415581Y-67080250D01*
X125420797Y-67101074D01*
X125423947Y-67122309D01*
X125425000Y-67143750D01*
X125425000Y-67656250D01*
X125423947Y-67677691D01*
X125420797Y-67698926D01*
X125415581Y-67719750D01*
X125408349Y-67739962D01*
X125399170Y-67759368D01*
X125388134Y-67777781D01*
X125375346Y-67795024D01*
X125360930Y-67810930D01*
X125345024Y-67825346D01*
X125327781Y-67838134D01*
X125309368Y-67849170D01*
X125289962Y-67858349D01*
X125269750Y-67865581D01*
X125248926Y-67870797D01*
X125227691Y-67873947D01*
X125206250Y-67875000D01*
X124768750Y-67875000D01*
X124747309Y-67873947D01*
X124726074Y-67870797D01*
X124705250Y-67865581D01*
X124685038Y-67858349D01*
X124665632Y-67849170D01*
X124647219Y-67838134D01*
X124629976Y-67825346D01*
X124614070Y-67810930D01*
X124599654Y-67795024D01*
X124586866Y-67777781D01*
X124575830Y-67759368D01*
X124566651Y-67739962D01*
X124559419Y-67719750D01*
X124554203Y-67698926D01*
X124551053Y-67677691D01*
X124550000Y-67656250D01*
X124550000Y-67143750D01*
X124551053Y-67122309D01*
X124554203Y-67101074D01*
X124559419Y-67080250D01*
X124566651Y-67060038D01*
X124575830Y-67040632D01*
X124586866Y-67022219D01*
X124599654Y-67004976D01*
X124614070Y-66989070D01*
X124629976Y-66974654D01*
X124647219Y-66961866D01*
X124665632Y-66950830D01*
X124685038Y-66941651D01*
X124705250Y-66934419D01*
X124726074Y-66929203D01*
X124747309Y-66926053D01*
X124768750Y-66925000D01*
X125206250Y-66925000D01*
X125227691Y-66926053D01*
X125227691Y-66926053D01*
G37*
D14*
X124987500Y-67400000D03*
D12*
G36*
X123652691Y-68526053D02*
G01*
X123673926Y-68529203D01*
X123694750Y-68534419D01*
X123714962Y-68541651D01*
X123734368Y-68550830D01*
X123752781Y-68561866D01*
X123770024Y-68574654D01*
X123785930Y-68589070D01*
X123800346Y-68604976D01*
X123813134Y-68622219D01*
X123824170Y-68640632D01*
X123833349Y-68660038D01*
X123840581Y-68680250D01*
X123845797Y-68701074D01*
X123848947Y-68722309D01*
X123850000Y-68743750D01*
X123850000Y-69256250D01*
X123848947Y-69277691D01*
X123845797Y-69298926D01*
X123840581Y-69319750D01*
X123833349Y-69339962D01*
X123824170Y-69359368D01*
X123813134Y-69377781D01*
X123800346Y-69395024D01*
X123785930Y-69410930D01*
X123770024Y-69425346D01*
X123752781Y-69438134D01*
X123734368Y-69449170D01*
X123714962Y-69458349D01*
X123694750Y-69465581D01*
X123673926Y-69470797D01*
X123652691Y-69473947D01*
X123631250Y-69475000D01*
X123193750Y-69475000D01*
X123172309Y-69473947D01*
X123151074Y-69470797D01*
X123130250Y-69465581D01*
X123110038Y-69458349D01*
X123090632Y-69449170D01*
X123072219Y-69438134D01*
X123054976Y-69425346D01*
X123039070Y-69410930D01*
X123024654Y-69395024D01*
X123011866Y-69377781D01*
X123000830Y-69359368D01*
X122991651Y-69339962D01*
X122984419Y-69319750D01*
X122979203Y-69298926D01*
X122976053Y-69277691D01*
X122975000Y-69256250D01*
X122975000Y-68743750D01*
X122976053Y-68722309D01*
X122979203Y-68701074D01*
X122984419Y-68680250D01*
X122991651Y-68660038D01*
X123000830Y-68640632D01*
X123011866Y-68622219D01*
X123024654Y-68604976D01*
X123039070Y-68589070D01*
X123054976Y-68574654D01*
X123072219Y-68561866D01*
X123090632Y-68550830D01*
X123110038Y-68541651D01*
X123130250Y-68534419D01*
X123151074Y-68529203D01*
X123172309Y-68526053D01*
X123193750Y-68525000D01*
X123631250Y-68525000D01*
X123652691Y-68526053D01*
X123652691Y-68526053D01*
G37*
D14*
X123412500Y-69000000D03*
D12*
G36*
X125227691Y-68526053D02*
G01*
X125248926Y-68529203D01*
X125269750Y-68534419D01*
X125289962Y-68541651D01*
X125309368Y-68550830D01*
X125327781Y-68561866D01*
X125345024Y-68574654D01*
X125360930Y-68589070D01*
X125375346Y-68604976D01*
X125388134Y-68622219D01*
X125399170Y-68640632D01*
X125408349Y-68660038D01*
X125415581Y-68680250D01*
X125420797Y-68701074D01*
X125423947Y-68722309D01*
X125425000Y-68743750D01*
X125425000Y-69256250D01*
X125423947Y-69277691D01*
X125420797Y-69298926D01*
X125415581Y-69319750D01*
X125408349Y-69339962D01*
X125399170Y-69359368D01*
X125388134Y-69377781D01*
X125375346Y-69395024D01*
X125360930Y-69410930D01*
X125345024Y-69425346D01*
X125327781Y-69438134D01*
X125309368Y-69449170D01*
X125289962Y-69458349D01*
X125269750Y-69465581D01*
X125248926Y-69470797D01*
X125227691Y-69473947D01*
X125206250Y-69475000D01*
X124768750Y-69475000D01*
X124747309Y-69473947D01*
X124726074Y-69470797D01*
X124705250Y-69465581D01*
X124685038Y-69458349D01*
X124665632Y-69449170D01*
X124647219Y-69438134D01*
X124629976Y-69425346D01*
X124614070Y-69410930D01*
X124599654Y-69395024D01*
X124586866Y-69377781D01*
X124575830Y-69359368D01*
X124566651Y-69339962D01*
X124559419Y-69319750D01*
X124554203Y-69298926D01*
X124551053Y-69277691D01*
X124550000Y-69256250D01*
X124550000Y-68743750D01*
X124551053Y-68722309D01*
X124554203Y-68701074D01*
X124559419Y-68680250D01*
X124566651Y-68660038D01*
X124575830Y-68640632D01*
X124586866Y-68622219D01*
X124599654Y-68604976D01*
X124614070Y-68589070D01*
X124629976Y-68574654D01*
X124647219Y-68561866D01*
X124665632Y-68550830D01*
X124685038Y-68541651D01*
X124705250Y-68534419D01*
X124726074Y-68529203D01*
X124747309Y-68526053D01*
X124768750Y-68525000D01*
X125206250Y-68525000D01*
X125227691Y-68526053D01*
X125227691Y-68526053D01*
G37*
D14*
X124987500Y-69000000D03*
D12*
G36*
X121640691Y-77026053D02*
G01*
X121661926Y-77029203D01*
X121682750Y-77034419D01*
X121702962Y-77041651D01*
X121722368Y-77050830D01*
X121740781Y-77061866D01*
X121758024Y-77074654D01*
X121773930Y-77089070D01*
X121788346Y-77104976D01*
X121801134Y-77122219D01*
X121812170Y-77140632D01*
X121821349Y-77160038D01*
X121828581Y-77180250D01*
X121833797Y-77201074D01*
X121836947Y-77222309D01*
X121838000Y-77243750D01*
X121838000Y-77756250D01*
X121836947Y-77777691D01*
X121833797Y-77798926D01*
X121828581Y-77819750D01*
X121821349Y-77839962D01*
X121812170Y-77859368D01*
X121801134Y-77877781D01*
X121788346Y-77895024D01*
X121773930Y-77910930D01*
X121758024Y-77925346D01*
X121740781Y-77938134D01*
X121722368Y-77949170D01*
X121702962Y-77958349D01*
X121682750Y-77965581D01*
X121661926Y-77970797D01*
X121640691Y-77973947D01*
X121619250Y-77975000D01*
X121181750Y-77975000D01*
X121160309Y-77973947D01*
X121139074Y-77970797D01*
X121118250Y-77965581D01*
X121098038Y-77958349D01*
X121078632Y-77949170D01*
X121060219Y-77938134D01*
X121042976Y-77925346D01*
X121027070Y-77910930D01*
X121012654Y-77895024D01*
X120999866Y-77877781D01*
X120988830Y-77859368D01*
X120979651Y-77839962D01*
X120972419Y-77819750D01*
X120967203Y-77798926D01*
X120964053Y-77777691D01*
X120963000Y-77756250D01*
X120963000Y-77243750D01*
X120964053Y-77222309D01*
X120967203Y-77201074D01*
X120972419Y-77180250D01*
X120979651Y-77160038D01*
X120988830Y-77140632D01*
X120999866Y-77122219D01*
X121012654Y-77104976D01*
X121027070Y-77089070D01*
X121042976Y-77074654D01*
X121060219Y-77061866D01*
X121078632Y-77050830D01*
X121098038Y-77041651D01*
X121118250Y-77034419D01*
X121139074Y-77029203D01*
X121160309Y-77026053D01*
X121181750Y-77025000D01*
X121619250Y-77025000D01*
X121640691Y-77026053D01*
X121640691Y-77026053D01*
G37*
D14*
X121400500Y-77500000D03*
D12*
G36*
X123215691Y-77026053D02*
G01*
X123236926Y-77029203D01*
X123257750Y-77034419D01*
X123277962Y-77041651D01*
X123297368Y-77050830D01*
X123315781Y-77061866D01*
X123333024Y-77074654D01*
X123348930Y-77089070D01*
X123363346Y-77104976D01*
X123376134Y-77122219D01*
X123387170Y-77140632D01*
X123396349Y-77160038D01*
X123403581Y-77180250D01*
X123408797Y-77201074D01*
X123411947Y-77222309D01*
X123413000Y-77243750D01*
X123413000Y-77756250D01*
X123411947Y-77777691D01*
X123408797Y-77798926D01*
X123403581Y-77819750D01*
X123396349Y-77839962D01*
X123387170Y-77859368D01*
X123376134Y-77877781D01*
X123363346Y-77895024D01*
X123348930Y-77910930D01*
X123333024Y-77925346D01*
X123315781Y-77938134D01*
X123297368Y-77949170D01*
X123277962Y-77958349D01*
X123257750Y-77965581D01*
X123236926Y-77970797D01*
X123215691Y-77973947D01*
X123194250Y-77975000D01*
X122756750Y-77975000D01*
X122735309Y-77973947D01*
X122714074Y-77970797D01*
X122693250Y-77965581D01*
X122673038Y-77958349D01*
X122653632Y-77949170D01*
X122635219Y-77938134D01*
X122617976Y-77925346D01*
X122602070Y-77910930D01*
X122587654Y-77895024D01*
X122574866Y-77877781D01*
X122563830Y-77859368D01*
X122554651Y-77839962D01*
X122547419Y-77819750D01*
X122542203Y-77798926D01*
X122539053Y-77777691D01*
X122538000Y-77756250D01*
X122538000Y-77243750D01*
X122539053Y-77222309D01*
X122542203Y-77201074D01*
X122547419Y-77180250D01*
X122554651Y-77160038D01*
X122563830Y-77140632D01*
X122574866Y-77122219D01*
X122587654Y-77104976D01*
X122602070Y-77089070D01*
X122617976Y-77074654D01*
X122635219Y-77061866D01*
X122653632Y-77050830D01*
X122673038Y-77041651D01*
X122693250Y-77034419D01*
X122714074Y-77029203D01*
X122735309Y-77026053D01*
X122756750Y-77025000D01*
X123194250Y-77025000D01*
X123215691Y-77026053D01*
X123215691Y-77026053D01*
G37*
D14*
X122975500Y-77500000D03*
D12*
G36*
X115115691Y-70126053D02*
G01*
X115136926Y-70129203D01*
X115157750Y-70134419D01*
X115177962Y-70141651D01*
X115197368Y-70150830D01*
X115215781Y-70161866D01*
X115233024Y-70174654D01*
X115248930Y-70189070D01*
X115263346Y-70204976D01*
X115276134Y-70222219D01*
X115287170Y-70240632D01*
X115296349Y-70260038D01*
X115303581Y-70280250D01*
X115308797Y-70301074D01*
X115311947Y-70322309D01*
X115313000Y-70343750D01*
X115313000Y-70856250D01*
X115311947Y-70877691D01*
X115308797Y-70898926D01*
X115303581Y-70919750D01*
X115296349Y-70939962D01*
X115287170Y-70959368D01*
X115276134Y-70977781D01*
X115263346Y-70995024D01*
X115248930Y-71010930D01*
X115233024Y-71025346D01*
X115215781Y-71038134D01*
X115197368Y-71049170D01*
X115177962Y-71058349D01*
X115157750Y-71065581D01*
X115136926Y-71070797D01*
X115115691Y-71073947D01*
X115094250Y-71075000D01*
X114656750Y-71075000D01*
X114635309Y-71073947D01*
X114614074Y-71070797D01*
X114593250Y-71065581D01*
X114573038Y-71058349D01*
X114553632Y-71049170D01*
X114535219Y-71038134D01*
X114517976Y-71025346D01*
X114502070Y-71010930D01*
X114487654Y-70995024D01*
X114474866Y-70977781D01*
X114463830Y-70959368D01*
X114454651Y-70939962D01*
X114447419Y-70919750D01*
X114442203Y-70898926D01*
X114439053Y-70877691D01*
X114438000Y-70856250D01*
X114438000Y-70343750D01*
X114439053Y-70322309D01*
X114442203Y-70301074D01*
X114447419Y-70280250D01*
X114454651Y-70260038D01*
X114463830Y-70240632D01*
X114474866Y-70222219D01*
X114487654Y-70204976D01*
X114502070Y-70189070D01*
X114517976Y-70174654D01*
X114535219Y-70161866D01*
X114553632Y-70150830D01*
X114573038Y-70141651D01*
X114593250Y-70134419D01*
X114614074Y-70129203D01*
X114635309Y-70126053D01*
X114656750Y-70125000D01*
X115094250Y-70125000D01*
X115115691Y-70126053D01*
X115115691Y-70126053D01*
G37*
D14*
X114875500Y-70600000D03*
D12*
G36*
X113540691Y-70126053D02*
G01*
X113561926Y-70129203D01*
X113582750Y-70134419D01*
X113602962Y-70141651D01*
X113622368Y-70150830D01*
X113640781Y-70161866D01*
X113658024Y-70174654D01*
X113673930Y-70189070D01*
X113688346Y-70204976D01*
X113701134Y-70222219D01*
X113712170Y-70240632D01*
X113721349Y-70260038D01*
X113728581Y-70280250D01*
X113733797Y-70301074D01*
X113736947Y-70322309D01*
X113738000Y-70343750D01*
X113738000Y-70856250D01*
X113736947Y-70877691D01*
X113733797Y-70898926D01*
X113728581Y-70919750D01*
X113721349Y-70939962D01*
X113712170Y-70959368D01*
X113701134Y-70977781D01*
X113688346Y-70995024D01*
X113673930Y-71010930D01*
X113658024Y-71025346D01*
X113640781Y-71038134D01*
X113622368Y-71049170D01*
X113602962Y-71058349D01*
X113582750Y-71065581D01*
X113561926Y-71070797D01*
X113540691Y-71073947D01*
X113519250Y-71075000D01*
X113081750Y-71075000D01*
X113060309Y-71073947D01*
X113039074Y-71070797D01*
X113018250Y-71065581D01*
X112998038Y-71058349D01*
X112978632Y-71049170D01*
X112960219Y-71038134D01*
X112942976Y-71025346D01*
X112927070Y-71010930D01*
X112912654Y-70995024D01*
X112899866Y-70977781D01*
X112888830Y-70959368D01*
X112879651Y-70939962D01*
X112872419Y-70919750D01*
X112867203Y-70898926D01*
X112864053Y-70877691D01*
X112863000Y-70856250D01*
X112863000Y-70343750D01*
X112864053Y-70322309D01*
X112867203Y-70301074D01*
X112872419Y-70280250D01*
X112879651Y-70260038D01*
X112888830Y-70240632D01*
X112899866Y-70222219D01*
X112912654Y-70204976D01*
X112927070Y-70189070D01*
X112942976Y-70174654D01*
X112960219Y-70161866D01*
X112978632Y-70150830D01*
X112998038Y-70141651D01*
X113018250Y-70134419D01*
X113039074Y-70129203D01*
X113060309Y-70126053D01*
X113081750Y-70125000D01*
X113519250Y-70125000D01*
X113540691Y-70126053D01*
X113540691Y-70126053D01*
G37*
D14*
X113300500Y-70600000D03*
D12*
G36*
X113564691Y-68526053D02*
G01*
X113585926Y-68529203D01*
X113606750Y-68534419D01*
X113626962Y-68541651D01*
X113646368Y-68550830D01*
X113664781Y-68561866D01*
X113682024Y-68574654D01*
X113697930Y-68589070D01*
X113712346Y-68604976D01*
X113725134Y-68622219D01*
X113736170Y-68640632D01*
X113745349Y-68660038D01*
X113752581Y-68680250D01*
X113757797Y-68701074D01*
X113760947Y-68722309D01*
X113762000Y-68743750D01*
X113762000Y-69256250D01*
X113760947Y-69277691D01*
X113757797Y-69298926D01*
X113752581Y-69319750D01*
X113745349Y-69339962D01*
X113736170Y-69359368D01*
X113725134Y-69377781D01*
X113712346Y-69395024D01*
X113697930Y-69410930D01*
X113682024Y-69425346D01*
X113664781Y-69438134D01*
X113646368Y-69449170D01*
X113626962Y-69458349D01*
X113606750Y-69465581D01*
X113585926Y-69470797D01*
X113564691Y-69473947D01*
X113543250Y-69475000D01*
X113105750Y-69475000D01*
X113084309Y-69473947D01*
X113063074Y-69470797D01*
X113042250Y-69465581D01*
X113022038Y-69458349D01*
X113002632Y-69449170D01*
X112984219Y-69438134D01*
X112966976Y-69425346D01*
X112951070Y-69410930D01*
X112936654Y-69395024D01*
X112923866Y-69377781D01*
X112912830Y-69359368D01*
X112903651Y-69339962D01*
X112896419Y-69319750D01*
X112891203Y-69298926D01*
X112888053Y-69277691D01*
X112887000Y-69256250D01*
X112887000Y-68743750D01*
X112888053Y-68722309D01*
X112891203Y-68701074D01*
X112896419Y-68680250D01*
X112903651Y-68660038D01*
X112912830Y-68640632D01*
X112923866Y-68622219D01*
X112936654Y-68604976D01*
X112951070Y-68589070D01*
X112966976Y-68574654D01*
X112984219Y-68561866D01*
X113002632Y-68550830D01*
X113022038Y-68541651D01*
X113042250Y-68534419D01*
X113063074Y-68529203D01*
X113084309Y-68526053D01*
X113105750Y-68525000D01*
X113543250Y-68525000D01*
X113564691Y-68526053D01*
X113564691Y-68526053D01*
G37*
D14*
X113324500Y-69000000D03*
D12*
G36*
X115139691Y-68526053D02*
G01*
X115160926Y-68529203D01*
X115181750Y-68534419D01*
X115201962Y-68541651D01*
X115221368Y-68550830D01*
X115239781Y-68561866D01*
X115257024Y-68574654D01*
X115272930Y-68589070D01*
X115287346Y-68604976D01*
X115300134Y-68622219D01*
X115311170Y-68640632D01*
X115320349Y-68660038D01*
X115327581Y-68680250D01*
X115332797Y-68701074D01*
X115335947Y-68722309D01*
X115337000Y-68743750D01*
X115337000Y-69256250D01*
X115335947Y-69277691D01*
X115332797Y-69298926D01*
X115327581Y-69319750D01*
X115320349Y-69339962D01*
X115311170Y-69359368D01*
X115300134Y-69377781D01*
X115287346Y-69395024D01*
X115272930Y-69410930D01*
X115257024Y-69425346D01*
X115239781Y-69438134D01*
X115221368Y-69449170D01*
X115201962Y-69458349D01*
X115181750Y-69465581D01*
X115160926Y-69470797D01*
X115139691Y-69473947D01*
X115118250Y-69475000D01*
X114680750Y-69475000D01*
X114659309Y-69473947D01*
X114638074Y-69470797D01*
X114617250Y-69465581D01*
X114597038Y-69458349D01*
X114577632Y-69449170D01*
X114559219Y-69438134D01*
X114541976Y-69425346D01*
X114526070Y-69410930D01*
X114511654Y-69395024D01*
X114498866Y-69377781D01*
X114487830Y-69359368D01*
X114478651Y-69339962D01*
X114471419Y-69319750D01*
X114466203Y-69298926D01*
X114463053Y-69277691D01*
X114462000Y-69256250D01*
X114462000Y-68743750D01*
X114463053Y-68722309D01*
X114466203Y-68701074D01*
X114471419Y-68680250D01*
X114478651Y-68660038D01*
X114487830Y-68640632D01*
X114498866Y-68622219D01*
X114511654Y-68604976D01*
X114526070Y-68589070D01*
X114541976Y-68574654D01*
X114559219Y-68561866D01*
X114577632Y-68550830D01*
X114597038Y-68541651D01*
X114617250Y-68534419D01*
X114638074Y-68529203D01*
X114659309Y-68526053D01*
X114680750Y-68525000D01*
X115118250Y-68525000D01*
X115139691Y-68526053D01*
X115139691Y-68526053D01*
G37*
D14*
X114899500Y-69000000D03*
D12*
G36*
X113564691Y-66926053D02*
G01*
X113585926Y-66929203D01*
X113606750Y-66934419D01*
X113626962Y-66941651D01*
X113646368Y-66950830D01*
X113664781Y-66961866D01*
X113682024Y-66974654D01*
X113697930Y-66989070D01*
X113712346Y-67004976D01*
X113725134Y-67022219D01*
X113736170Y-67040632D01*
X113745349Y-67060038D01*
X113752581Y-67080250D01*
X113757797Y-67101074D01*
X113760947Y-67122309D01*
X113762000Y-67143750D01*
X113762000Y-67656250D01*
X113760947Y-67677691D01*
X113757797Y-67698926D01*
X113752581Y-67719750D01*
X113745349Y-67739962D01*
X113736170Y-67759368D01*
X113725134Y-67777781D01*
X113712346Y-67795024D01*
X113697930Y-67810930D01*
X113682024Y-67825346D01*
X113664781Y-67838134D01*
X113646368Y-67849170D01*
X113626962Y-67858349D01*
X113606750Y-67865581D01*
X113585926Y-67870797D01*
X113564691Y-67873947D01*
X113543250Y-67875000D01*
X113105750Y-67875000D01*
X113084309Y-67873947D01*
X113063074Y-67870797D01*
X113042250Y-67865581D01*
X113022038Y-67858349D01*
X113002632Y-67849170D01*
X112984219Y-67838134D01*
X112966976Y-67825346D01*
X112951070Y-67810930D01*
X112936654Y-67795024D01*
X112923866Y-67777781D01*
X112912830Y-67759368D01*
X112903651Y-67739962D01*
X112896419Y-67719750D01*
X112891203Y-67698926D01*
X112888053Y-67677691D01*
X112887000Y-67656250D01*
X112887000Y-67143750D01*
X112888053Y-67122309D01*
X112891203Y-67101074D01*
X112896419Y-67080250D01*
X112903651Y-67060038D01*
X112912830Y-67040632D01*
X112923866Y-67022219D01*
X112936654Y-67004976D01*
X112951070Y-66989070D01*
X112966976Y-66974654D01*
X112984219Y-66961866D01*
X113002632Y-66950830D01*
X113022038Y-66941651D01*
X113042250Y-66934419D01*
X113063074Y-66929203D01*
X113084309Y-66926053D01*
X113105750Y-66925000D01*
X113543250Y-66925000D01*
X113564691Y-66926053D01*
X113564691Y-66926053D01*
G37*
D14*
X113324500Y-67400000D03*
D12*
G36*
X115139691Y-66926053D02*
G01*
X115160926Y-66929203D01*
X115181750Y-66934419D01*
X115201962Y-66941651D01*
X115221368Y-66950830D01*
X115239781Y-66961866D01*
X115257024Y-66974654D01*
X115272930Y-66989070D01*
X115287346Y-67004976D01*
X115300134Y-67022219D01*
X115311170Y-67040632D01*
X115320349Y-67060038D01*
X115327581Y-67080250D01*
X115332797Y-67101074D01*
X115335947Y-67122309D01*
X115337000Y-67143750D01*
X115337000Y-67656250D01*
X115335947Y-67677691D01*
X115332797Y-67698926D01*
X115327581Y-67719750D01*
X115320349Y-67739962D01*
X115311170Y-67759368D01*
X115300134Y-67777781D01*
X115287346Y-67795024D01*
X115272930Y-67810930D01*
X115257024Y-67825346D01*
X115239781Y-67838134D01*
X115221368Y-67849170D01*
X115201962Y-67858349D01*
X115181750Y-67865581D01*
X115160926Y-67870797D01*
X115139691Y-67873947D01*
X115118250Y-67875000D01*
X114680750Y-67875000D01*
X114659309Y-67873947D01*
X114638074Y-67870797D01*
X114617250Y-67865581D01*
X114597038Y-67858349D01*
X114577632Y-67849170D01*
X114559219Y-67838134D01*
X114541976Y-67825346D01*
X114526070Y-67810930D01*
X114511654Y-67795024D01*
X114498866Y-67777781D01*
X114487830Y-67759368D01*
X114478651Y-67739962D01*
X114471419Y-67719750D01*
X114466203Y-67698926D01*
X114463053Y-67677691D01*
X114462000Y-67656250D01*
X114462000Y-67143750D01*
X114463053Y-67122309D01*
X114466203Y-67101074D01*
X114471419Y-67080250D01*
X114478651Y-67060038D01*
X114487830Y-67040632D01*
X114498866Y-67022219D01*
X114511654Y-67004976D01*
X114526070Y-66989070D01*
X114541976Y-66974654D01*
X114559219Y-66961866D01*
X114577632Y-66950830D01*
X114597038Y-66941651D01*
X114617250Y-66934419D01*
X114638074Y-66929203D01*
X114659309Y-66926053D01*
X114680750Y-66925000D01*
X115118250Y-66925000D01*
X115139691Y-66926053D01*
X115139691Y-66926053D01*
G37*
D14*
X114899500Y-67400000D03*
D12*
G36*
X122177691Y-81838553D02*
G01*
X122198926Y-81841703D01*
X122219750Y-81846919D01*
X122239962Y-81854151D01*
X122259368Y-81863330D01*
X122277781Y-81874366D01*
X122295024Y-81887154D01*
X122310930Y-81901570D01*
X122325346Y-81917476D01*
X122338134Y-81934719D01*
X122349170Y-81953132D01*
X122358349Y-81972538D01*
X122365581Y-81992750D01*
X122370797Y-82013574D01*
X122373947Y-82034809D01*
X122375000Y-82056250D01*
X122375000Y-82493750D01*
X122373947Y-82515191D01*
X122370797Y-82536426D01*
X122365581Y-82557250D01*
X122358349Y-82577462D01*
X122349170Y-82596868D01*
X122338134Y-82615281D01*
X122325346Y-82632524D01*
X122310930Y-82648430D01*
X122295024Y-82662846D01*
X122277781Y-82675634D01*
X122259368Y-82686670D01*
X122239962Y-82695849D01*
X122219750Y-82703081D01*
X122198926Y-82708297D01*
X122177691Y-82711447D01*
X122156250Y-82712500D01*
X121643750Y-82712500D01*
X121622309Y-82711447D01*
X121601074Y-82708297D01*
X121580250Y-82703081D01*
X121560038Y-82695849D01*
X121540632Y-82686670D01*
X121522219Y-82675634D01*
X121504976Y-82662846D01*
X121489070Y-82648430D01*
X121474654Y-82632524D01*
X121461866Y-82615281D01*
X121450830Y-82596868D01*
X121441651Y-82577462D01*
X121434419Y-82557250D01*
X121429203Y-82536426D01*
X121426053Y-82515191D01*
X121425000Y-82493750D01*
X121425000Y-82056250D01*
X121426053Y-82034809D01*
X121429203Y-82013574D01*
X121434419Y-81992750D01*
X121441651Y-81972538D01*
X121450830Y-81953132D01*
X121461866Y-81934719D01*
X121474654Y-81917476D01*
X121489070Y-81901570D01*
X121504976Y-81887154D01*
X121522219Y-81874366D01*
X121540632Y-81863330D01*
X121560038Y-81854151D01*
X121580250Y-81846919D01*
X121601074Y-81841703D01*
X121622309Y-81838553D01*
X121643750Y-81837500D01*
X122156250Y-81837500D01*
X122177691Y-81838553D01*
X122177691Y-81838553D01*
G37*
D14*
X121900000Y-82275000D03*
D12*
G36*
X122177691Y-80263553D02*
G01*
X122198926Y-80266703D01*
X122219750Y-80271919D01*
X122239962Y-80279151D01*
X122259368Y-80288330D01*
X122277781Y-80299366D01*
X122295024Y-80312154D01*
X122310930Y-80326570D01*
X122325346Y-80342476D01*
X122338134Y-80359719D01*
X122349170Y-80378132D01*
X122358349Y-80397538D01*
X122365581Y-80417750D01*
X122370797Y-80438574D01*
X122373947Y-80459809D01*
X122375000Y-80481250D01*
X122375000Y-80918750D01*
X122373947Y-80940191D01*
X122370797Y-80961426D01*
X122365581Y-80982250D01*
X122358349Y-81002462D01*
X122349170Y-81021868D01*
X122338134Y-81040281D01*
X122325346Y-81057524D01*
X122310930Y-81073430D01*
X122295024Y-81087846D01*
X122277781Y-81100634D01*
X122259368Y-81111670D01*
X122239962Y-81120849D01*
X122219750Y-81128081D01*
X122198926Y-81133297D01*
X122177691Y-81136447D01*
X122156250Y-81137500D01*
X121643750Y-81137500D01*
X121622309Y-81136447D01*
X121601074Y-81133297D01*
X121580250Y-81128081D01*
X121560038Y-81120849D01*
X121540632Y-81111670D01*
X121522219Y-81100634D01*
X121504976Y-81087846D01*
X121489070Y-81073430D01*
X121474654Y-81057524D01*
X121461866Y-81040281D01*
X121450830Y-81021868D01*
X121441651Y-81002462D01*
X121434419Y-80982250D01*
X121429203Y-80961426D01*
X121426053Y-80940191D01*
X121425000Y-80918750D01*
X121425000Y-80481250D01*
X121426053Y-80459809D01*
X121429203Y-80438574D01*
X121434419Y-80417750D01*
X121441651Y-80397538D01*
X121450830Y-80378132D01*
X121461866Y-80359719D01*
X121474654Y-80342476D01*
X121489070Y-80326570D01*
X121504976Y-80312154D01*
X121522219Y-80299366D01*
X121540632Y-80288330D01*
X121560038Y-80279151D01*
X121580250Y-80271919D01*
X121601074Y-80266703D01*
X121622309Y-80263553D01*
X121643750Y-80262500D01*
X122156250Y-80262500D01*
X122177691Y-80263553D01*
X122177691Y-80263553D01*
G37*
D14*
X121900000Y-80700000D03*
D12*
G36*
X121440691Y-71426053D02*
G01*
X121461926Y-71429203D01*
X121482750Y-71434419D01*
X121502962Y-71441651D01*
X121522368Y-71450830D01*
X121540781Y-71461866D01*
X121558024Y-71474654D01*
X121573930Y-71489070D01*
X121588346Y-71504976D01*
X121601134Y-71522219D01*
X121612170Y-71540632D01*
X121621349Y-71560038D01*
X121628581Y-71580250D01*
X121633797Y-71601074D01*
X121636947Y-71622309D01*
X121638000Y-71643750D01*
X121638000Y-72156250D01*
X121636947Y-72177691D01*
X121633797Y-72198926D01*
X121628581Y-72219750D01*
X121621349Y-72239962D01*
X121612170Y-72259368D01*
X121601134Y-72277781D01*
X121588346Y-72295024D01*
X121573930Y-72310930D01*
X121558024Y-72325346D01*
X121540781Y-72338134D01*
X121522368Y-72349170D01*
X121502962Y-72358349D01*
X121482750Y-72365581D01*
X121461926Y-72370797D01*
X121440691Y-72373947D01*
X121419250Y-72375000D01*
X120981750Y-72375000D01*
X120960309Y-72373947D01*
X120939074Y-72370797D01*
X120918250Y-72365581D01*
X120898038Y-72358349D01*
X120878632Y-72349170D01*
X120860219Y-72338134D01*
X120842976Y-72325346D01*
X120827070Y-72310930D01*
X120812654Y-72295024D01*
X120799866Y-72277781D01*
X120788830Y-72259368D01*
X120779651Y-72239962D01*
X120772419Y-72219750D01*
X120767203Y-72198926D01*
X120764053Y-72177691D01*
X120763000Y-72156250D01*
X120763000Y-71643750D01*
X120764053Y-71622309D01*
X120767203Y-71601074D01*
X120772419Y-71580250D01*
X120779651Y-71560038D01*
X120788830Y-71540632D01*
X120799866Y-71522219D01*
X120812654Y-71504976D01*
X120827070Y-71489070D01*
X120842976Y-71474654D01*
X120860219Y-71461866D01*
X120878632Y-71450830D01*
X120898038Y-71441651D01*
X120918250Y-71434419D01*
X120939074Y-71429203D01*
X120960309Y-71426053D01*
X120981750Y-71425000D01*
X121419250Y-71425000D01*
X121440691Y-71426053D01*
X121440691Y-71426053D01*
G37*
D14*
X121200500Y-71900000D03*
D12*
G36*
X123015691Y-71426053D02*
G01*
X123036926Y-71429203D01*
X123057750Y-71434419D01*
X123077962Y-71441651D01*
X123097368Y-71450830D01*
X123115781Y-71461866D01*
X123133024Y-71474654D01*
X123148930Y-71489070D01*
X123163346Y-71504976D01*
X123176134Y-71522219D01*
X123187170Y-71540632D01*
X123196349Y-71560038D01*
X123203581Y-71580250D01*
X123208797Y-71601074D01*
X123211947Y-71622309D01*
X123213000Y-71643750D01*
X123213000Y-72156250D01*
X123211947Y-72177691D01*
X123208797Y-72198926D01*
X123203581Y-72219750D01*
X123196349Y-72239962D01*
X123187170Y-72259368D01*
X123176134Y-72277781D01*
X123163346Y-72295024D01*
X123148930Y-72310930D01*
X123133024Y-72325346D01*
X123115781Y-72338134D01*
X123097368Y-72349170D01*
X123077962Y-72358349D01*
X123057750Y-72365581D01*
X123036926Y-72370797D01*
X123015691Y-72373947D01*
X122994250Y-72375000D01*
X122556750Y-72375000D01*
X122535309Y-72373947D01*
X122514074Y-72370797D01*
X122493250Y-72365581D01*
X122473038Y-72358349D01*
X122453632Y-72349170D01*
X122435219Y-72338134D01*
X122417976Y-72325346D01*
X122402070Y-72310930D01*
X122387654Y-72295024D01*
X122374866Y-72277781D01*
X122363830Y-72259368D01*
X122354651Y-72239962D01*
X122347419Y-72219750D01*
X122342203Y-72198926D01*
X122339053Y-72177691D01*
X122338000Y-72156250D01*
X122338000Y-71643750D01*
X122339053Y-71622309D01*
X122342203Y-71601074D01*
X122347419Y-71580250D01*
X122354651Y-71560038D01*
X122363830Y-71540632D01*
X122374866Y-71522219D01*
X122387654Y-71504976D01*
X122402070Y-71489070D01*
X122417976Y-71474654D01*
X122435219Y-71461866D01*
X122453632Y-71450830D01*
X122473038Y-71441651D01*
X122493250Y-71434419D01*
X122514074Y-71429203D01*
X122535309Y-71426053D01*
X122556750Y-71425000D01*
X122994250Y-71425000D01*
X123015691Y-71426053D01*
X123015691Y-71426053D01*
G37*
D14*
X122775500Y-71900000D03*
D12*
G36*
X115139691Y-71726053D02*
G01*
X115160926Y-71729203D01*
X115181750Y-71734419D01*
X115201962Y-71741651D01*
X115221368Y-71750830D01*
X115239781Y-71761866D01*
X115257024Y-71774654D01*
X115272930Y-71789070D01*
X115287346Y-71804976D01*
X115300134Y-71822219D01*
X115311170Y-71840632D01*
X115320349Y-71860038D01*
X115327581Y-71880250D01*
X115332797Y-71901074D01*
X115335947Y-71922309D01*
X115337000Y-71943750D01*
X115337000Y-72456250D01*
X115335947Y-72477691D01*
X115332797Y-72498926D01*
X115327581Y-72519750D01*
X115320349Y-72539962D01*
X115311170Y-72559368D01*
X115300134Y-72577781D01*
X115287346Y-72595024D01*
X115272930Y-72610930D01*
X115257024Y-72625346D01*
X115239781Y-72638134D01*
X115221368Y-72649170D01*
X115201962Y-72658349D01*
X115181750Y-72665581D01*
X115160926Y-72670797D01*
X115139691Y-72673947D01*
X115118250Y-72675000D01*
X114680750Y-72675000D01*
X114659309Y-72673947D01*
X114638074Y-72670797D01*
X114617250Y-72665581D01*
X114597038Y-72658349D01*
X114577632Y-72649170D01*
X114559219Y-72638134D01*
X114541976Y-72625346D01*
X114526070Y-72610930D01*
X114511654Y-72595024D01*
X114498866Y-72577781D01*
X114487830Y-72559368D01*
X114478651Y-72539962D01*
X114471419Y-72519750D01*
X114466203Y-72498926D01*
X114463053Y-72477691D01*
X114462000Y-72456250D01*
X114462000Y-71943750D01*
X114463053Y-71922309D01*
X114466203Y-71901074D01*
X114471419Y-71880250D01*
X114478651Y-71860038D01*
X114487830Y-71840632D01*
X114498866Y-71822219D01*
X114511654Y-71804976D01*
X114526070Y-71789070D01*
X114541976Y-71774654D01*
X114559219Y-71761866D01*
X114577632Y-71750830D01*
X114597038Y-71741651D01*
X114617250Y-71734419D01*
X114638074Y-71729203D01*
X114659309Y-71726053D01*
X114680750Y-71725000D01*
X115118250Y-71725000D01*
X115139691Y-71726053D01*
X115139691Y-71726053D01*
G37*
D14*
X114899500Y-72200000D03*
D12*
G36*
X113564691Y-71726053D02*
G01*
X113585926Y-71729203D01*
X113606750Y-71734419D01*
X113626962Y-71741651D01*
X113646368Y-71750830D01*
X113664781Y-71761866D01*
X113682024Y-71774654D01*
X113697930Y-71789070D01*
X113712346Y-71804976D01*
X113725134Y-71822219D01*
X113736170Y-71840632D01*
X113745349Y-71860038D01*
X113752581Y-71880250D01*
X113757797Y-71901074D01*
X113760947Y-71922309D01*
X113762000Y-71943750D01*
X113762000Y-72456250D01*
X113760947Y-72477691D01*
X113757797Y-72498926D01*
X113752581Y-72519750D01*
X113745349Y-72539962D01*
X113736170Y-72559368D01*
X113725134Y-72577781D01*
X113712346Y-72595024D01*
X113697930Y-72610930D01*
X113682024Y-72625346D01*
X113664781Y-72638134D01*
X113646368Y-72649170D01*
X113626962Y-72658349D01*
X113606750Y-72665581D01*
X113585926Y-72670797D01*
X113564691Y-72673947D01*
X113543250Y-72675000D01*
X113105750Y-72675000D01*
X113084309Y-72673947D01*
X113063074Y-72670797D01*
X113042250Y-72665581D01*
X113022038Y-72658349D01*
X113002632Y-72649170D01*
X112984219Y-72638134D01*
X112966976Y-72625346D01*
X112951070Y-72610930D01*
X112936654Y-72595024D01*
X112923866Y-72577781D01*
X112912830Y-72559368D01*
X112903651Y-72539962D01*
X112896419Y-72519750D01*
X112891203Y-72498926D01*
X112888053Y-72477691D01*
X112887000Y-72456250D01*
X112887000Y-71943750D01*
X112888053Y-71922309D01*
X112891203Y-71901074D01*
X112896419Y-71880250D01*
X112903651Y-71860038D01*
X112912830Y-71840632D01*
X112923866Y-71822219D01*
X112936654Y-71804976D01*
X112951070Y-71789070D01*
X112966976Y-71774654D01*
X112984219Y-71761866D01*
X113002632Y-71750830D01*
X113022038Y-71741651D01*
X113042250Y-71734419D01*
X113063074Y-71729203D01*
X113084309Y-71726053D01*
X113105750Y-71725000D01*
X113543250Y-71725000D01*
X113564691Y-71726053D01*
X113564691Y-71726053D01*
G37*
D14*
X113324500Y-72200000D03*
D12*
G36*
X115077691Y-77051053D02*
G01*
X115098926Y-77054203D01*
X115119750Y-77059419D01*
X115139962Y-77066651D01*
X115159368Y-77075830D01*
X115177781Y-77086866D01*
X115195024Y-77099654D01*
X115210930Y-77114070D01*
X115225346Y-77129976D01*
X115238134Y-77147219D01*
X115249170Y-77165632D01*
X115258349Y-77185038D01*
X115265581Y-77205250D01*
X115270797Y-77226074D01*
X115273947Y-77247309D01*
X115275000Y-77268750D01*
X115275000Y-77706250D01*
X115273947Y-77727691D01*
X115270797Y-77748926D01*
X115265581Y-77769750D01*
X115258349Y-77789962D01*
X115249170Y-77809368D01*
X115238134Y-77827781D01*
X115225346Y-77845024D01*
X115210930Y-77860930D01*
X115195024Y-77875346D01*
X115177781Y-77888134D01*
X115159368Y-77899170D01*
X115139962Y-77908349D01*
X115119750Y-77915581D01*
X115098926Y-77920797D01*
X115077691Y-77923947D01*
X115056250Y-77925000D01*
X114543750Y-77925000D01*
X114522309Y-77923947D01*
X114501074Y-77920797D01*
X114480250Y-77915581D01*
X114460038Y-77908349D01*
X114440632Y-77899170D01*
X114422219Y-77888134D01*
X114404976Y-77875346D01*
X114389070Y-77860930D01*
X114374654Y-77845024D01*
X114361866Y-77827781D01*
X114350830Y-77809368D01*
X114341651Y-77789962D01*
X114334419Y-77769750D01*
X114329203Y-77748926D01*
X114326053Y-77727691D01*
X114325000Y-77706250D01*
X114325000Y-77268750D01*
X114326053Y-77247309D01*
X114329203Y-77226074D01*
X114334419Y-77205250D01*
X114341651Y-77185038D01*
X114350830Y-77165632D01*
X114361866Y-77147219D01*
X114374654Y-77129976D01*
X114389070Y-77114070D01*
X114404976Y-77099654D01*
X114422219Y-77086866D01*
X114440632Y-77075830D01*
X114460038Y-77066651D01*
X114480250Y-77059419D01*
X114501074Y-77054203D01*
X114522309Y-77051053D01*
X114543750Y-77050000D01*
X115056250Y-77050000D01*
X115077691Y-77051053D01*
X115077691Y-77051053D01*
G37*
D14*
X114800000Y-77487500D03*
D12*
G36*
X115077691Y-75476053D02*
G01*
X115098926Y-75479203D01*
X115119750Y-75484419D01*
X115139962Y-75491651D01*
X115159368Y-75500830D01*
X115177781Y-75511866D01*
X115195024Y-75524654D01*
X115210930Y-75539070D01*
X115225346Y-75554976D01*
X115238134Y-75572219D01*
X115249170Y-75590632D01*
X115258349Y-75610038D01*
X115265581Y-75630250D01*
X115270797Y-75651074D01*
X115273947Y-75672309D01*
X115275000Y-75693750D01*
X115275000Y-76131250D01*
X115273947Y-76152691D01*
X115270797Y-76173926D01*
X115265581Y-76194750D01*
X115258349Y-76214962D01*
X115249170Y-76234368D01*
X115238134Y-76252781D01*
X115225346Y-76270024D01*
X115210930Y-76285930D01*
X115195024Y-76300346D01*
X115177781Y-76313134D01*
X115159368Y-76324170D01*
X115139962Y-76333349D01*
X115119750Y-76340581D01*
X115098926Y-76345797D01*
X115077691Y-76348947D01*
X115056250Y-76350000D01*
X114543750Y-76350000D01*
X114522309Y-76348947D01*
X114501074Y-76345797D01*
X114480250Y-76340581D01*
X114460038Y-76333349D01*
X114440632Y-76324170D01*
X114422219Y-76313134D01*
X114404976Y-76300346D01*
X114389070Y-76285930D01*
X114374654Y-76270024D01*
X114361866Y-76252781D01*
X114350830Y-76234368D01*
X114341651Y-76214962D01*
X114334419Y-76194750D01*
X114329203Y-76173926D01*
X114326053Y-76152691D01*
X114325000Y-76131250D01*
X114325000Y-75693750D01*
X114326053Y-75672309D01*
X114329203Y-75651074D01*
X114334419Y-75630250D01*
X114341651Y-75610038D01*
X114350830Y-75590632D01*
X114361866Y-75572219D01*
X114374654Y-75554976D01*
X114389070Y-75539070D01*
X114404976Y-75524654D01*
X114422219Y-75511866D01*
X114440632Y-75500830D01*
X114460038Y-75491651D01*
X114480250Y-75484419D01*
X114501074Y-75479203D01*
X114522309Y-75476053D01*
X114543750Y-75475000D01*
X115056250Y-75475000D01*
X115077691Y-75476053D01*
X115077691Y-75476053D01*
G37*
D14*
X114800000Y-75912500D03*
D12*
G36*
X130327691Y-86826053D02*
G01*
X130348926Y-86829203D01*
X130369750Y-86834419D01*
X130389962Y-86841651D01*
X130409368Y-86850830D01*
X130427781Y-86861866D01*
X130445024Y-86874654D01*
X130460930Y-86889070D01*
X130475346Y-86904976D01*
X130488134Y-86922219D01*
X130499170Y-86940632D01*
X130508349Y-86960038D01*
X130515581Y-86980250D01*
X130520797Y-87001074D01*
X130523947Y-87022309D01*
X130525000Y-87043750D01*
X130525000Y-87556250D01*
X130523947Y-87577691D01*
X130520797Y-87598926D01*
X130515581Y-87619750D01*
X130508349Y-87639962D01*
X130499170Y-87659368D01*
X130488134Y-87677781D01*
X130475346Y-87695024D01*
X130460930Y-87710930D01*
X130445024Y-87725346D01*
X130427781Y-87738134D01*
X130409368Y-87749170D01*
X130389962Y-87758349D01*
X130369750Y-87765581D01*
X130348926Y-87770797D01*
X130327691Y-87773947D01*
X130306250Y-87775000D01*
X129868750Y-87775000D01*
X129847309Y-87773947D01*
X129826074Y-87770797D01*
X129805250Y-87765581D01*
X129785038Y-87758349D01*
X129765632Y-87749170D01*
X129747219Y-87738134D01*
X129729976Y-87725346D01*
X129714070Y-87710930D01*
X129699654Y-87695024D01*
X129686866Y-87677781D01*
X129675830Y-87659368D01*
X129666651Y-87639962D01*
X129659419Y-87619750D01*
X129654203Y-87598926D01*
X129651053Y-87577691D01*
X129650000Y-87556250D01*
X129650000Y-87043750D01*
X129651053Y-87022309D01*
X129654203Y-87001074D01*
X129659419Y-86980250D01*
X129666651Y-86960038D01*
X129675830Y-86940632D01*
X129686866Y-86922219D01*
X129699654Y-86904976D01*
X129714070Y-86889070D01*
X129729976Y-86874654D01*
X129747219Y-86861866D01*
X129765632Y-86850830D01*
X129785038Y-86841651D01*
X129805250Y-86834419D01*
X129826074Y-86829203D01*
X129847309Y-86826053D01*
X129868750Y-86825000D01*
X130306250Y-86825000D01*
X130327691Y-86826053D01*
X130327691Y-86826053D01*
G37*
D14*
X130087500Y-87300000D03*
D12*
G36*
X128752691Y-86826053D02*
G01*
X128773926Y-86829203D01*
X128794750Y-86834419D01*
X128814962Y-86841651D01*
X128834368Y-86850830D01*
X128852781Y-86861866D01*
X128870024Y-86874654D01*
X128885930Y-86889070D01*
X128900346Y-86904976D01*
X128913134Y-86922219D01*
X128924170Y-86940632D01*
X128933349Y-86960038D01*
X128940581Y-86980250D01*
X128945797Y-87001074D01*
X128948947Y-87022309D01*
X128950000Y-87043750D01*
X128950000Y-87556250D01*
X128948947Y-87577691D01*
X128945797Y-87598926D01*
X128940581Y-87619750D01*
X128933349Y-87639962D01*
X128924170Y-87659368D01*
X128913134Y-87677781D01*
X128900346Y-87695024D01*
X128885930Y-87710930D01*
X128870024Y-87725346D01*
X128852781Y-87738134D01*
X128834368Y-87749170D01*
X128814962Y-87758349D01*
X128794750Y-87765581D01*
X128773926Y-87770797D01*
X128752691Y-87773947D01*
X128731250Y-87775000D01*
X128293750Y-87775000D01*
X128272309Y-87773947D01*
X128251074Y-87770797D01*
X128230250Y-87765581D01*
X128210038Y-87758349D01*
X128190632Y-87749170D01*
X128172219Y-87738134D01*
X128154976Y-87725346D01*
X128139070Y-87710930D01*
X128124654Y-87695024D01*
X128111866Y-87677781D01*
X128100830Y-87659368D01*
X128091651Y-87639962D01*
X128084419Y-87619750D01*
X128079203Y-87598926D01*
X128076053Y-87577691D01*
X128075000Y-87556250D01*
X128075000Y-87043750D01*
X128076053Y-87022309D01*
X128079203Y-87001074D01*
X128084419Y-86980250D01*
X128091651Y-86960038D01*
X128100830Y-86940632D01*
X128111866Y-86922219D01*
X128124654Y-86904976D01*
X128139070Y-86889070D01*
X128154976Y-86874654D01*
X128172219Y-86861866D01*
X128190632Y-86850830D01*
X128210038Y-86841651D01*
X128230250Y-86834419D01*
X128251074Y-86829203D01*
X128272309Y-86826053D01*
X128293750Y-86825000D01*
X128731250Y-86825000D01*
X128752691Y-86826053D01*
X128752691Y-86826053D01*
G37*
D14*
X128512500Y-87300000D03*
D12*
G36*
X130327691Y-65426053D02*
G01*
X130348926Y-65429203D01*
X130369750Y-65434419D01*
X130389962Y-65441651D01*
X130409368Y-65450830D01*
X130427781Y-65461866D01*
X130445024Y-65474654D01*
X130460930Y-65489070D01*
X130475346Y-65504976D01*
X130488134Y-65522219D01*
X130499170Y-65540632D01*
X130508349Y-65560038D01*
X130515581Y-65580250D01*
X130520797Y-65601074D01*
X130523947Y-65622309D01*
X130525000Y-65643750D01*
X130525000Y-66156250D01*
X130523947Y-66177691D01*
X130520797Y-66198926D01*
X130515581Y-66219750D01*
X130508349Y-66239962D01*
X130499170Y-66259368D01*
X130488134Y-66277781D01*
X130475346Y-66295024D01*
X130460930Y-66310930D01*
X130445024Y-66325346D01*
X130427781Y-66338134D01*
X130409368Y-66349170D01*
X130389962Y-66358349D01*
X130369750Y-66365581D01*
X130348926Y-66370797D01*
X130327691Y-66373947D01*
X130306250Y-66375000D01*
X129868750Y-66375000D01*
X129847309Y-66373947D01*
X129826074Y-66370797D01*
X129805250Y-66365581D01*
X129785038Y-66358349D01*
X129765632Y-66349170D01*
X129747219Y-66338134D01*
X129729976Y-66325346D01*
X129714070Y-66310930D01*
X129699654Y-66295024D01*
X129686866Y-66277781D01*
X129675830Y-66259368D01*
X129666651Y-66239962D01*
X129659419Y-66219750D01*
X129654203Y-66198926D01*
X129651053Y-66177691D01*
X129650000Y-66156250D01*
X129650000Y-65643750D01*
X129651053Y-65622309D01*
X129654203Y-65601074D01*
X129659419Y-65580250D01*
X129666651Y-65560038D01*
X129675830Y-65540632D01*
X129686866Y-65522219D01*
X129699654Y-65504976D01*
X129714070Y-65489070D01*
X129729976Y-65474654D01*
X129747219Y-65461866D01*
X129765632Y-65450830D01*
X129785038Y-65441651D01*
X129805250Y-65434419D01*
X129826074Y-65429203D01*
X129847309Y-65426053D01*
X129868750Y-65425000D01*
X130306250Y-65425000D01*
X130327691Y-65426053D01*
X130327691Y-65426053D01*
G37*
D14*
X130087500Y-65900000D03*
D12*
G36*
X128752691Y-65426053D02*
G01*
X128773926Y-65429203D01*
X128794750Y-65434419D01*
X128814962Y-65441651D01*
X128834368Y-65450830D01*
X128852781Y-65461866D01*
X128870024Y-65474654D01*
X128885930Y-65489070D01*
X128900346Y-65504976D01*
X128913134Y-65522219D01*
X128924170Y-65540632D01*
X128933349Y-65560038D01*
X128940581Y-65580250D01*
X128945797Y-65601074D01*
X128948947Y-65622309D01*
X128950000Y-65643750D01*
X128950000Y-66156250D01*
X128948947Y-66177691D01*
X128945797Y-66198926D01*
X128940581Y-66219750D01*
X128933349Y-66239962D01*
X128924170Y-66259368D01*
X128913134Y-66277781D01*
X128900346Y-66295024D01*
X128885930Y-66310930D01*
X128870024Y-66325346D01*
X128852781Y-66338134D01*
X128834368Y-66349170D01*
X128814962Y-66358349D01*
X128794750Y-66365581D01*
X128773926Y-66370797D01*
X128752691Y-66373947D01*
X128731250Y-66375000D01*
X128293750Y-66375000D01*
X128272309Y-66373947D01*
X128251074Y-66370797D01*
X128230250Y-66365581D01*
X128210038Y-66358349D01*
X128190632Y-66349170D01*
X128172219Y-66338134D01*
X128154976Y-66325346D01*
X128139070Y-66310930D01*
X128124654Y-66295024D01*
X128111866Y-66277781D01*
X128100830Y-66259368D01*
X128091651Y-66239962D01*
X128084419Y-66219750D01*
X128079203Y-66198926D01*
X128076053Y-66177691D01*
X128075000Y-66156250D01*
X128075000Y-65643750D01*
X128076053Y-65622309D01*
X128079203Y-65601074D01*
X128084419Y-65580250D01*
X128091651Y-65560038D01*
X128100830Y-65540632D01*
X128111866Y-65522219D01*
X128124654Y-65504976D01*
X128139070Y-65489070D01*
X128154976Y-65474654D01*
X128172219Y-65461866D01*
X128190632Y-65450830D01*
X128210038Y-65441651D01*
X128230250Y-65434419D01*
X128251074Y-65429203D01*
X128272309Y-65426053D01*
X128293750Y-65425000D01*
X128731250Y-65425000D01*
X128752691Y-65426053D01*
X128752691Y-65426053D01*
G37*
D14*
X128512500Y-65900000D03*
D12*
G36*
X130327691Y-85126053D02*
G01*
X130348926Y-85129203D01*
X130369750Y-85134419D01*
X130389962Y-85141651D01*
X130409368Y-85150830D01*
X130427781Y-85161866D01*
X130445024Y-85174654D01*
X130460930Y-85189070D01*
X130475346Y-85204976D01*
X130488134Y-85222219D01*
X130499170Y-85240632D01*
X130508349Y-85260038D01*
X130515581Y-85280250D01*
X130520797Y-85301074D01*
X130523947Y-85322309D01*
X130525000Y-85343750D01*
X130525000Y-85856250D01*
X130523947Y-85877691D01*
X130520797Y-85898926D01*
X130515581Y-85919750D01*
X130508349Y-85939962D01*
X130499170Y-85959368D01*
X130488134Y-85977781D01*
X130475346Y-85995024D01*
X130460930Y-86010930D01*
X130445024Y-86025346D01*
X130427781Y-86038134D01*
X130409368Y-86049170D01*
X130389962Y-86058349D01*
X130369750Y-86065581D01*
X130348926Y-86070797D01*
X130327691Y-86073947D01*
X130306250Y-86075000D01*
X129868750Y-86075000D01*
X129847309Y-86073947D01*
X129826074Y-86070797D01*
X129805250Y-86065581D01*
X129785038Y-86058349D01*
X129765632Y-86049170D01*
X129747219Y-86038134D01*
X129729976Y-86025346D01*
X129714070Y-86010930D01*
X129699654Y-85995024D01*
X129686866Y-85977781D01*
X129675830Y-85959368D01*
X129666651Y-85939962D01*
X129659419Y-85919750D01*
X129654203Y-85898926D01*
X129651053Y-85877691D01*
X129650000Y-85856250D01*
X129650000Y-85343750D01*
X129651053Y-85322309D01*
X129654203Y-85301074D01*
X129659419Y-85280250D01*
X129666651Y-85260038D01*
X129675830Y-85240632D01*
X129686866Y-85222219D01*
X129699654Y-85204976D01*
X129714070Y-85189070D01*
X129729976Y-85174654D01*
X129747219Y-85161866D01*
X129765632Y-85150830D01*
X129785038Y-85141651D01*
X129805250Y-85134419D01*
X129826074Y-85129203D01*
X129847309Y-85126053D01*
X129868750Y-85125000D01*
X130306250Y-85125000D01*
X130327691Y-85126053D01*
X130327691Y-85126053D01*
G37*
D14*
X130087500Y-85600000D03*
D12*
G36*
X128752691Y-85126053D02*
G01*
X128773926Y-85129203D01*
X128794750Y-85134419D01*
X128814962Y-85141651D01*
X128834368Y-85150830D01*
X128852781Y-85161866D01*
X128870024Y-85174654D01*
X128885930Y-85189070D01*
X128900346Y-85204976D01*
X128913134Y-85222219D01*
X128924170Y-85240632D01*
X128933349Y-85260038D01*
X128940581Y-85280250D01*
X128945797Y-85301074D01*
X128948947Y-85322309D01*
X128950000Y-85343750D01*
X128950000Y-85856250D01*
X128948947Y-85877691D01*
X128945797Y-85898926D01*
X128940581Y-85919750D01*
X128933349Y-85939962D01*
X128924170Y-85959368D01*
X128913134Y-85977781D01*
X128900346Y-85995024D01*
X128885930Y-86010930D01*
X128870024Y-86025346D01*
X128852781Y-86038134D01*
X128834368Y-86049170D01*
X128814962Y-86058349D01*
X128794750Y-86065581D01*
X128773926Y-86070797D01*
X128752691Y-86073947D01*
X128731250Y-86075000D01*
X128293750Y-86075000D01*
X128272309Y-86073947D01*
X128251074Y-86070797D01*
X128230250Y-86065581D01*
X128210038Y-86058349D01*
X128190632Y-86049170D01*
X128172219Y-86038134D01*
X128154976Y-86025346D01*
X128139070Y-86010930D01*
X128124654Y-85995024D01*
X128111866Y-85977781D01*
X128100830Y-85959368D01*
X128091651Y-85939962D01*
X128084419Y-85919750D01*
X128079203Y-85898926D01*
X128076053Y-85877691D01*
X128075000Y-85856250D01*
X128075000Y-85343750D01*
X128076053Y-85322309D01*
X128079203Y-85301074D01*
X128084419Y-85280250D01*
X128091651Y-85260038D01*
X128100830Y-85240632D01*
X128111866Y-85222219D01*
X128124654Y-85204976D01*
X128139070Y-85189070D01*
X128154976Y-85174654D01*
X128172219Y-85161866D01*
X128190632Y-85150830D01*
X128210038Y-85141651D01*
X128230250Y-85134419D01*
X128251074Y-85129203D01*
X128272309Y-85126053D01*
X128293750Y-85125000D01*
X128731250Y-85125000D01*
X128752691Y-85126053D01*
X128752691Y-85126053D01*
G37*
D14*
X128512500Y-85600000D03*
D12*
G36*
X130327691Y-67126053D02*
G01*
X130348926Y-67129203D01*
X130369750Y-67134419D01*
X130389962Y-67141651D01*
X130409368Y-67150830D01*
X130427781Y-67161866D01*
X130445024Y-67174654D01*
X130460930Y-67189070D01*
X130475346Y-67204976D01*
X130488134Y-67222219D01*
X130499170Y-67240632D01*
X130508349Y-67260038D01*
X130515581Y-67280250D01*
X130520797Y-67301074D01*
X130523947Y-67322309D01*
X130525000Y-67343750D01*
X130525000Y-67856250D01*
X130523947Y-67877691D01*
X130520797Y-67898926D01*
X130515581Y-67919750D01*
X130508349Y-67939962D01*
X130499170Y-67959368D01*
X130488134Y-67977781D01*
X130475346Y-67995024D01*
X130460930Y-68010930D01*
X130445024Y-68025346D01*
X130427781Y-68038134D01*
X130409368Y-68049170D01*
X130389962Y-68058349D01*
X130369750Y-68065581D01*
X130348926Y-68070797D01*
X130327691Y-68073947D01*
X130306250Y-68075000D01*
X129868750Y-68075000D01*
X129847309Y-68073947D01*
X129826074Y-68070797D01*
X129805250Y-68065581D01*
X129785038Y-68058349D01*
X129765632Y-68049170D01*
X129747219Y-68038134D01*
X129729976Y-68025346D01*
X129714070Y-68010930D01*
X129699654Y-67995024D01*
X129686866Y-67977781D01*
X129675830Y-67959368D01*
X129666651Y-67939962D01*
X129659419Y-67919750D01*
X129654203Y-67898926D01*
X129651053Y-67877691D01*
X129650000Y-67856250D01*
X129650000Y-67343750D01*
X129651053Y-67322309D01*
X129654203Y-67301074D01*
X129659419Y-67280250D01*
X129666651Y-67260038D01*
X129675830Y-67240632D01*
X129686866Y-67222219D01*
X129699654Y-67204976D01*
X129714070Y-67189070D01*
X129729976Y-67174654D01*
X129747219Y-67161866D01*
X129765632Y-67150830D01*
X129785038Y-67141651D01*
X129805250Y-67134419D01*
X129826074Y-67129203D01*
X129847309Y-67126053D01*
X129868750Y-67125000D01*
X130306250Y-67125000D01*
X130327691Y-67126053D01*
X130327691Y-67126053D01*
G37*
D14*
X130087500Y-67600000D03*
D12*
G36*
X128752691Y-67126053D02*
G01*
X128773926Y-67129203D01*
X128794750Y-67134419D01*
X128814962Y-67141651D01*
X128834368Y-67150830D01*
X128852781Y-67161866D01*
X128870024Y-67174654D01*
X128885930Y-67189070D01*
X128900346Y-67204976D01*
X128913134Y-67222219D01*
X128924170Y-67240632D01*
X128933349Y-67260038D01*
X128940581Y-67280250D01*
X128945797Y-67301074D01*
X128948947Y-67322309D01*
X128950000Y-67343750D01*
X128950000Y-67856250D01*
X128948947Y-67877691D01*
X128945797Y-67898926D01*
X128940581Y-67919750D01*
X128933349Y-67939962D01*
X128924170Y-67959368D01*
X128913134Y-67977781D01*
X128900346Y-67995024D01*
X128885930Y-68010930D01*
X128870024Y-68025346D01*
X128852781Y-68038134D01*
X128834368Y-68049170D01*
X128814962Y-68058349D01*
X128794750Y-68065581D01*
X128773926Y-68070797D01*
X128752691Y-68073947D01*
X128731250Y-68075000D01*
X128293750Y-68075000D01*
X128272309Y-68073947D01*
X128251074Y-68070797D01*
X128230250Y-68065581D01*
X128210038Y-68058349D01*
X128190632Y-68049170D01*
X128172219Y-68038134D01*
X128154976Y-68025346D01*
X128139070Y-68010930D01*
X128124654Y-67995024D01*
X128111866Y-67977781D01*
X128100830Y-67959368D01*
X128091651Y-67939962D01*
X128084419Y-67919750D01*
X128079203Y-67898926D01*
X128076053Y-67877691D01*
X128075000Y-67856250D01*
X128075000Y-67343750D01*
X128076053Y-67322309D01*
X128079203Y-67301074D01*
X128084419Y-67280250D01*
X128091651Y-67260038D01*
X128100830Y-67240632D01*
X128111866Y-67222219D01*
X128124654Y-67204976D01*
X128139070Y-67189070D01*
X128154976Y-67174654D01*
X128172219Y-67161866D01*
X128190632Y-67150830D01*
X128210038Y-67141651D01*
X128230250Y-67134419D01*
X128251074Y-67129203D01*
X128272309Y-67126053D01*
X128293750Y-67125000D01*
X128731250Y-67125000D01*
X128752691Y-67126053D01*
X128752691Y-67126053D01*
G37*
D14*
X128512500Y-67600000D03*
D12*
G36*
X116777691Y-75476053D02*
G01*
X116798926Y-75479203D01*
X116819750Y-75484419D01*
X116839962Y-75491651D01*
X116859368Y-75500830D01*
X116877781Y-75511866D01*
X116895024Y-75524654D01*
X116910930Y-75539070D01*
X116925346Y-75554976D01*
X116938134Y-75572219D01*
X116949170Y-75590632D01*
X116958349Y-75610038D01*
X116965581Y-75630250D01*
X116970797Y-75651074D01*
X116973947Y-75672309D01*
X116975000Y-75693750D01*
X116975000Y-76131250D01*
X116973947Y-76152691D01*
X116970797Y-76173926D01*
X116965581Y-76194750D01*
X116958349Y-76214962D01*
X116949170Y-76234368D01*
X116938134Y-76252781D01*
X116925346Y-76270024D01*
X116910930Y-76285930D01*
X116895024Y-76300346D01*
X116877781Y-76313134D01*
X116859368Y-76324170D01*
X116839962Y-76333349D01*
X116819750Y-76340581D01*
X116798926Y-76345797D01*
X116777691Y-76348947D01*
X116756250Y-76350000D01*
X116243750Y-76350000D01*
X116222309Y-76348947D01*
X116201074Y-76345797D01*
X116180250Y-76340581D01*
X116160038Y-76333349D01*
X116140632Y-76324170D01*
X116122219Y-76313134D01*
X116104976Y-76300346D01*
X116089070Y-76285930D01*
X116074654Y-76270024D01*
X116061866Y-76252781D01*
X116050830Y-76234368D01*
X116041651Y-76214962D01*
X116034419Y-76194750D01*
X116029203Y-76173926D01*
X116026053Y-76152691D01*
X116025000Y-76131250D01*
X116025000Y-75693750D01*
X116026053Y-75672309D01*
X116029203Y-75651074D01*
X116034419Y-75630250D01*
X116041651Y-75610038D01*
X116050830Y-75590632D01*
X116061866Y-75572219D01*
X116074654Y-75554976D01*
X116089070Y-75539070D01*
X116104976Y-75524654D01*
X116122219Y-75511866D01*
X116140632Y-75500830D01*
X116160038Y-75491651D01*
X116180250Y-75484419D01*
X116201074Y-75479203D01*
X116222309Y-75476053D01*
X116243750Y-75475000D01*
X116756250Y-75475000D01*
X116777691Y-75476053D01*
X116777691Y-75476053D01*
G37*
D14*
X116500000Y-75912500D03*
D12*
G36*
X116777691Y-77051053D02*
G01*
X116798926Y-77054203D01*
X116819750Y-77059419D01*
X116839962Y-77066651D01*
X116859368Y-77075830D01*
X116877781Y-77086866D01*
X116895024Y-77099654D01*
X116910930Y-77114070D01*
X116925346Y-77129976D01*
X116938134Y-77147219D01*
X116949170Y-77165632D01*
X116958349Y-77185038D01*
X116965581Y-77205250D01*
X116970797Y-77226074D01*
X116973947Y-77247309D01*
X116975000Y-77268750D01*
X116975000Y-77706250D01*
X116973947Y-77727691D01*
X116970797Y-77748926D01*
X116965581Y-77769750D01*
X116958349Y-77789962D01*
X116949170Y-77809368D01*
X116938134Y-77827781D01*
X116925346Y-77845024D01*
X116910930Y-77860930D01*
X116895024Y-77875346D01*
X116877781Y-77888134D01*
X116859368Y-77899170D01*
X116839962Y-77908349D01*
X116819750Y-77915581D01*
X116798926Y-77920797D01*
X116777691Y-77923947D01*
X116756250Y-77925000D01*
X116243750Y-77925000D01*
X116222309Y-77923947D01*
X116201074Y-77920797D01*
X116180250Y-77915581D01*
X116160038Y-77908349D01*
X116140632Y-77899170D01*
X116122219Y-77888134D01*
X116104976Y-77875346D01*
X116089070Y-77860930D01*
X116074654Y-77845024D01*
X116061866Y-77827781D01*
X116050830Y-77809368D01*
X116041651Y-77789962D01*
X116034419Y-77769750D01*
X116029203Y-77748926D01*
X116026053Y-77727691D01*
X116025000Y-77706250D01*
X116025000Y-77268750D01*
X116026053Y-77247309D01*
X116029203Y-77226074D01*
X116034419Y-77205250D01*
X116041651Y-77185038D01*
X116050830Y-77165632D01*
X116061866Y-77147219D01*
X116074654Y-77129976D01*
X116089070Y-77114070D01*
X116104976Y-77099654D01*
X116122219Y-77086866D01*
X116140632Y-77075830D01*
X116160038Y-77066651D01*
X116180250Y-77059419D01*
X116201074Y-77054203D01*
X116222309Y-77051053D01*
X116243750Y-77050000D01*
X116756250Y-77050000D01*
X116777691Y-77051053D01*
X116777691Y-77051053D01*
G37*
D14*
X116500000Y-77487500D03*
D12*
G36*
X119915691Y-78626053D02*
G01*
X119936926Y-78629203D01*
X119957750Y-78634419D01*
X119977962Y-78641651D01*
X119997368Y-78650830D01*
X120015781Y-78661866D01*
X120033024Y-78674654D01*
X120048930Y-78689070D01*
X120063346Y-78704976D01*
X120076134Y-78722219D01*
X120087170Y-78740632D01*
X120096349Y-78760038D01*
X120103581Y-78780250D01*
X120108797Y-78801074D01*
X120111947Y-78822309D01*
X120113000Y-78843750D01*
X120113000Y-79356250D01*
X120111947Y-79377691D01*
X120108797Y-79398926D01*
X120103581Y-79419750D01*
X120096349Y-79439962D01*
X120087170Y-79459368D01*
X120076134Y-79477781D01*
X120063346Y-79495024D01*
X120048930Y-79510930D01*
X120033024Y-79525346D01*
X120015781Y-79538134D01*
X119997368Y-79549170D01*
X119977962Y-79558349D01*
X119957750Y-79565581D01*
X119936926Y-79570797D01*
X119915691Y-79573947D01*
X119894250Y-79575000D01*
X119456750Y-79575000D01*
X119435309Y-79573947D01*
X119414074Y-79570797D01*
X119393250Y-79565581D01*
X119373038Y-79558349D01*
X119353632Y-79549170D01*
X119335219Y-79538134D01*
X119317976Y-79525346D01*
X119302070Y-79510930D01*
X119287654Y-79495024D01*
X119274866Y-79477781D01*
X119263830Y-79459368D01*
X119254651Y-79439962D01*
X119247419Y-79419750D01*
X119242203Y-79398926D01*
X119239053Y-79377691D01*
X119238000Y-79356250D01*
X119238000Y-78843750D01*
X119239053Y-78822309D01*
X119242203Y-78801074D01*
X119247419Y-78780250D01*
X119254651Y-78760038D01*
X119263830Y-78740632D01*
X119274866Y-78722219D01*
X119287654Y-78704976D01*
X119302070Y-78689070D01*
X119317976Y-78674654D01*
X119335219Y-78661866D01*
X119353632Y-78650830D01*
X119373038Y-78641651D01*
X119393250Y-78634419D01*
X119414074Y-78629203D01*
X119435309Y-78626053D01*
X119456750Y-78625000D01*
X119894250Y-78625000D01*
X119915691Y-78626053D01*
X119915691Y-78626053D01*
G37*
D14*
X119675500Y-79100000D03*
D12*
G36*
X118340691Y-78626053D02*
G01*
X118361926Y-78629203D01*
X118382750Y-78634419D01*
X118402962Y-78641651D01*
X118422368Y-78650830D01*
X118440781Y-78661866D01*
X118458024Y-78674654D01*
X118473930Y-78689070D01*
X118488346Y-78704976D01*
X118501134Y-78722219D01*
X118512170Y-78740632D01*
X118521349Y-78760038D01*
X118528581Y-78780250D01*
X118533797Y-78801074D01*
X118536947Y-78822309D01*
X118538000Y-78843750D01*
X118538000Y-79356250D01*
X118536947Y-79377691D01*
X118533797Y-79398926D01*
X118528581Y-79419750D01*
X118521349Y-79439962D01*
X118512170Y-79459368D01*
X118501134Y-79477781D01*
X118488346Y-79495024D01*
X118473930Y-79510930D01*
X118458024Y-79525346D01*
X118440781Y-79538134D01*
X118422368Y-79549170D01*
X118402962Y-79558349D01*
X118382750Y-79565581D01*
X118361926Y-79570797D01*
X118340691Y-79573947D01*
X118319250Y-79575000D01*
X117881750Y-79575000D01*
X117860309Y-79573947D01*
X117839074Y-79570797D01*
X117818250Y-79565581D01*
X117798038Y-79558349D01*
X117778632Y-79549170D01*
X117760219Y-79538134D01*
X117742976Y-79525346D01*
X117727070Y-79510930D01*
X117712654Y-79495024D01*
X117699866Y-79477781D01*
X117688830Y-79459368D01*
X117679651Y-79439962D01*
X117672419Y-79419750D01*
X117667203Y-79398926D01*
X117664053Y-79377691D01*
X117663000Y-79356250D01*
X117663000Y-78843750D01*
X117664053Y-78822309D01*
X117667203Y-78801074D01*
X117672419Y-78780250D01*
X117679651Y-78760038D01*
X117688830Y-78740632D01*
X117699866Y-78722219D01*
X117712654Y-78704976D01*
X117727070Y-78689070D01*
X117742976Y-78674654D01*
X117760219Y-78661866D01*
X117778632Y-78650830D01*
X117798038Y-78641651D01*
X117818250Y-78634419D01*
X117839074Y-78629203D01*
X117860309Y-78626053D01*
X117881750Y-78625000D01*
X118319250Y-78625000D01*
X118340691Y-78626053D01*
X118340691Y-78626053D01*
G37*
D14*
X118100500Y-79100000D03*
M02*
