G04 #@! TF.GenerationSoftware,KiCad,Pcbnew,(5.1.2)-1*
G04 #@! TF.CreationDate,2021-06-05T09:35:00+09:00*
G04 #@! TF.ProjectId,cs,63732e6b-6963-4616-945f-706362585858,v3.3*
G04 #@! TF.SameCoordinates,Original*
G04 #@! TF.FileFunction,Soldermask,Top*
G04 #@! TF.FilePolarity,Negative*
%FSLAX46Y46*%
G04 Gerber Fmt 4.6, Leading zero omitted, Abs format (unit mm)*
G04 Created by KiCad (PCBNEW (5.1.2)-1) date 2021-06-05 09:35:00*
%MOMM*%
%LPD*%
G04 APERTURE LIST*
%ADD10C,0.100000*%
G04 APERTURE END LIST*
D10*
G36*
X130429591Y-86778085D02*
G01*
X130463569Y-86788393D01*
X130494890Y-86805134D01*
X130522339Y-86827661D01*
X130544866Y-86855110D01*
X130561607Y-86886431D01*
X130571915Y-86920409D01*
X130576000Y-86961890D01*
X130576000Y-87638110D01*
X130571915Y-87679591D01*
X130561607Y-87713569D01*
X130544866Y-87744890D01*
X130522339Y-87772339D01*
X130494890Y-87794866D01*
X130463569Y-87811607D01*
X130429591Y-87821915D01*
X130388110Y-87826000D01*
X129786890Y-87826000D01*
X129745409Y-87821915D01*
X129711431Y-87811607D01*
X129680110Y-87794866D01*
X129652661Y-87772339D01*
X129630134Y-87744890D01*
X129613393Y-87713569D01*
X129603085Y-87679591D01*
X129599000Y-87638110D01*
X129599000Y-86961890D01*
X129603085Y-86920409D01*
X129613393Y-86886431D01*
X129630134Y-86855110D01*
X129652661Y-86827661D01*
X129680110Y-86805134D01*
X129711431Y-86788393D01*
X129745409Y-86778085D01*
X129786890Y-86774000D01*
X130388110Y-86774000D01*
X130429591Y-86778085D01*
X130429591Y-86778085D01*
G37*
G36*
X128854591Y-86778085D02*
G01*
X128888569Y-86788393D01*
X128919890Y-86805134D01*
X128947339Y-86827661D01*
X128969866Y-86855110D01*
X128986607Y-86886431D01*
X128996915Y-86920409D01*
X129001000Y-86961890D01*
X129001000Y-87638110D01*
X128996915Y-87679591D01*
X128986607Y-87713569D01*
X128969866Y-87744890D01*
X128947339Y-87772339D01*
X128919890Y-87794866D01*
X128888569Y-87811607D01*
X128854591Y-87821915D01*
X128813110Y-87826000D01*
X128211890Y-87826000D01*
X128170409Y-87821915D01*
X128136431Y-87811607D01*
X128105110Y-87794866D01*
X128077661Y-87772339D01*
X128055134Y-87744890D01*
X128038393Y-87713569D01*
X128028085Y-87679591D01*
X128024000Y-87638110D01*
X128024000Y-86961890D01*
X128028085Y-86920409D01*
X128038393Y-86886431D01*
X128055134Y-86855110D01*
X128077661Y-86827661D01*
X128105110Y-86805134D01*
X128136431Y-86788393D01*
X128170409Y-86778085D01*
X128211890Y-86774000D01*
X128813110Y-86774000D01*
X128854591Y-86778085D01*
X128854591Y-86778085D01*
G37*
G36*
X126051000Y-87726000D02*
G01*
X123549000Y-87726000D01*
X123549000Y-86174000D01*
X126051000Y-86174000D01*
X126051000Y-87726000D01*
X126051000Y-87726000D01*
G37*
G36*
X120748050Y-87200550D02*
G01*
X119348110Y-87200550D01*
X119348110Y-85699010D01*
X120748050Y-85699010D01*
X120748050Y-87200550D01*
X120748050Y-87200550D01*
G37*
G36*
X118451890Y-87200550D02*
G01*
X117051950Y-87200550D01*
X117051950Y-85699010D01*
X118451890Y-85699010D01*
X118451890Y-87200550D01*
X118451890Y-87200550D01*
G37*
G36*
X116048050Y-87198850D02*
G01*
X114648110Y-87198850D01*
X114648110Y-85697310D01*
X116048050Y-85697310D01*
X116048050Y-87198850D01*
X116048050Y-87198850D01*
G37*
G36*
X113751890Y-87198850D02*
G01*
X112351950Y-87198850D01*
X112351950Y-85697310D01*
X113751890Y-85697310D01*
X113751890Y-87198850D01*
X113751890Y-87198850D01*
G37*
G36*
X122060721Y-85370174D02*
G01*
X122160995Y-85411709D01*
X122160996Y-85411710D01*
X122251242Y-85472010D01*
X122327990Y-85548758D01*
X122327991Y-85548760D01*
X122388291Y-85639005D01*
X122429826Y-85739279D01*
X122451000Y-85845730D01*
X122451000Y-85954270D01*
X122429826Y-86060721D01*
X122388291Y-86160995D01*
X122388290Y-86160996D01*
X122327990Y-86251242D01*
X122251242Y-86327990D01*
X122205812Y-86358345D01*
X122160995Y-86388291D01*
X122060721Y-86429826D01*
X121954270Y-86451000D01*
X121845730Y-86451000D01*
X121739279Y-86429826D01*
X121639005Y-86388291D01*
X121594188Y-86358345D01*
X121548758Y-86327990D01*
X121472010Y-86251242D01*
X121411710Y-86160996D01*
X121411709Y-86160995D01*
X121370174Y-86060721D01*
X121349000Y-85954270D01*
X121349000Y-85845730D01*
X121370174Y-85739279D01*
X121411709Y-85639005D01*
X121472009Y-85548760D01*
X121472010Y-85548758D01*
X121548758Y-85472010D01*
X121639004Y-85411710D01*
X121639005Y-85411709D01*
X121739279Y-85370174D01*
X121845730Y-85349000D01*
X121954270Y-85349000D01*
X122060721Y-85370174D01*
X122060721Y-85370174D01*
G37*
G36*
X128854591Y-85078085D02*
G01*
X128888569Y-85088393D01*
X128919890Y-85105134D01*
X128947339Y-85127661D01*
X128969866Y-85155110D01*
X128986607Y-85186431D01*
X128996915Y-85220409D01*
X129001000Y-85261890D01*
X129001000Y-85938110D01*
X128996915Y-85979591D01*
X128986607Y-86013569D01*
X128969866Y-86044890D01*
X128947339Y-86072339D01*
X128919890Y-86094866D01*
X128888569Y-86111607D01*
X128854591Y-86121915D01*
X128813110Y-86126000D01*
X128211890Y-86126000D01*
X128170409Y-86121915D01*
X128136431Y-86111607D01*
X128105110Y-86094866D01*
X128077661Y-86072339D01*
X128055134Y-86044890D01*
X128038393Y-86013569D01*
X128028085Y-85979591D01*
X128024000Y-85938110D01*
X128024000Y-85261890D01*
X128028085Y-85220409D01*
X128038393Y-85186431D01*
X128055134Y-85155110D01*
X128077661Y-85127661D01*
X128105110Y-85105134D01*
X128136431Y-85088393D01*
X128170409Y-85078085D01*
X128211890Y-85074000D01*
X128813110Y-85074000D01*
X128854591Y-85078085D01*
X128854591Y-85078085D01*
G37*
G36*
X130429591Y-85078085D02*
G01*
X130463569Y-85088393D01*
X130494890Y-85105134D01*
X130522339Y-85127661D01*
X130544866Y-85155110D01*
X130561607Y-85186431D01*
X130571915Y-85220409D01*
X130576000Y-85261890D01*
X130576000Y-85938110D01*
X130571915Y-85979591D01*
X130561607Y-86013569D01*
X130544866Y-86044890D01*
X130522339Y-86072339D01*
X130494890Y-86094866D01*
X130463569Y-86111607D01*
X130429591Y-86121915D01*
X130388110Y-86126000D01*
X129786890Y-86126000D01*
X129745409Y-86121915D01*
X129711431Y-86111607D01*
X129680110Y-86094866D01*
X129652661Y-86072339D01*
X129630134Y-86044890D01*
X129613393Y-86013569D01*
X129603085Y-85979591D01*
X129599000Y-85938110D01*
X129599000Y-85261890D01*
X129603085Y-85220409D01*
X129613393Y-85186431D01*
X129630134Y-85155110D01*
X129652661Y-85127661D01*
X129680110Y-85105134D01*
X129711431Y-85088393D01*
X129745409Y-85078085D01*
X129786890Y-85074000D01*
X130388110Y-85074000D01*
X130429591Y-85078085D01*
X130429591Y-85078085D01*
G37*
G36*
X120100350Y-83401980D02*
G01*
X117699650Y-83401980D01*
X117699650Y-81801380D01*
X120100350Y-81801380D01*
X120100350Y-83401980D01*
X120100350Y-83401980D01*
G37*
G36*
X115400350Y-83400280D02*
G01*
X112999650Y-83400280D01*
X112999650Y-81799680D01*
X115400350Y-81799680D01*
X115400350Y-83400280D01*
X115400350Y-83400280D01*
G37*
G36*
X122279591Y-81790585D02*
G01*
X122313569Y-81800893D01*
X122344890Y-81817634D01*
X122372339Y-81840161D01*
X122394866Y-81867610D01*
X122411607Y-81898931D01*
X122421915Y-81932909D01*
X122426000Y-81974390D01*
X122426000Y-82575610D01*
X122421915Y-82617091D01*
X122411607Y-82651069D01*
X122394866Y-82682390D01*
X122372339Y-82709839D01*
X122344890Y-82732366D01*
X122313569Y-82749107D01*
X122279591Y-82759415D01*
X122238110Y-82763500D01*
X121561890Y-82763500D01*
X121520409Y-82759415D01*
X121486431Y-82749107D01*
X121455110Y-82732366D01*
X121427661Y-82709839D01*
X121405134Y-82682390D01*
X121388393Y-82651069D01*
X121378085Y-82617091D01*
X121374000Y-82575610D01*
X121374000Y-81974390D01*
X121378085Y-81932909D01*
X121388393Y-81898931D01*
X121405134Y-81867610D01*
X121427661Y-81840161D01*
X121455110Y-81817634D01*
X121486431Y-81800893D01*
X121520409Y-81790585D01*
X121561890Y-81786500D01*
X122238110Y-81786500D01*
X122279591Y-81790585D01*
X122279591Y-81790585D01*
G37*
G36*
X126051000Y-81826000D02*
G01*
X123549000Y-81826000D01*
X123549000Y-80274000D01*
X126051000Y-80274000D01*
X126051000Y-81826000D01*
X126051000Y-81826000D01*
G37*
G36*
X116066591Y-80178085D02*
G01*
X116100569Y-80188393D01*
X116131890Y-80205134D01*
X116159339Y-80227661D01*
X116181866Y-80255110D01*
X116198607Y-80286431D01*
X116208915Y-80320409D01*
X116213000Y-80361890D01*
X116213000Y-81038110D01*
X116208915Y-81079591D01*
X116198607Y-81113569D01*
X116181866Y-81144890D01*
X116159339Y-81172339D01*
X116131890Y-81194866D01*
X116100569Y-81211607D01*
X116066591Y-81221915D01*
X116025110Y-81226000D01*
X115423890Y-81226000D01*
X115382409Y-81221915D01*
X115348431Y-81211607D01*
X115317110Y-81194866D01*
X115289661Y-81172339D01*
X115267134Y-81144890D01*
X115250393Y-81113569D01*
X115240085Y-81079591D01*
X115236000Y-81038110D01*
X115236000Y-80361890D01*
X115240085Y-80320409D01*
X115250393Y-80286431D01*
X115267134Y-80255110D01*
X115289661Y-80227661D01*
X115317110Y-80205134D01*
X115348431Y-80188393D01*
X115382409Y-80178085D01*
X115423890Y-80174000D01*
X116025110Y-80174000D01*
X116066591Y-80178085D01*
X116066591Y-80178085D01*
G37*
G36*
X117641591Y-80178085D02*
G01*
X117675569Y-80188393D01*
X117706890Y-80205134D01*
X117734339Y-80227661D01*
X117756866Y-80255110D01*
X117773607Y-80286431D01*
X117783915Y-80320409D01*
X117788000Y-80361890D01*
X117788000Y-81038110D01*
X117783915Y-81079591D01*
X117773607Y-81113569D01*
X117756866Y-81144890D01*
X117734339Y-81172339D01*
X117706890Y-81194866D01*
X117675569Y-81211607D01*
X117641591Y-81221915D01*
X117600110Y-81226000D01*
X116998890Y-81226000D01*
X116957409Y-81221915D01*
X116923431Y-81211607D01*
X116892110Y-81194866D01*
X116864661Y-81172339D01*
X116842134Y-81144890D01*
X116825393Y-81113569D01*
X116815085Y-81079591D01*
X116811000Y-81038110D01*
X116811000Y-80361890D01*
X116815085Y-80320409D01*
X116825393Y-80286431D01*
X116842134Y-80255110D01*
X116864661Y-80227661D01*
X116892110Y-80205134D01*
X116923431Y-80188393D01*
X116957409Y-80178085D01*
X116998890Y-80174000D01*
X117600110Y-80174000D01*
X117641591Y-80178085D01*
X117641591Y-80178085D01*
G37*
G36*
X122279591Y-80215585D02*
G01*
X122313569Y-80225893D01*
X122344890Y-80242634D01*
X122372339Y-80265161D01*
X122394866Y-80292610D01*
X122411607Y-80323931D01*
X122421915Y-80357909D01*
X122426000Y-80399390D01*
X122426000Y-81000610D01*
X122421915Y-81042091D01*
X122411607Y-81076069D01*
X122394866Y-81107390D01*
X122372339Y-81134839D01*
X122344890Y-81157366D01*
X122313569Y-81174107D01*
X122279591Y-81184415D01*
X122238110Y-81188500D01*
X121561890Y-81188500D01*
X121520409Y-81184415D01*
X121486431Y-81174107D01*
X121455110Y-81157366D01*
X121427661Y-81134839D01*
X121405134Y-81107390D01*
X121388393Y-81076069D01*
X121378085Y-81042091D01*
X121374000Y-81000610D01*
X121374000Y-80399390D01*
X121378085Y-80357909D01*
X121388393Y-80323931D01*
X121405134Y-80292610D01*
X121427661Y-80265161D01*
X121455110Y-80242634D01*
X121486431Y-80225893D01*
X121520409Y-80215585D01*
X121561890Y-80211500D01*
X122238110Y-80211500D01*
X122279591Y-80215585D01*
X122279591Y-80215585D01*
G37*
G36*
X108124571Y-77443284D02*
G01*
X108352410Y-77488604D01*
X108634674Y-77605521D01*
X108888705Y-77775259D01*
X109104741Y-77991295D01*
X109274479Y-78245326D01*
X109391396Y-78527590D01*
X109411301Y-78627661D01*
X109451000Y-78827239D01*
X109451000Y-79132761D01*
X109440137Y-79187373D01*
X109391396Y-79432410D01*
X109274479Y-79714674D01*
X109104741Y-79968705D01*
X108888705Y-80184741D01*
X108634674Y-80354479D01*
X108352410Y-80471396D01*
X108202585Y-80501198D01*
X108052761Y-80531000D01*
X107747239Y-80531000D01*
X107597415Y-80501198D01*
X107447590Y-80471396D01*
X107165326Y-80354479D01*
X106911295Y-80184741D01*
X106695259Y-79968705D01*
X106525521Y-79714674D01*
X106408604Y-79432410D01*
X106359863Y-79187373D01*
X106349000Y-79132761D01*
X106349000Y-78827239D01*
X106388699Y-78627661D01*
X106408604Y-78527590D01*
X106525521Y-78245326D01*
X106695259Y-77991295D01*
X106911295Y-77775259D01*
X107165326Y-77605521D01*
X107447590Y-77488604D01*
X107675429Y-77443284D01*
X107747239Y-77429000D01*
X108052761Y-77429000D01*
X108124571Y-77443284D01*
X108124571Y-77443284D01*
G37*
G36*
X128417747Y-78690921D02*
G01*
X128497376Y-78698764D01*
X128650627Y-78745252D01*
X128650630Y-78745253D01*
X128791863Y-78820744D01*
X128915659Y-78922341D01*
X129017256Y-79046137D01*
X129092747Y-79187370D01*
X129092748Y-79187373D01*
X129139236Y-79340624D01*
X129154933Y-79500000D01*
X129139236Y-79659376D01*
X129092748Y-79812627D01*
X129092747Y-79812630D01*
X129017256Y-79953863D01*
X128915659Y-80077659D01*
X128791863Y-80179256D01*
X128650630Y-80254747D01*
X128650627Y-80254748D01*
X128497376Y-80301236D01*
X128417747Y-80309079D01*
X128377934Y-80313000D01*
X128022066Y-80313000D01*
X127982253Y-80309079D01*
X127902624Y-80301236D01*
X127749373Y-80254748D01*
X127749370Y-80254747D01*
X127608137Y-80179256D01*
X127484341Y-80077659D01*
X127382744Y-79953863D01*
X127307253Y-79812630D01*
X127307252Y-79812627D01*
X127260764Y-79659376D01*
X127245067Y-79500000D01*
X127260764Y-79340624D01*
X127307252Y-79187373D01*
X127307253Y-79187370D01*
X127382744Y-79046137D01*
X127484341Y-78922341D01*
X127608137Y-78820744D01*
X127749370Y-78745253D01*
X127749373Y-78745252D01*
X127902624Y-78698764D01*
X127982253Y-78690921D01*
X128022066Y-78687000D01*
X128377934Y-78687000D01*
X128417747Y-78690921D01*
X128417747Y-78690921D01*
G37*
G36*
X118442591Y-78578085D02*
G01*
X118476569Y-78588393D01*
X118507890Y-78605134D01*
X118535339Y-78627661D01*
X118557866Y-78655110D01*
X118574607Y-78686431D01*
X118584915Y-78720409D01*
X118589000Y-78761890D01*
X118589000Y-79438110D01*
X118584915Y-79479591D01*
X118574607Y-79513569D01*
X118557866Y-79544890D01*
X118535339Y-79572339D01*
X118507890Y-79594866D01*
X118476569Y-79611607D01*
X118442591Y-79621915D01*
X118401110Y-79626000D01*
X117799890Y-79626000D01*
X117758409Y-79621915D01*
X117724431Y-79611607D01*
X117693110Y-79594866D01*
X117665661Y-79572339D01*
X117643134Y-79544890D01*
X117626393Y-79513569D01*
X117616085Y-79479591D01*
X117612000Y-79438110D01*
X117612000Y-78761890D01*
X117616085Y-78720409D01*
X117626393Y-78686431D01*
X117643134Y-78655110D01*
X117665661Y-78627661D01*
X117693110Y-78605134D01*
X117724431Y-78588393D01*
X117758409Y-78578085D01*
X117799890Y-78574000D01*
X118401110Y-78574000D01*
X118442591Y-78578085D01*
X118442591Y-78578085D01*
G37*
G36*
X120017591Y-78578085D02*
G01*
X120051569Y-78588393D01*
X120082890Y-78605134D01*
X120110339Y-78627661D01*
X120132866Y-78655110D01*
X120149607Y-78686431D01*
X120159915Y-78720409D01*
X120164000Y-78761890D01*
X120164000Y-79438110D01*
X120159915Y-79479591D01*
X120149607Y-79513569D01*
X120132866Y-79544890D01*
X120110339Y-79572339D01*
X120082890Y-79594866D01*
X120051569Y-79611607D01*
X120017591Y-79621915D01*
X119976110Y-79626000D01*
X119374890Y-79626000D01*
X119333409Y-79621915D01*
X119299431Y-79611607D01*
X119268110Y-79594866D01*
X119240661Y-79572339D01*
X119218134Y-79544890D01*
X119201393Y-79513569D01*
X119191085Y-79479591D01*
X119187000Y-79438110D01*
X119187000Y-78761890D01*
X119191085Y-78720409D01*
X119201393Y-78686431D01*
X119218134Y-78655110D01*
X119240661Y-78627661D01*
X119268110Y-78605134D01*
X119299431Y-78588393D01*
X119333409Y-78578085D01*
X119374890Y-78574000D01*
X119976110Y-78574000D01*
X120017591Y-78578085D01*
X120017591Y-78578085D01*
G37*
G36*
X128417747Y-76690921D02*
G01*
X128497376Y-76698764D01*
X128650627Y-76745252D01*
X128650630Y-76745253D01*
X128791863Y-76820744D01*
X128915659Y-76922341D01*
X129017256Y-77046137D01*
X129092747Y-77187370D01*
X129092748Y-77187373D01*
X129139236Y-77340624D01*
X129154933Y-77500000D01*
X129139236Y-77659376D01*
X129104083Y-77775259D01*
X129092747Y-77812630D01*
X129017256Y-77953863D01*
X128915659Y-78077659D01*
X128791863Y-78179256D01*
X128650630Y-78254747D01*
X128650627Y-78254748D01*
X128497376Y-78301236D01*
X128417747Y-78309079D01*
X128377934Y-78313000D01*
X128022066Y-78313000D01*
X127982253Y-78309079D01*
X127902624Y-78301236D01*
X127749373Y-78254748D01*
X127749370Y-78254747D01*
X127608137Y-78179256D01*
X127484341Y-78077659D01*
X127382744Y-77953863D01*
X127307253Y-77812630D01*
X127295917Y-77775259D01*
X127260764Y-77659376D01*
X127245067Y-77500000D01*
X127260764Y-77340624D01*
X127307252Y-77187373D01*
X127307253Y-77187370D01*
X127382744Y-77046137D01*
X127484341Y-76922341D01*
X127608137Y-76820744D01*
X127749370Y-76745253D01*
X127749373Y-76745252D01*
X127902624Y-76698764D01*
X127982253Y-76690921D01*
X128022066Y-76687000D01*
X128377934Y-76687000D01*
X128417747Y-76690921D01*
X128417747Y-76690921D01*
G37*
G36*
X120017591Y-76978085D02*
G01*
X120051569Y-76988393D01*
X120082890Y-77005134D01*
X120110339Y-77027661D01*
X120132866Y-77055110D01*
X120149607Y-77086431D01*
X120159915Y-77120409D01*
X120164000Y-77161890D01*
X120164000Y-77838110D01*
X120159915Y-77879591D01*
X120149607Y-77913569D01*
X120132866Y-77944890D01*
X120110339Y-77972339D01*
X120082890Y-77994866D01*
X120051569Y-78011607D01*
X120017591Y-78021915D01*
X119976110Y-78026000D01*
X119374890Y-78026000D01*
X119333409Y-78021915D01*
X119299431Y-78011607D01*
X119268110Y-77994866D01*
X119240661Y-77972339D01*
X119218134Y-77944890D01*
X119201393Y-77913569D01*
X119191085Y-77879591D01*
X119187000Y-77838110D01*
X119187000Y-77161890D01*
X119191085Y-77120409D01*
X119201393Y-77086431D01*
X119218134Y-77055110D01*
X119240661Y-77027661D01*
X119268110Y-77005134D01*
X119299431Y-76988393D01*
X119333409Y-76978085D01*
X119374890Y-76974000D01*
X119976110Y-76974000D01*
X120017591Y-76978085D01*
X120017591Y-76978085D01*
G37*
G36*
X121742591Y-76978085D02*
G01*
X121776569Y-76988393D01*
X121807890Y-77005134D01*
X121835339Y-77027661D01*
X121857866Y-77055110D01*
X121874607Y-77086431D01*
X121884915Y-77120409D01*
X121889000Y-77161890D01*
X121889000Y-77838110D01*
X121884915Y-77879591D01*
X121874607Y-77913569D01*
X121857866Y-77944890D01*
X121835339Y-77972339D01*
X121807890Y-77994866D01*
X121776569Y-78011607D01*
X121742591Y-78021915D01*
X121701110Y-78026000D01*
X121099890Y-78026000D01*
X121058409Y-78021915D01*
X121024431Y-78011607D01*
X120993110Y-77994866D01*
X120965661Y-77972339D01*
X120943134Y-77944890D01*
X120926393Y-77913569D01*
X120916085Y-77879591D01*
X120912000Y-77838110D01*
X120912000Y-77161890D01*
X120916085Y-77120409D01*
X120926393Y-77086431D01*
X120943134Y-77055110D01*
X120965661Y-77027661D01*
X120993110Y-77005134D01*
X121024431Y-76988393D01*
X121058409Y-76978085D01*
X121099890Y-76974000D01*
X121701110Y-76974000D01*
X121742591Y-76978085D01*
X121742591Y-76978085D01*
G37*
G36*
X123317591Y-76978085D02*
G01*
X123351569Y-76988393D01*
X123382890Y-77005134D01*
X123410339Y-77027661D01*
X123432866Y-77055110D01*
X123449607Y-77086431D01*
X123459915Y-77120409D01*
X123464000Y-77161890D01*
X123464000Y-77838110D01*
X123459915Y-77879591D01*
X123449607Y-77913569D01*
X123432866Y-77944890D01*
X123410339Y-77972339D01*
X123382890Y-77994866D01*
X123351569Y-78011607D01*
X123317591Y-78021915D01*
X123276110Y-78026000D01*
X122674890Y-78026000D01*
X122633409Y-78021915D01*
X122599431Y-78011607D01*
X122568110Y-77994866D01*
X122540661Y-77972339D01*
X122518134Y-77944890D01*
X122501393Y-77913569D01*
X122491085Y-77879591D01*
X122487000Y-77838110D01*
X122487000Y-77161890D01*
X122491085Y-77120409D01*
X122501393Y-77086431D01*
X122518134Y-77055110D01*
X122540661Y-77027661D01*
X122568110Y-77005134D01*
X122599431Y-76988393D01*
X122633409Y-76978085D01*
X122674890Y-76974000D01*
X123276110Y-76974000D01*
X123317591Y-76978085D01*
X123317591Y-76978085D01*
G37*
G36*
X118442591Y-76978085D02*
G01*
X118476569Y-76988393D01*
X118507890Y-77005134D01*
X118535339Y-77027661D01*
X118557866Y-77055110D01*
X118574607Y-77086431D01*
X118584915Y-77120409D01*
X118589000Y-77161890D01*
X118589000Y-77838110D01*
X118584915Y-77879591D01*
X118574607Y-77913569D01*
X118557866Y-77944890D01*
X118535339Y-77972339D01*
X118507890Y-77994866D01*
X118476569Y-78011607D01*
X118442591Y-78021915D01*
X118401110Y-78026000D01*
X117799890Y-78026000D01*
X117758409Y-78021915D01*
X117724431Y-78011607D01*
X117693110Y-77994866D01*
X117665661Y-77972339D01*
X117643134Y-77944890D01*
X117626393Y-77913569D01*
X117616085Y-77879591D01*
X117612000Y-77838110D01*
X117612000Y-77161890D01*
X117616085Y-77120409D01*
X117626393Y-77086431D01*
X117643134Y-77055110D01*
X117665661Y-77027661D01*
X117693110Y-77005134D01*
X117724431Y-76988393D01*
X117758409Y-76978085D01*
X117799890Y-76974000D01*
X118401110Y-76974000D01*
X118442591Y-76978085D01*
X118442591Y-76978085D01*
G37*
G36*
X115179591Y-77003085D02*
G01*
X115213569Y-77013393D01*
X115244890Y-77030134D01*
X115272339Y-77052661D01*
X115294866Y-77080110D01*
X115311607Y-77111431D01*
X115321915Y-77145409D01*
X115326000Y-77186890D01*
X115326000Y-77788110D01*
X115321915Y-77829591D01*
X115311607Y-77863569D01*
X115294866Y-77894890D01*
X115272339Y-77922339D01*
X115244890Y-77944866D01*
X115213569Y-77961607D01*
X115179591Y-77971915D01*
X115138110Y-77976000D01*
X114461890Y-77976000D01*
X114420409Y-77971915D01*
X114386431Y-77961607D01*
X114355110Y-77944866D01*
X114327661Y-77922339D01*
X114305134Y-77894890D01*
X114288393Y-77863569D01*
X114278085Y-77829591D01*
X114274000Y-77788110D01*
X114274000Y-77186890D01*
X114278085Y-77145409D01*
X114288393Y-77111431D01*
X114305134Y-77080110D01*
X114327661Y-77052661D01*
X114355110Y-77030134D01*
X114386431Y-77013393D01*
X114420409Y-77003085D01*
X114461890Y-76999000D01*
X115138110Y-76999000D01*
X115179591Y-77003085D01*
X115179591Y-77003085D01*
G37*
G36*
X116879591Y-77003085D02*
G01*
X116913569Y-77013393D01*
X116944890Y-77030134D01*
X116972339Y-77052661D01*
X116994866Y-77080110D01*
X117011607Y-77111431D01*
X117021915Y-77145409D01*
X117026000Y-77186890D01*
X117026000Y-77788110D01*
X117021915Y-77829591D01*
X117011607Y-77863569D01*
X116994866Y-77894890D01*
X116972339Y-77922339D01*
X116944890Y-77944866D01*
X116913569Y-77961607D01*
X116879591Y-77971915D01*
X116838110Y-77976000D01*
X116161890Y-77976000D01*
X116120409Y-77971915D01*
X116086431Y-77961607D01*
X116055110Y-77944866D01*
X116027661Y-77922339D01*
X116005134Y-77894890D01*
X115988393Y-77863569D01*
X115978085Y-77829591D01*
X115974000Y-77788110D01*
X115974000Y-77186890D01*
X115978085Y-77145409D01*
X115988393Y-77111431D01*
X116005134Y-77080110D01*
X116027661Y-77052661D01*
X116055110Y-77030134D01*
X116086431Y-77013393D01*
X116120409Y-77003085D01*
X116161890Y-76999000D01*
X116838110Y-76999000D01*
X116879591Y-77003085D01*
X116879591Y-77003085D01*
G37*
G36*
X113681938Y-76756716D02*
G01*
X113702557Y-76762971D01*
X113721553Y-76773124D01*
X113738208Y-76786792D01*
X113751876Y-76803447D01*
X113762029Y-76822443D01*
X113768284Y-76843062D01*
X113771000Y-76870640D01*
X113771000Y-77329360D01*
X113768284Y-77356938D01*
X113762029Y-77377557D01*
X113751876Y-77396553D01*
X113738208Y-77413208D01*
X113721553Y-77426876D01*
X113702557Y-77437029D01*
X113681938Y-77443284D01*
X113654360Y-77446000D01*
X113145640Y-77446000D01*
X113118062Y-77443284D01*
X113097443Y-77437029D01*
X113078447Y-77426876D01*
X113061792Y-77413208D01*
X113048124Y-77396553D01*
X113037971Y-77377557D01*
X113031716Y-77356938D01*
X113029000Y-77329360D01*
X113029000Y-76870640D01*
X113031716Y-76843062D01*
X113037971Y-76822443D01*
X113048124Y-76803447D01*
X113061792Y-76786792D01*
X113078447Y-76773124D01*
X113097443Y-76762971D01*
X113118062Y-76756716D01*
X113145640Y-76754000D01*
X113654360Y-76754000D01*
X113681938Y-76756716D01*
X113681938Y-76756716D01*
G37*
G36*
X113681938Y-75786716D02*
G01*
X113702557Y-75792971D01*
X113721553Y-75803124D01*
X113738208Y-75816792D01*
X113751876Y-75833447D01*
X113762029Y-75852443D01*
X113768284Y-75873062D01*
X113771000Y-75900640D01*
X113771000Y-76359360D01*
X113768284Y-76386938D01*
X113762029Y-76407557D01*
X113751876Y-76426553D01*
X113738208Y-76443208D01*
X113721553Y-76456876D01*
X113702557Y-76467029D01*
X113681938Y-76473284D01*
X113654360Y-76476000D01*
X113145640Y-76476000D01*
X113118062Y-76473284D01*
X113097443Y-76467029D01*
X113078447Y-76456876D01*
X113061792Y-76443208D01*
X113048124Y-76426553D01*
X113037971Y-76407557D01*
X113031716Y-76386938D01*
X113029000Y-76359360D01*
X113029000Y-75900640D01*
X113031716Y-75873062D01*
X113037971Y-75852443D01*
X113048124Y-75833447D01*
X113061792Y-75816792D01*
X113078447Y-75803124D01*
X113097443Y-75792971D01*
X113118062Y-75786716D01*
X113145640Y-75784000D01*
X113654360Y-75784000D01*
X113681938Y-75786716D01*
X113681938Y-75786716D01*
G37*
G36*
X116879591Y-75428085D02*
G01*
X116913569Y-75438393D01*
X116944890Y-75455134D01*
X116972339Y-75477661D01*
X116994866Y-75505110D01*
X117011607Y-75536431D01*
X117021915Y-75570409D01*
X117026000Y-75611890D01*
X117026000Y-76213110D01*
X117021915Y-76254591D01*
X117011607Y-76288569D01*
X116994866Y-76319890D01*
X116972339Y-76347339D01*
X116944890Y-76369866D01*
X116913569Y-76386607D01*
X116879591Y-76396915D01*
X116838110Y-76401000D01*
X116161890Y-76401000D01*
X116120409Y-76396915D01*
X116086431Y-76386607D01*
X116055110Y-76369866D01*
X116027661Y-76347339D01*
X116005134Y-76319890D01*
X115988393Y-76288569D01*
X115978085Y-76254591D01*
X115974000Y-76213110D01*
X115974000Y-75611890D01*
X115978085Y-75570409D01*
X115988393Y-75536431D01*
X116005134Y-75505110D01*
X116027661Y-75477661D01*
X116055110Y-75455134D01*
X116086431Y-75438393D01*
X116120409Y-75428085D01*
X116161890Y-75424000D01*
X116838110Y-75424000D01*
X116879591Y-75428085D01*
X116879591Y-75428085D01*
G37*
G36*
X115179591Y-75428085D02*
G01*
X115213569Y-75438393D01*
X115244890Y-75455134D01*
X115272339Y-75477661D01*
X115294866Y-75505110D01*
X115311607Y-75536431D01*
X115321915Y-75570409D01*
X115326000Y-75611890D01*
X115326000Y-76213110D01*
X115321915Y-76254591D01*
X115311607Y-76288569D01*
X115294866Y-76319890D01*
X115272339Y-76347339D01*
X115244890Y-76369866D01*
X115213569Y-76386607D01*
X115179591Y-76396915D01*
X115138110Y-76401000D01*
X114461890Y-76401000D01*
X114420409Y-76396915D01*
X114386431Y-76386607D01*
X114355110Y-76369866D01*
X114327661Y-76347339D01*
X114305134Y-76319890D01*
X114288393Y-76288569D01*
X114278085Y-76254591D01*
X114274000Y-76213110D01*
X114274000Y-75611890D01*
X114278085Y-75570409D01*
X114288393Y-75536431D01*
X114305134Y-75505110D01*
X114327661Y-75477661D01*
X114355110Y-75455134D01*
X114386431Y-75438393D01*
X114420409Y-75428085D01*
X114461890Y-75424000D01*
X115138110Y-75424000D01*
X115179591Y-75428085D01*
X115179591Y-75428085D01*
G37*
G36*
X118479591Y-75415585D02*
G01*
X118513569Y-75425893D01*
X118544890Y-75442634D01*
X118572339Y-75465161D01*
X118594866Y-75492610D01*
X118611607Y-75523931D01*
X118621915Y-75557909D01*
X118626000Y-75599390D01*
X118626000Y-76200610D01*
X118621915Y-76242091D01*
X118611607Y-76276069D01*
X118594866Y-76307390D01*
X118572339Y-76334839D01*
X118544890Y-76357366D01*
X118513569Y-76374107D01*
X118479591Y-76384415D01*
X118438110Y-76388500D01*
X117761890Y-76388500D01*
X117720409Y-76384415D01*
X117686431Y-76374107D01*
X117655110Y-76357366D01*
X117627661Y-76334839D01*
X117605134Y-76307390D01*
X117588393Y-76276069D01*
X117578085Y-76242091D01*
X117574000Y-76200610D01*
X117574000Y-75599390D01*
X117578085Y-75557909D01*
X117588393Y-75523931D01*
X117605134Y-75492610D01*
X117627661Y-75465161D01*
X117655110Y-75442634D01*
X117686431Y-75425893D01*
X117720409Y-75415585D01*
X117761890Y-75411500D01*
X118438110Y-75411500D01*
X118479591Y-75415585D01*
X118479591Y-75415585D01*
G37*
G36*
X128417747Y-74690921D02*
G01*
X128497376Y-74698764D01*
X128639778Y-74741961D01*
X128650630Y-74745253D01*
X128791863Y-74820744D01*
X128915659Y-74922341D01*
X129017256Y-75046137D01*
X129092747Y-75187370D01*
X129092748Y-75187373D01*
X129139236Y-75340624D01*
X129154933Y-75500000D01*
X129139236Y-75659376D01*
X129097437Y-75797169D01*
X129092747Y-75812630D01*
X129017256Y-75953863D01*
X128915659Y-76077659D01*
X128791863Y-76179256D01*
X128650630Y-76254747D01*
X128650627Y-76254748D01*
X128497376Y-76301236D01*
X128417747Y-76309079D01*
X128377934Y-76313000D01*
X128022066Y-76313000D01*
X127982253Y-76309079D01*
X127902624Y-76301236D01*
X127749373Y-76254748D01*
X127749370Y-76254747D01*
X127608137Y-76179256D01*
X127484341Y-76077659D01*
X127382744Y-75953863D01*
X127307253Y-75812630D01*
X127302563Y-75797169D01*
X127260764Y-75659376D01*
X127245067Y-75500000D01*
X127260764Y-75340624D01*
X127307252Y-75187373D01*
X127307253Y-75187370D01*
X127382744Y-75046137D01*
X127484341Y-74922341D01*
X127608137Y-74820744D01*
X127749370Y-74745253D01*
X127760222Y-74741961D01*
X127902624Y-74698764D01*
X127982253Y-74690921D01*
X128022066Y-74687000D01*
X128377934Y-74687000D01*
X128417747Y-74690921D01*
X128417747Y-74690921D01*
G37*
G36*
X121781000Y-75826000D02*
G01*
X120619000Y-75826000D01*
X120619000Y-73174000D01*
X121781000Y-73174000D01*
X121781000Y-75826000D01*
X121781000Y-75826000D01*
G37*
G36*
X123981000Y-75826000D02*
G01*
X122819000Y-75826000D01*
X122819000Y-75074000D01*
X123981000Y-75074000D01*
X123981000Y-75826000D01*
X123981000Y-75826000D01*
G37*
G36*
X109451000Y-75451000D02*
G01*
X106349000Y-75451000D01*
X106349000Y-72349000D01*
X109451000Y-72349000D01*
X109451000Y-75451000D01*
X109451000Y-75451000D01*
G37*
G36*
X118479591Y-73840585D02*
G01*
X118513569Y-73850893D01*
X118544890Y-73867634D01*
X118572339Y-73890161D01*
X118594866Y-73917610D01*
X118611607Y-73948931D01*
X118621915Y-73982909D01*
X118626000Y-74024390D01*
X118626000Y-74625610D01*
X118621915Y-74667091D01*
X118611607Y-74701069D01*
X118594866Y-74732390D01*
X118572339Y-74759839D01*
X118544890Y-74782366D01*
X118513569Y-74799107D01*
X118479591Y-74809415D01*
X118438110Y-74813500D01*
X117761890Y-74813500D01*
X117720409Y-74809415D01*
X117686431Y-74799107D01*
X117655110Y-74782366D01*
X117627661Y-74759839D01*
X117605134Y-74732390D01*
X117588393Y-74701069D01*
X117578085Y-74667091D01*
X117574000Y-74625610D01*
X117574000Y-74024390D01*
X117578085Y-73982909D01*
X117588393Y-73948931D01*
X117605134Y-73917610D01*
X117627661Y-73890161D01*
X117655110Y-73867634D01*
X117686431Y-73850893D01*
X117720409Y-73840585D01*
X117761890Y-73836500D01*
X118438110Y-73836500D01*
X118479591Y-73840585D01*
X118479591Y-73840585D01*
G37*
G36*
X128417747Y-72690921D02*
G01*
X128497376Y-72698764D01*
X128650627Y-72745252D01*
X128650630Y-72745253D01*
X128791863Y-72820744D01*
X128915659Y-72922341D01*
X129017256Y-73046137D01*
X129092747Y-73187370D01*
X129092748Y-73187373D01*
X129139236Y-73340624D01*
X129154933Y-73500000D01*
X129139236Y-73659376D01*
X129092748Y-73812627D01*
X129092747Y-73812630D01*
X129017256Y-73953863D01*
X128915659Y-74077659D01*
X128791863Y-74179256D01*
X128650630Y-74254747D01*
X128650627Y-74254748D01*
X128497376Y-74301236D01*
X128417747Y-74309079D01*
X128377934Y-74313000D01*
X128022066Y-74313000D01*
X127982253Y-74309079D01*
X127902624Y-74301236D01*
X127749373Y-74254748D01*
X127749370Y-74254747D01*
X127608137Y-74179256D01*
X127484341Y-74077659D01*
X127382744Y-73953863D01*
X127307253Y-73812630D01*
X127307252Y-73812627D01*
X127260764Y-73659376D01*
X127245067Y-73500000D01*
X127260764Y-73340624D01*
X127307252Y-73187373D01*
X127307253Y-73187370D01*
X127382744Y-73046137D01*
X127484341Y-72922341D01*
X127608137Y-72820744D01*
X127749370Y-72745253D01*
X127749373Y-72745252D01*
X127902624Y-72698764D01*
X127982253Y-72690921D01*
X128022066Y-72687000D01*
X128377934Y-72687000D01*
X128417747Y-72690921D01*
X128417747Y-72690921D01*
G37*
G36*
X123981000Y-73926000D02*
G01*
X122819000Y-73926000D01*
X122819000Y-73174000D01*
X123981000Y-73174000D01*
X123981000Y-73926000D01*
X123981000Y-73926000D01*
G37*
G36*
X115241591Y-71678085D02*
G01*
X115275569Y-71688393D01*
X115306890Y-71705134D01*
X115334339Y-71727661D01*
X115356866Y-71755110D01*
X115373607Y-71786431D01*
X115383915Y-71820409D01*
X115388000Y-71861890D01*
X115388000Y-72538110D01*
X115383915Y-72579591D01*
X115373607Y-72613569D01*
X115356866Y-72644890D01*
X115334339Y-72672339D01*
X115306890Y-72694866D01*
X115275569Y-72711607D01*
X115241591Y-72721915D01*
X115200110Y-72726000D01*
X114598890Y-72726000D01*
X114557409Y-72721915D01*
X114523431Y-72711607D01*
X114492110Y-72694866D01*
X114464661Y-72672339D01*
X114442134Y-72644890D01*
X114425393Y-72613569D01*
X114415085Y-72579591D01*
X114411000Y-72538110D01*
X114411000Y-71861890D01*
X114415085Y-71820409D01*
X114425393Y-71786431D01*
X114442134Y-71755110D01*
X114464661Y-71727661D01*
X114492110Y-71705134D01*
X114523431Y-71688393D01*
X114557409Y-71678085D01*
X114598890Y-71674000D01*
X115200110Y-71674000D01*
X115241591Y-71678085D01*
X115241591Y-71678085D01*
G37*
G36*
X113666591Y-71678085D02*
G01*
X113700569Y-71688393D01*
X113731890Y-71705134D01*
X113759339Y-71727661D01*
X113781866Y-71755110D01*
X113798607Y-71786431D01*
X113808915Y-71820409D01*
X113813000Y-71861890D01*
X113813000Y-72538110D01*
X113808915Y-72579591D01*
X113798607Y-72613569D01*
X113781866Y-72644890D01*
X113759339Y-72672339D01*
X113731890Y-72694866D01*
X113700569Y-72711607D01*
X113666591Y-72721915D01*
X113625110Y-72726000D01*
X113023890Y-72726000D01*
X112982409Y-72721915D01*
X112948431Y-72711607D01*
X112917110Y-72694866D01*
X112889661Y-72672339D01*
X112867134Y-72644890D01*
X112850393Y-72613569D01*
X112840085Y-72579591D01*
X112836000Y-72538110D01*
X112836000Y-71861890D01*
X112840085Y-71820409D01*
X112850393Y-71786431D01*
X112867134Y-71755110D01*
X112889661Y-71727661D01*
X112917110Y-71705134D01*
X112948431Y-71688393D01*
X112982409Y-71678085D01*
X113023890Y-71674000D01*
X113625110Y-71674000D01*
X113666591Y-71678085D01*
X113666591Y-71678085D01*
G37*
G36*
X121542591Y-71378085D02*
G01*
X121576569Y-71388393D01*
X121607890Y-71405134D01*
X121635339Y-71427661D01*
X121657866Y-71455110D01*
X121674607Y-71486431D01*
X121684915Y-71520409D01*
X121689000Y-71561890D01*
X121689000Y-72238110D01*
X121684915Y-72279591D01*
X121674607Y-72313569D01*
X121657866Y-72344890D01*
X121635339Y-72372339D01*
X121607890Y-72394866D01*
X121576569Y-72411607D01*
X121542591Y-72421915D01*
X121501110Y-72426000D01*
X120899890Y-72426000D01*
X120858409Y-72421915D01*
X120824431Y-72411607D01*
X120793110Y-72394866D01*
X120765661Y-72372339D01*
X120743134Y-72344890D01*
X120726393Y-72313569D01*
X120716085Y-72279591D01*
X120712000Y-72238110D01*
X120712000Y-71561890D01*
X120716085Y-71520409D01*
X120726393Y-71486431D01*
X120743134Y-71455110D01*
X120765661Y-71427661D01*
X120793110Y-71405134D01*
X120824431Y-71388393D01*
X120858409Y-71378085D01*
X120899890Y-71374000D01*
X121501110Y-71374000D01*
X121542591Y-71378085D01*
X121542591Y-71378085D01*
G37*
G36*
X123117591Y-71378085D02*
G01*
X123151569Y-71388393D01*
X123182890Y-71405134D01*
X123210339Y-71427661D01*
X123232866Y-71455110D01*
X123249607Y-71486431D01*
X123259915Y-71520409D01*
X123264000Y-71561890D01*
X123264000Y-72238110D01*
X123259915Y-72279591D01*
X123249607Y-72313569D01*
X123232866Y-72344890D01*
X123210339Y-72372339D01*
X123182890Y-72394866D01*
X123151569Y-72411607D01*
X123117591Y-72421915D01*
X123076110Y-72426000D01*
X122474890Y-72426000D01*
X122433409Y-72421915D01*
X122399431Y-72411607D01*
X122368110Y-72394866D01*
X122340661Y-72372339D01*
X122318134Y-72344890D01*
X122301393Y-72313569D01*
X122291085Y-72279591D01*
X122287000Y-72238110D01*
X122287000Y-71561890D01*
X122291085Y-71520409D01*
X122301393Y-71486431D01*
X122318134Y-71455110D01*
X122340661Y-71427661D01*
X122368110Y-71405134D01*
X122399431Y-71388393D01*
X122433409Y-71378085D01*
X122474890Y-71374000D01*
X123076110Y-71374000D01*
X123117591Y-71378085D01*
X123117591Y-71378085D01*
G37*
G36*
X115217591Y-70078085D02*
G01*
X115251569Y-70088393D01*
X115282890Y-70105134D01*
X115310339Y-70127661D01*
X115332866Y-70155110D01*
X115349607Y-70186431D01*
X115359915Y-70220409D01*
X115364000Y-70261890D01*
X115364000Y-70938110D01*
X115359915Y-70979591D01*
X115349607Y-71013569D01*
X115332866Y-71044890D01*
X115310339Y-71072339D01*
X115282890Y-71094866D01*
X115251569Y-71111607D01*
X115217591Y-71121915D01*
X115176110Y-71126000D01*
X114574890Y-71126000D01*
X114533409Y-71121915D01*
X114499431Y-71111607D01*
X114468110Y-71094866D01*
X114440661Y-71072339D01*
X114418134Y-71044890D01*
X114401393Y-71013569D01*
X114391085Y-70979591D01*
X114387000Y-70938110D01*
X114387000Y-70261890D01*
X114391085Y-70220409D01*
X114401393Y-70186431D01*
X114418134Y-70155110D01*
X114440661Y-70127661D01*
X114468110Y-70105134D01*
X114499431Y-70088393D01*
X114533409Y-70078085D01*
X114574890Y-70074000D01*
X115176110Y-70074000D01*
X115217591Y-70078085D01*
X115217591Y-70078085D01*
G37*
G36*
X113642591Y-70078085D02*
G01*
X113676569Y-70088393D01*
X113707890Y-70105134D01*
X113735339Y-70127661D01*
X113757866Y-70155110D01*
X113774607Y-70186431D01*
X113784915Y-70220409D01*
X113789000Y-70261890D01*
X113789000Y-70938110D01*
X113784915Y-70979591D01*
X113774607Y-71013569D01*
X113757866Y-71044890D01*
X113735339Y-71072339D01*
X113707890Y-71094866D01*
X113676569Y-71111607D01*
X113642591Y-71121915D01*
X113601110Y-71126000D01*
X112999890Y-71126000D01*
X112958409Y-71121915D01*
X112924431Y-71111607D01*
X112893110Y-71094866D01*
X112865661Y-71072339D01*
X112843134Y-71044890D01*
X112826393Y-71013569D01*
X112816085Y-70979591D01*
X112812000Y-70938110D01*
X112812000Y-70261890D01*
X112816085Y-70220409D01*
X112826393Y-70186431D01*
X112843134Y-70155110D01*
X112865661Y-70127661D01*
X112893110Y-70105134D01*
X112924431Y-70088393D01*
X112958409Y-70078085D01*
X112999890Y-70074000D01*
X113601110Y-70074000D01*
X113642591Y-70078085D01*
X113642591Y-70078085D01*
G37*
G36*
X123754591Y-68478085D02*
G01*
X123788569Y-68488393D01*
X123819890Y-68505134D01*
X123847339Y-68527661D01*
X123869866Y-68555110D01*
X123886607Y-68586431D01*
X123896915Y-68620409D01*
X123901000Y-68661890D01*
X123901000Y-69338110D01*
X123896915Y-69379591D01*
X123886607Y-69413569D01*
X123869866Y-69444890D01*
X123847339Y-69472339D01*
X123819890Y-69494866D01*
X123788569Y-69511607D01*
X123754591Y-69521915D01*
X123713110Y-69526000D01*
X123111890Y-69526000D01*
X123070409Y-69521915D01*
X123036431Y-69511607D01*
X123005110Y-69494866D01*
X122977661Y-69472339D01*
X122955134Y-69444890D01*
X122938393Y-69413569D01*
X122928085Y-69379591D01*
X122924000Y-69338110D01*
X122924000Y-68661890D01*
X122928085Y-68620409D01*
X122938393Y-68586431D01*
X122955134Y-68555110D01*
X122977661Y-68527661D01*
X123005110Y-68505134D01*
X123036431Y-68488393D01*
X123070409Y-68478085D01*
X123111890Y-68474000D01*
X123713110Y-68474000D01*
X123754591Y-68478085D01*
X123754591Y-68478085D01*
G37*
G36*
X125329591Y-68478085D02*
G01*
X125363569Y-68488393D01*
X125394890Y-68505134D01*
X125422339Y-68527661D01*
X125444866Y-68555110D01*
X125461607Y-68586431D01*
X125471915Y-68620409D01*
X125476000Y-68661890D01*
X125476000Y-69338110D01*
X125471915Y-69379591D01*
X125461607Y-69413569D01*
X125444866Y-69444890D01*
X125422339Y-69472339D01*
X125394890Y-69494866D01*
X125363569Y-69511607D01*
X125329591Y-69521915D01*
X125288110Y-69526000D01*
X124686890Y-69526000D01*
X124645409Y-69521915D01*
X124611431Y-69511607D01*
X124580110Y-69494866D01*
X124552661Y-69472339D01*
X124530134Y-69444890D01*
X124513393Y-69413569D01*
X124503085Y-69379591D01*
X124499000Y-69338110D01*
X124499000Y-68661890D01*
X124503085Y-68620409D01*
X124513393Y-68586431D01*
X124530134Y-68555110D01*
X124552661Y-68527661D01*
X124580110Y-68505134D01*
X124611431Y-68488393D01*
X124645409Y-68478085D01*
X124686890Y-68474000D01*
X125288110Y-68474000D01*
X125329591Y-68478085D01*
X125329591Y-68478085D01*
G37*
G36*
X115241591Y-68478085D02*
G01*
X115275569Y-68488393D01*
X115306890Y-68505134D01*
X115334339Y-68527661D01*
X115356866Y-68555110D01*
X115373607Y-68586431D01*
X115383915Y-68620409D01*
X115388000Y-68661890D01*
X115388000Y-69338110D01*
X115383915Y-69379591D01*
X115373607Y-69413569D01*
X115356866Y-69444890D01*
X115334339Y-69472339D01*
X115306890Y-69494866D01*
X115275569Y-69511607D01*
X115241591Y-69521915D01*
X115200110Y-69526000D01*
X114598890Y-69526000D01*
X114557409Y-69521915D01*
X114523431Y-69511607D01*
X114492110Y-69494866D01*
X114464661Y-69472339D01*
X114442134Y-69444890D01*
X114425393Y-69413569D01*
X114415085Y-69379591D01*
X114411000Y-69338110D01*
X114411000Y-68661890D01*
X114415085Y-68620409D01*
X114425393Y-68586431D01*
X114442134Y-68555110D01*
X114464661Y-68527661D01*
X114492110Y-68505134D01*
X114523431Y-68488393D01*
X114557409Y-68478085D01*
X114598890Y-68474000D01*
X115200110Y-68474000D01*
X115241591Y-68478085D01*
X115241591Y-68478085D01*
G37*
G36*
X113666591Y-68478085D02*
G01*
X113700569Y-68488393D01*
X113731890Y-68505134D01*
X113759339Y-68527661D01*
X113781866Y-68555110D01*
X113798607Y-68586431D01*
X113808915Y-68620409D01*
X113813000Y-68661890D01*
X113813000Y-69338110D01*
X113808915Y-69379591D01*
X113798607Y-69413569D01*
X113781866Y-69444890D01*
X113759339Y-69472339D01*
X113731890Y-69494866D01*
X113700569Y-69511607D01*
X113666591Y-69521915D01*
X113625110Y-69526000D01*
X113023890Y-69526000D01*
X112982409Y-69521915D01*
X112948431Y-69511607D01*
X112917110Y-69494866D01*
X112889661Y-69472339D01*
X112867134Y-69444890D01*
X112850393Y-69413569D01*
X112840085Y-69379591D01*
X112836000Y-69338110D01*
X112836000Y-68661890D01*
X112840085Y-68620409D01*
X112850393Y-68586431D01*
X112867134Y-68555110D01*
X112889661Y-68527661D01*
X112917110Y-68505134D01*
X112948431Y-68488393D01*
X112982409Y-68478085D01*
X113023890Y-68474000D01*
X113625110Y-68474000D01*
X113666591Y-68478085D01*
X113666591Y-68478085D01*
G37*
G36*
X117751000Y-69326000D02*
G01*
X116549000Y-69326000D01*
X116549000Y-66874000D01*
X117751000Y-66874000D01*
X117751000Y-69326000D01*
X117751000Y-69326000D01*
G37*
G36*
X122051000Y-69326000D02*
G01*
X120849000Y-69326000D01*
X120849000Y-66874000D01*
X122051000Y-66874000D01*
X122051000Y-69326000D01*
X122051000Y-69326000D01*
G37*
G36*
X128854591Y-67078085D02*
G01*
X128888569Y-67088393D01*
X128919890Y-67105134D01*
X128947339Y-67127661D01*
X128969866Y-67155110D01*
X128986607Y-67186431D01*
X128996915Y-67220409D01*
X129001000Y-67261890D01*
X129001000Y-67938110D01*
X128996915Y-67979591D01*
X128986607Y-68013569D01*
X128969866Y-68044890D01*
X128947339Y-68072339D01*
X128919890Y-68094866D01*
X128888569Y-68111607D01*
X128854591Y-68121915D01*
X128813110Y-68126000D01*
X128211890Y-68126000D01*
X128170409Y-68121915D01*
X128136431Y-68111607D01*
X128105110Y-68094866D01*
X128077661Y-68072339D01*
X128055134Y-68044890D01*
X128038393Y-68013569D01*
X128028085Y-67979591D01*
X128024000Y-67938110D01*
X128024000Y-67261890D01*
X128028085Y-67220409D01*
X128038393Y-67186431D01*
X128055134Y-67155110D01*
X128077661Y-67127661D01*
X128105110Y-67105134D01*
X128136431Y-67088393D01*
X128170409Y-67078085D01*
X128211890Y-67074000D01*
X128813110Y-67074000D01*
X128854591Y-67078085D01*
X128854591Y-67078085D01*
G37*
G36*
X130429591Y-67078085D02*
G01*
X130463569Y-67088393D01*
X130494890Y-67105134D01*
X130522339Y-67127661D01*
X130544866Y-67155110D01*
X130561607Y-67186431D01*
X130571915Y-67220409D01*
X130576000Y-67261890D01*
X130576000Y-67938110D01*
X130571915Y-67979591D01*
X130561607Y-68013569D01*
X130544866Y-68044890D01*
X130522339Y-68072339D01*
X130494890Y-68094866D01*
X130463569Y-68111607D01*
X130429591Y-68121915D01*
X130388110Y-68126000D01*
X129786890Y-68126000D01*
X129745409Y-68121915D01*
X129711431Y-68111607D01*
X129680110Y-68094866D01*
X129652661Y-68072339D01*
X129630134Y-68044890D01*
X129613393Y-68013569D01*
X129603085Y-67979591D01*
X129599000Y-67938110D01*
X129599000Y-67261890D01*
X129603085Y-67220409D01*
X129613393Y-67186431D01*
X129630134Y-67155110D01*
X129652661Y-67127661D01*
X129680110Y-67105134D01*
X129711431Y-67088393D01*
X129745409Y-67078085D01*
X129786890Y-67074000D01*
X130388110Y-67074000D01*
X130429591Y-67078085D01*
X130429591Y-67078085D01*
G37*
G36*
X125329591Y-66878085D02*
G01*
X125363569Y-66888393D01*
X125394890Y-66905134D01*
X125422339Y-66927661D01*
X125444866Y-66955110D01*
X125461607Y-66986431D01*
X125471915Y-67020409D01*
X125476000Y-67061890D01*
X125476000Y-67738110D01*
X125471915Y-67779591D01*
X125461607Y-67813569D01*
X125444866Y-67844890D01*
X125422339Y-67872339D01*
X125394890Y-67894866D01*
X125363569Y-67911607D01*
X125329591Y-67921915D01*
X125288110Y-67926000D01*
X124686890Y-67926000D01*
X124645409Y-67921915D01*
X124611431Y-67911607D01*
X124580110Y-67894866D01*
X124552661Y-67872339D01*
X124530134Y-67844890D01*
X124513393Y-67813569D01*
X124503085Y-67779591D01*
X124499000Y-67738110D01*
X124499000Y-67061890D01*
X124503085Y-67020409D01*
X124513393Y-66986431D01*
X124530134Y-66955110D01*
X124552661Y-66927661D01*
X124580110Y-66905134D01*
X124611431Y-66888393D01*
X124645409Y-66878085D01*
X124686890Y-66874000D01*
X125288110Y-66874000D01*
X125329591Y-66878085D01*
X125329591Y-66878085D01*
G37*
G36*
X123754591Y-66878085D02*
G01*
X123788569Y-66888393D01*
X123819890Y-66905134D01*
X123847339Y-66927661D01*
X123869866Y-66955110D01*
X123886607Y-66986431D01*
X123896915Y-67020409D01*
X123901000Y-67061890D01*
X123901000Y-67738110D01*
X123896915Y-67779591D01*
X123886607Y-67813569D01*
X123869866Y-67844890D01*
X123847339Y-67872339D01*
X123819890Y-67894866D01*
X123788569Y-67911607D01*
X123754591Y-67921915D01*
X123713110Y-67926000D01*
X123111890Y-67926000D01*
X123070409Y-67921915D01*
X123036431Y-67911607D01*
X123005110Y-67894866D01*
X122977661Y-67872339D01*
X122955134Y-67844890D01*
X122938393Y-67813569D01*
X122928085Y-67779591D01*
X122924000Y-67738110D01*
X122924000Y-67061890D01*
X122928085Y-67020409D01*
X122938393Y-66986431D01*
X122955134Y-66955110D01*
X122977661Y-66927661D01*
X123005110Y-66905134D01*
X123036431Y-66888393D01*
X123070409Y-66878085D01*
X123111890Y-66874000D01*
X123713110Y-66874000D01*
X123754591Y-66878085D01*
X123754591Y-66878085D01*
G37*
G36*
X113666591Y-66878085D02*
G01*
X113700569Y-66888393D01*
X113731890Y-66905134D01*
X113759339Y-66927661D01*
X113781866Y-66955110D01*
X113798607Y-66986431D01*
X113808915Y-67020409D01*
X113813000Y-67061890D01*
X113813000Y-67738110D01*
X113808915Y-67779591D01*
X113798607Y-67813569D01*
X113781866Y-67844890D01*
X113759339Y-67872339D01*
X113731890Y-67894866D01*
X113700569Y-67911607D01*
X113666591Y-67921915D01*
X113625110Y-67926000D01*
X113023890Y-67926000D01*
X112982409Y-67921915D01*
X112948431Y-67911607D01*
X112917110Y-67894866D01*
X112889661Y-67872339D01*
X112867134Y-67844890D01*
X112850393Y-67813569D01*
X112840085Y-67779591D01*
X112836000Y-67738110D01*
X112836000Y-67061890D01*
X112840085Y-67020409D01*
X112850393Y-66986431D01*
X112867134Y-66955110D01*
X112889661Y-66927661D01*
X112917110Y-66905134D01*
X112948431Y-66888393D01*
X112982409Y-66878085D01*
X113023890Y-66874000D01*
X113625110Y-66874000D01*
X113666591Y-66878085D01*
X113666591Y-66878085D01*
G37*
G36*
X115241591Y-66878085D02*
G01*
X115275569Y-66888393D01*
X115306890Y-66905134D01*
X115334339Y-66927661D01*
X115356866Y-66955110D01*
X115373607Y-66986431D01*
X115383915Y-67020409D01*
X115388000Y-67061890D01*
X115388000Y-67738110D01*
X115383915Y-67779591D01*
X115373607Y-67813569D01*
X115356866Y-67844890D01*
X115334339Y-67872339D01*
X115306890Y-67894866D01*
X115275569Y-67911607D01*
X115241591Y-67921915D01*
X115200110Y-67926000D01*
X114598890Y-67926000D01*
X114557409Y-67921915D01*
X114523431Y-67911607D01*
X114492110Y-67894866D01*
X114464661Y-67872339D01*
X114442134Y-67844890D01*
X114425393Y-67813569D01*
X114415085Y-67779591D01*
X114411000Y-67738110D01*
X114411000Y-67061890D01*
X114415085Y-67020409D01*
X114425393Y-66986431D01*
X114442134Y-66955110D01*
X114464661Y-66927661D01*
X114492110Y-66905134D01*
X114523431Y-66888393D01*
X114557409Y-66878085D01*
X114598890Y-66874000D01*
X115200110Y-66874000D01*
X115241591Y-66878085D01*
X115241591Y-66878085D01*
G37*
G36*
X128854591Y-65378085D02*
G01*
X128888569Y-65388393D01*
X128919890Y-65405134D01*
X128947339Y-65427661D01*
X128969866Y-65455110D01*
X128986607Y-65486431D01*
X128996915Y-65520409D01*
X129001000Y-65561890D01*
X129001000Y-66238110D01*
X128996915Y-66279591D01*
X128986607Y-66313569D01*
X128969866Y-66344890D01*
X128947339Y-66372339D01*
X128919890Y-66394866D01*
X128888569Y-66411607D01*
X128854591Y-66421915D01*
X128813110Y-66426000D01*
X128211890Y-66426000D01*
X128170409Y-66421915D01*
X128136431Y-66411607D01*
X128105110Y-66394866D01*
X128077661Y-66372339D01*
X128055134Y-66344890D01*
X128038393Y-66313569D01*
X128028085Y-66279591D01*
X128024000Y-66238110D01*
X128024000Y-65561890D01*
X128028085Y-65520409D01*
X128038393Y-65486431D01*
X128055134Y-65455110D01*
X128077661Y-65427661D01*
X128105110Y-65405134D01*
X128136431Y-65388393D01*
X128170409Y-65378085D01*
X128211890Y-65374000D01*
X128813110Y-65374000D01*
X128854591Y-65378085D01*
X128854591Y-65378085D01*
G37*
G36*
X130429591Y-65378085D02*
G01*
X130463569Y-65388393D01*
X130494890Y-65405134D01*
X130522339Y-65427661D01*
X130544866Y-65455110D01*
X130561607Y-65486431D01*
X130571915Y-65520409D01*
X130576000Y-65561890D01*
X130576000Y-66238110D01*
X130571915Y-66279591D01*
X130561607Y-66313569D01*
X130544866Y-66344890D01*
X130522339Y-66372339D01*
X130494890Y-66394866D01*
X130463569Y-66411607D01*
X130429591Y-66421915D01*
X130388110Y-66426000D01*
X129786890Y-66426000D01*
X129745409Y-66421915D01*
X129711431Y-66411607D01*
X129680110Y-66394866D01*
X129652661Y-66372339D01*
X129630134Y-66344890D01*
X129613393Y-66313569D01*
X129603085Y-66279591D01*
X129599000Y-66238110D01*
X129599000Y-65561890D01*
X129603085Y-65520409D01*
X129613393Y-65486431D01*
X129630134Y-65455110D01*
X129652661Y-65427661D01*
X129680110Y-65405134D01*
X129711431Y-65388393D01*
X129745409Y-65378085D01*
X129786890Y-65374000D01*
X130388110Y-65374000D01*
X130429591Y-65378085D01*
X130429591Y-65378085D01*
G37*
M02*
